G04 #@! TF.GenerationSoftware,KiCad,Pcbnew,(5.0.0)*
G04 #@! TF.CreationDate,2018-11-04T22:59:11-02:00*
G04 #@! TF.ProjectId,Cape_Beaglebone,436170655F426561676C65626F6E652E,rev?*
G04 #@! TF.SameCoordinates,Original*
G04 #@! TF.FileFunction,Legend,Bot*
G04 #@! TF.FilePolarity,Positive*
%FSLAX46Y46*%
G04 Gerber Fmt 4.6, Leading zero omitted, Abs format (unit mm)*
G04 Created by KiCad (PCBNEW (5.0.0)) date 11/04/18 22:59:11*
%MOMM*%
%LPD*%
G01*
G04 APERTURE LIST*
%ADD10C,0.254000*%
%ADD11C,0.200000*%
%ADD12C,0.120000*%
%ADD13C,0.150000*%
G04 APERTURE END LIST*
D10*
G04 #@! TO.C,IC10*
X125618896Y-89107004D02*
G75*
G03X125618896Y-89107004I-36000J0D01*
G01*
D11*
G04 #@! TO.C,IC4*
X156443065Y-61611871D02*
X156443065Y-60061871D01*
X146348065Y-59711871D02*
X156248065Y-59711871D01*
X146348065Y-56511871D02*
X146348065Y-59711871D01*
X156248065Y-56511871D02*
X146348065Y-56511871D01*
X156248065Y-59711871D02*
X156248065Y-56511871D01*
G04 #@! TO.C,IC6*
X184645896Y-93016104D02*
X188345896Y-93016104D01*
X188345896Y-93016104D02*
X188345896Y-88016104D01*
X188345896Y-88016104D02*
X184645896Y-88016104D01*
X184645896Y-88016104D02*
X184645896Y-93016104D01*
X182820896Y-93366104D02*
X184295896Y-93366104D01*
G04 #@! TO.C,IC12*
X159294296Y-92842004D02*
X162994296Y-92842004D01*
X162994296Y-92842004D02*
X162994296Y-83142004D01*
X162994296Y-83142004D02*
X159294296Y-83142004D01*
X159294296Y-83142004D02*
X159294296Y-92842004D01*
X157469296Y-92992004D02*
X158944296Y-92992004D01*
D10*
G04 #@! TO.C,IC8*
X124829496Y-97775604D02*
G75*
G03X124829496Y-97775604I-100000J0D01*
G01*
D11*
G04 #@! TO.C,IC3*
X177469995Y-74691104D02*
X177469995Y-72766104D01*
X167199995Y-72416104D02*
X177499995Y-72416104D01*
X167199995Y-65616104D02*
X167199995Y-72416104D01*
X177499995Y-65616104D02*
X167199995Y-65616104D01*
X177499995Y-72416104D02*
X177499995Y-65616104D01*
D12*
G04 #@! TO.C,C24*
X154084596Y-86564904D02*
X154084596Y-87564904D01*
X152384596Y-87564904D02*
X152384596Y-86564904D01*
G04 #@! TO.C,C1*
X137618896Y-63320104D02*
X138618896Y-63320104D01*
X138618896Y-65020104D02*
X137618896Y-65020104D01*
G04 #@! TO.C,C2*
X170723396Y-61536104D02*
X170723396Y-60536104D01*
X172423396Y-60536104D02*
X172423396Y-61536104D01*
G04 #@! TO.C,C3*
X134738896Y-65000104D02*
X133738896Y-65000104D01*
X133738896Y-63300104D02*
X134738896Y-63300104D01*
G04 #@! TO.C,C4*
X172359896Y-56504104D02*
X172359896Y-57504104D01*
X170659896Y-57504104D02*
X170659896Y-56504104D01*
G04 #@! TO.C,C5*
X175359396Y-56758604D02*
X174359396Y-56758604D01*
X174359396Y-55058604D02*
X175359396Y-55058604D01*
G04 #@! TO.C,C6*
X152068065Y-64950104D02*
X151068065Y-64950104D01*
X151068065Y-63250104D02*
X152068065Y-63250104D01*
G04 #@! TO.C,C7*
X146736896Y-63250104D02*
X147736896Y-63250104D01*
X147736896Y-64950104D02*
X146736896Y-64950104D01*
G04 #@! TO.C,C10*
X190471896Y-93667104D02*
X190471896Y-92667104D01*
X192171896Y-92667104D02*
X192171896Y-93667104D01*
G04 #@! TO.C,C11*
X192150000Y-85500000D02*
X192150000Y-86500000D01*
X190450000Y-86500000D02*
X190450000Y-85500000D01*
G04 #@! TO.C,C12*
X179790000Y-94110000D02*
X179790000Y-93110000D01*
X181490000Y-93110000D02*
X181490000Y-94110000D01*
G04 #@! TO.C,C13*
X182240496Y-88593704D02*
X182240496Y-89593704D01*
X180540496Y-89593704D02*
X180540496Y-88593704D01*
G04 #@! TO.C,C14*
X119129896Y-98455104D02*
X119129896Y-97455104D01*
X120829896Y-97455104D02*
X120829896Y-98455104D01*
G04 #@! TO.C,C15*
X120829896Y-93423104D02*
X120829896Y-94423104D01*
X119129896Y-94423104D02*
X119129896Y-93423104D01*
G04 #@! TO.C,C16*
X123035896Y-92041104D02*
X124035896Y-92041104D01*
X124035896Y-93741104D02*
X123035896Y-93741104D01*
G04 #@! TO.C,C19*
X123953496Y-90727104D02*
X122953496Y-90727104D01*
X122953496Y-89027104D02*
X123953496Y-89027104D01*
G04 #@! TO.C,C20*
X148434896Y-87510904D02*
X148434896Y-86510904D01*
X150134896Y-86510904D02*
X150134896Y-87510904D01*
G04 #@! TO.C,C21*
X123017496Y-84551104D02*
X123017496Y-85551104D01*
X121317496Y-85551104D02*
X121317496Y-84551104D01*
G04 #@! TO.C,C25*
X154733896Y-88846104D02*
X155733896Y-88846104D01*
X155733896Y-90546104D02*
X154733896Y-90546104D01*
G04 #@! TO.C,C26*
X150527996Y-87564904D02*
X150527996Y-86564904D01*
X152227996Y-86564904D02*
X152227996Y-87564904D01*
G04 #@! TO.C,C27*
X125430496Y-83281104D02*
X125430496Y-84281104D01*
X123730496Y-84281104D02*
X123730496Y-83281104D01*
G04 #@! TO.C,C28*
X136522596Y-89883004D02*
X135522596Y-89883004D01*
X135522596Y-88183004D02*
X136522596Y-88183004D01*
G04 #@! TO.C,C29*
X166494296Y-92413104D02*
X166494296Y-91413104D01*
X168194296Y-91413104D02*
X168194296Y-92413104D01*
G04 #@! TO.C,C30*
X167453896Y-87634104D02*
X168453896Y-87634104D01*
X168453896Y-89334104D02*
X167453896Y-89334104D01*
G04 #@! TO.C,C31*
X138010000Y-92180000D02*
X137010000Y-92180000D01*
X137010000Y-90480000D02*
X138010000Y-90480000D01*
G04 #@! TO.C,C32*
X135538596Y-86506604D02*
X136538596Y-86506604D01*
X136538596Y-88206604D02*
X135538596Y-88206604D01*
D10*
G04 #@! TO.C,IC1*
X176202076Y-60778624D02*
G75*
G03X176202076Y-60778624I-100000J0D01*
G01*
D11*
G04 #@! TO.C,IC2*
X143187088Y-59791113D02*
X143187088Y-56591113D01*
X143187088Y-56591113D02*
X133287088Y-56591113D01*
X133287088Y-56591113D02*
X133287088Y-59791113D01*
X133287088Y-59791113D02*
X143187088Y-59791113D01*
X143382088Y-61691113D02*
X143382088Y-60141113D01*
G04 #@! TO.C,IC7*
X171644896Y-93366104D02*
X173119896Y-93366104D01*
X173469896Y-88016104D02*
X173469896Y-93016104D01*
X177169896Y-88016104D02*
X173469896Y-88016104D01*
X177169896Y-93016104D02*
X177169896Y-88016104D01*
X173469896Y-93016104D02*
X177169896Y-93016104D01*
D12*
G04 #@! TO.C,Q1*
X144408896Y-65680104D02*
X143478896Y-65680104D01*
X141248896Y-65680104D02*
X142178896Y-65680104D01*
X141248896Y-65680104D02*
X141248896Y-63520104D01*
X144408896Y-65680104D02*
X144408896Y-64220104D01*
G04 #@! TO.C,Q2*
X157722896Y-65606104D02*
X157722896Y-64146104D01*
X154562896Y-65606104D02*
X154562896Y-63446104D01*
X154562896Y-65606104D02*
X155492896Y-65606104D01*
X157722896Y-65606104D02*
X156792896Y-65606104D01*
G04 #@! TO.C,R1*
X140588896Y-66010104D02*
X139588896Y-66010104D01*
X139588896Y-67370104D02*
X140588896Y-67370104D01*
G04 #@! TO.C,R2*
X137438896Y-66010104D02*
X136438896Y-66010104D01*
X136438896Y-67370104D02*
X137438896Y-67370104D01*
G04 #@! TO.C,R3*
X170729396Y-60576744D02*
X170729396Y-59576744D01*
X169369396Y-59576744D02*
X169369396Y-60576744D01*
G04 #@! TO.C,R4*
X169387176Y-57194224D02*
X169387176Y-58194224D01*
X170747176Y-58194224D02*
X170747176Y-57194224D01*
G04 #@! TO.C,R5*
X152498896Y-67300104D02*
X153498896Y-67300104D01*
X153498896Y-65940104D02*
X152498896Y-65940104D01*
G04 #@! TO.C,R6*
X150038896Y-65960104D02*
X149038896Y-65960104D01*
X149038896Y-67320104D02*
X150038896Y-67320104D01*
G04 #@! TO.C,R13*
X119140976Y-97640524D02*
X119140976Y-96640524D01*
X117780976Y-96640524D02*
X117780976Y-97640524D01*
G04 #@! TO.C,R14*
X117775896Y-93977904D02*
X117775896Y-94977904D01*
X119135896Y-94977904D02*
X119135896Y-93977904D01*
G04 #@! TO.C,NT2*
D13*
X136122380Y-70273142D02*
X135122380Y-70273142D01*
X136122380Y-70844571D01*
X135122380Y-70844571D01*
X135122380Y-71177904D02*
X135122380Y-71749333D01*
X136122380Y-71463619D02*
X135122380Y-71463619D01*
X135217619Y-72035047D02*
X135170000Y-72082666D01*
X135122380Y-72177904D01*
X135122380Y-72416000D01*
X135170000Y-72511238D01*
X135217619Y-72558857D01*
X135312857Y-72606476D01*
X135408095Y-72606476D01*
X135550952Y-72558857D01*
X136122380Y-71987428D01*
X136122380Y-72606476D01*
G04 #@! TO.C,IC10*
D10*
X128012519Y-85429080D02*
X126742519Y-85429080D01*
X127891567Y-86759556D02*
X127952043Y-86699080D01*
X128012519Y-86517651D01*
X128012519Y-86396699D01*
X127952043Y-86215270D01*
X127831091Y-86094318D01*
X127710138Y-86033842D01*
X127468234Y-85973365D01*
X127286805Y-85973365D01*
X127044900Y-86033842D01*
X126923948Y-86094318D01*
X126802996Y-86215270D01*
X126742519Y-86396699D01*
X126742519Y-86517651D01*
X126802996Y-86699080D01*
X126863472Y-86759556D01*
X128012519Y-87969080D02*
X128012519Y-87243365D01*
X128012519Y-87606223D02*
X126742519Y-87606223D01*
X126923948Y-87485270D01*
X127044900Y-87364318D01*
X127105376Y-87243365D01*
X126742519Y-88755270D02*
X126742519Y-88876223D01*
X126802996Y-88997175D01*
X126863472Y-89057651D01*
X126984424Y-89118127D01*
X127226329Y-89178604D01*
X127528710Y-89178604D01*
X127770615Y-89118127D01*
X127891567Y-89057651D01*
X127952043Y-88997175D01*
X128012519Y-88876223D01*
X128012519Y-88755270D01*
X127952043Y-88634318D01*
X127891567Y-88573842D01*
X127770615Y-88513365D01*
X127528710Y-88452889D01*
X127226329Y-88452889D01*
X126984424Y-88513365D01*
X126863472Y-88573842D01*
X126802996Y-88634318D01*
X126742519Y-88755270D01*
G04 #@! TO.C,IC4*
X157923919Y-56872109D02*
X156653919Y-56872109D01*
X157802967Y-58202585D02*
X157863443Y-58142109D01*
X157923919Y-57960680D01*
X157923919Y-57839728D01*
X157863443Y-57658299D01*
X157742491Y-57537347D01*
X157621538Y-57476871D01*
X157379634Y-57416394D01*
X157198205Y-57416394D01*
X156956300Y-57476871D01*
X156835348Y-57537347D01*
X156714396Y-57658299D01*
X156653919Y-57839728D01*
X156653919Y-57960680D01*
X156714396Y-58142109D01*
X156774872Y-58202585D01*
X157077253Y-59291156D02*
X157923919Y-59291156D01*
X156593443Y-58988775D02*
X157500586Y-58686394D01*
X157500586Y-59472585D01*
G04 #@! TO.C,IC6*
X187735657Y-94456127D02*
X187735657Y-93186127D01*
X186405181Y-94335175D02*
X186465657Y-94395651D01*
X186647086Y-94456127D01*
X186768038Y-94456127D01*
X186949467Y-94395651D01*
X187070419Y-94274699D01*
X187130896Y-94153746D01*
X187191372Y-93911842D01*
X187191372Y-93730413D01*
X187130896Y-93488508D01*
X187070419Y-93367556D01*
X186949467Y-93246604D01*
X186768038Y-93186127D01*
X186647086Y-93186127D01*
X186465657Y-93246604D01*
X186405181Y-93307080D01*
X185316610Y-93186127D02*
X185558515Y-93186127D01*
X185679467Y-93246604D01*
X185739943Y-93307080D01*
X185860896Y-93488508D01*
X185921372Y-93730413D01*
X185921372Y-94214223D01*
X185860896Y-94335175D01*
X185800419Y-94395651D01*
X185679467Y-94456127D01*
X185437562Y-94456127D01*
X185316610Y-94395651D01*
X185256134Y-94335175D01*
X185195657Y-94214223D01*
X185195657Y-93911842D01*
X185256134Y-93790889D01*
X185316610Y-93730413D01*
X185437562Y-93669937D01*
X185679467Y-93669937D01*
X185800419Y-93730413D01*
X185860896Y-93790889D01*
X185921372Y-93911842D01*
G04 #@! TO.C,IC12*
X163003919Y-94392627D02*
X163003919Y-93122627D01*
X161673443Y-94271675D02*
X161733919Y-94332151D01*
X161915348Y-94392627D01*
X162036300Y-94392627D01*
X162217729Y-94332151D01*
X162338681Y-94211199D01*
X162399157Y-94090246D01*
X162459634Y-93848342D01*
X162459634Y-93666913D01*
X162399157Y-93425008D01*
X162338681Y-93304056D01*
X162217729Y-93183104D01*
X162036300Y-93122627D01*
X161915348Y-93122627D01*
X161733919Y-93183104D01*
X161673443Y-93243580D01*
X160463919Y-94392627D02*
X161189634Y-94392627D01*
X160826776Y-94392627D02*
X160826776Y-93122627D01*
X160947729Y-93304056D01*
X161068681Y-93425008D01*
X161189634Y-93485484D01*
X159980110Y-93243580D02*
X159919634Y-93183104D01*
X159798681Y-93122627D01*
X159496300Y-93122627D01*
X159375348Y-93183104D01*
X159314872Y-93243580D01*
X159254396Y-93364532D01*
X159254396Y-93485484D01*
X159314872Y-93666913D01*
X160040586Y-94392627D01*
X159254396Y-94392627D01*
G04 #@! TO.C,IC13*
X142617219Y-86947080D02*
X141347219Y-86947080D01*
X142496267Y-88277556D02*
X142556743Y-88217080D01*
X142617219Y-88035651D01*
X142617219Y-87914699D01*
X142556743Y-87733270D01*
X142435791Y-87612318D01*
X142314838Y-87551842D01*
X142072934Y-87491365D01*
X141891505Y-87491365D01*
X141649600Y-87551842D01*
X141528648Y-87612318D01*
X141407696Y-87733270D01*
X141347219Y-87914699D01*
X141347219Y-88035651D01*
X141407696Y-88217080D01*
X141468172Y-88277556D01*
X142617219Y-89487080D02*
X142617219Y-88761365D01*
X142617219Y-89124223D02*
X141347219Y-89124223D01*
X141528648Y-89003270D01*
X141649600Y-88882318D01*
X141710076Y-88761365D01*
X141347219Y-89910413D02*
X141347219Y-90696604D01*
X141831029Y-90273270D01*
X141831029Y-90454699D01*
X141891505Y-90575651D01*
X141951981Y-90636127D01*
X142072934Y-90696604D01*
X142375315Y-90696604D01*
X142496267Y-90636127D01*
X142556743Y-90575651D01*
X142617219Y-90454699D01*
X142617219Y-90091842D01*
X142556743Y-89970889D01*
X142496267Y-89910413D01*
G04 #@! TO.C,IC8*
X126701219Y-96807542D02*
X125431219Y-96807542D01*
X126580267Y-98138018D02*
X126640743Y-98077542D01*
X126701219Y-97896113D01*
X126701219Y-97775161D01*
X126640743Y-97593732D01*
X126519791Y-97472780D01*
X126398838Y-97412304D01*
X126156934Y-97351827D01*
X125975505Y-97351827D01*
X125733600Y-97412304D01*
X125612648Y-97472780D01*
X125491696Y-97593732D01*
X125431219Y-97775161D01*
X125431219Y-97896113D01*
X125491696Y-98077542D01*
X125552172Y-98138018D01*
X125975505Y-98863732D02*
X125915029Y-98742780D01*
X125854553Y-98682304D01*
X125733600Y-98621827D01*
X125673124Y-98621827D01*
X125552172Y-98682304D01*
X125491696Y-98742780D01*
X125431219Y-98863732D01*
X125431219Y-99105637D01*
X125491696Y-99226589D01*
X125552172Y-99287065D01*
X125673124Y-99347542D01*
X125733600Y-99347542D01*
X125854553Y-99287065D01*
X125915029Y-99226589D01*
X125975505Y-99105637D01*
X125975505Y-98863732D01*
X126035981Y-98742780D01*
X126096457Y-98682304D01*
X126217410Y-98621827D01*
X126459315Y-98621827D01*
X126580267Y-98682304D01*
X126640743Y-98742780D01*
X126701219Y-98863732D01*
X126701219Y-99105637D01*
X126640743Y-99226589D01*
X126580267Y-99287065D01*
X126459315Y-99347542D01*
X126217410Y-99347542D01*
X126096457Y-99287065D01*
X126035981Y-99226589D01*
X125975505Y-99105637D01*
G04 #@! TO.C,IC3*
X166701518Y-67776342D02*
X165431518Y-67776342D01*
X166580566Y-69106818D02*
X166641042Y-69046342D01*
X166701518Y-68864913D01*
X166701518Y-68743961D01*
X166641042Y-68562532D01*
X166520090Y-68441580D01*
X166399137Y-68381104D01*
X166157233Y-68320627D01*
X165975804Y-68320627D01*
X165733899Y-68381104D01*
X165612947Y-68441580D01*
X165491995Y-68562532D01*
X165431518Y-68743961D01*
X165431518Y-68864913D01*
X165491995Y-69046342D01*
X165552471Y-69106818D01*
X165431518Y-69530151D02*
X165431518Y-70316342D01*
X165915328Y-69893008D01*
X165915328Y-70074437D01*
X165975804Y-70195389D01*
X166036280Y-70255865D01*
X166157233Y-70316342D01*
X166459614Y-70316342D01*
X166580566Y-70255865D01*
X166641042Y-70195389D01*
X166701518Y-70074437D01*
X166701518Y-69711580D01*
X166641042Y-69590627D01*
X166580566Y-69530151D01*
G04 #@! TO.C,NT1*
D13*
X146984753Y-81697484D02*
X146984753Y-80697484D01*
X146413324Y-81697484D01*
X146413324Y-80697484D01*
X146079991Y-80697484D02*
X145508562Y-80697484D01*
X145794276Y-81697484D02*
X145794276Y-80697484D01*
X144651419Y-81697484D02*
X145222848Y-81697484D01*
X144937134Y-81697484D02*
X144937134Y-80697484D01*
X145032372Y-80840342D01*
X145127610Y-80935580D01*
X145222848Y-80983199D01*
G04 #@! TO.C,C24*
X153579038Y-83078746D02*
X153626657Y-83031127D01*
X153674276Y-82888270D01*
X153674276Y-82793032D01*
X153626657Y-82650175D01*
X153531419Y-82554937D01*
X153436181Y-82507318D01*
X153245705Y-82459699D01*
X153102848Y-82459699D01*
X152912372Y-82507318D01*
X152817134Y-82554937D01*
X152721896Y-82650175D01*
X152674276Y-82793032D01*
X152674276Y-82888270D01*
X152721896Y-83031127D01*
X152769515Y-83078746D01*
X152769515Y-83459699D02*
X152721896Y-83507318D01*
X152674276Y-83602556D01*
X152674276Y-83840651D01*
X152721896Y-83935889D01*
X152769515Y-83983508D01*
X152864753Y-84031127D01*
X152959991Y-84031127D01*
X153102848Y-83983508D01*
X153674276Y-83412080D01*
X153674276Y-84031127D01*
X153007610Y-84888270D02*
X153674276Y-84888270D01*
X152626657Y-84650175D02*
X153340943Y-84412080D01*
X153340943Y-85031127D01*
G04 #@! TO.C,C1*
X138275562Y-62869746D02*
X138323181Y-62917365D01*
X138466038Y-62964984D01*
X138561276Y-62964984D01*
X138704134Y-62917365D01*
X138799372Y-62822127D01*
X138846991Y-62726889D01*
X138894610Y-62536413D01*
X138894610Y-62393556D01*
X138846991Y-62203080D01*
X138799372Y-62107842D01*
X138704134Y-62012604D01*
X138561276Y-61964984D01*
X138466038Y-61964984D01*
X138323181Y-62012604D01*
X138275562Y-62060223D01*
X137323181Y-62964984D02*
X137894610Y-62964984D01*
X137608896Y-62964984D02*
X137608896Y-61964984D01*
X137704134Y-62107842D01*
X137799372Y-62203080D01*
X137894610Y-62250699D01*
G04 #@! TO.C,C2*
X173581538Y-62282437D02*
X173629157Y-62234818D01*
X173676776Y-62091961D01*
X173676776Y-61996723D01*
X173629157Y-61853865D01*
X173533919Y-61758627D01*
X173438681Y-61711008D01*
X173248205Y-61663389D01*
X173105348Y-61663389D01*
X172914872Y-61711008D01*
X172819634Y-61758627D01*
X172724396Y-61853865D01*
X172676776Y-61996723D01*
X172676776Y-62091961D01*
X172724396Y-62234818D01*
X172772015Y-62282437D01*
X172772015Y-62663389D02*
X172724396Y-62711008D01*
X172676776Y-62806246D01*
X172676776Y-63044342D01*
X172724396Y-63139580D01*
X172772015Y-63187199D01*
X172867253Y-63234818D01*
X172962491Y-63234818D01*
X173105348Y-63187199D01*
X173676776Y-62615770D01*
X173676776Y-63234818D01*
G04 #@! TO.C,C3*
X134405562Y-66007246D02*
X134453181Y-66054865D01*
X134596038Y-66102484D01*
X134691276Y-66102484D01*
X134834134Y-66054865D01*
X134929372Y-65959627D01*
X134976991Y-65864389D01*
X135024610Y-65673913D01*
X135024610Y-65531056D01*
X134976991Y-65340580D01*
X134929372Y-65245342D01*
X134834134Y-65150104D01*
X134691276Y-65102484D01*
X134596038Y-65102484D01*
X134453181Y-65150104D01*
X134405562Y-65197723D01*
X134072229Y-65102484D02*
X133453181Y-65102484D01*
X133786515Y-65483437D01*
X133643657Y-65483437D01*
X133548419Y-65531056D01*
X133500800Y-65578675D01*
X133453181Y-65673913D01*
X133453181Y-65912008D01*
X133500800Y-66007246D01*
X133548419Y-66054865D01*
X133643657Y-66102484D01*
X133929372Y-66102484D01*
X134024610Y-66054865D01*
X134072229Y-66007246D01*
G04 #@! TO.C,C4*
X171676562Y-54805246D02*
X171724181Y-54852865D01*
X171867038Y-54900484D01*
X171962276Y-54900484D01*
X172105134Y-54852865D01*
X172200372Y-54757627D01*
X172247991Y-54662389D01*
X172295610Y-54471913D01*
X172295610Y-54329056D01*
X172247991Y-54138580D01*
X172200372Y-54043342D01*
X172105134Y-53948104D01*
X171962276Y-53900484D01*
X171867038Y-53900484D01*
X171724181Y-53948104D01*
X171676562Y-53995723D01*
X170819419Y-54233818D02*
X170819419Y-54900484D01*
X171057515Y-53852865D02*
X171295610Y-54567151D01*
X170676562Y-54567151D01*
G04 #@! TO.C,C5*
X177709038Y-55741937D02*
X177756657Y-55694318D01*
X177804276Y-55551461D01*
X177804276Y-55456223D01*
X177756657Y-55313365D01*
X177661419Y-55218127D01*
X177566181Y-55170508D01*
X177375705Y-55122889D01*
X177232848Y-55122889D01*
X177042372Y-55170508D01*
X176947134Y-55218127D01*
X176851896Y-55313365D01*
X176804276Y-55456223D01*
X176804276Y-55551461D01*
X176851896Y-55694318D01*
X176899515Y-55741937D01*
X176804276Y-56646699D02*
X176804276Y-56170508D01*
X177280467Y-56122889D01*
X177232848Y-56170508D01*
X177185229Y-56265746D01*
X177185229Y-56503842D01*
X177232848Y-56599080D01*
X177280467Y-56646699D01*
X177375705Y-56694318D01*
X177613800Y-56694318D01*
X177709038Y-56646699D01*
X177756657Y-56599080D01*
X177804276Y-56503842D01*
X177804276Y-56265746D01*
X177756657Y-56170508D01*
X177709038Y-56122889D01*
G04 #@! TO.C,C6*
X151610562Y-62933246D02*
X151658181Y-62980865D01*
X151801038Y-63028484D01*
X151896276Y-63028484D01*
X152039134Y-62980865D01*
X152134372Y-62885627D01*
X152181991Y-62790389D01*
X152229610Y-62599913D01*
X152229610Y-62457056D01*
X152181991Y-62266580D01*
X152134372Y-62171342D01*
X152039134Y-62076104D01*
X151896276Y-62028484D01*
X151801038Y-62028484D01*
X151658181Y-62076104D01*
X151610562Y-62123723D01*
X150753419Y-62028484D02*
X150943896Y-62028484D01*
X151039134Y-62076104D01*
X151086753Y-62123723D01*
X151181991Y-62266580D01*
X151229610Y-62457056D01*
X151229610Y-62838008D01*
X151181991Y-62933246D01*
X151134372Y-62980865D01*
X151039134Y-63028484D01*
X150848657Y-63028484D01*
X150753419Y-62980865D01*
X150705800Y-62933246D01*
X150658181Y-62838008D01*
X150658181Y-62599913D01*
X150705800Y-62504675D01*
X150753419Y-62457056D01*
X150848657Y-62409437D01*
X151039134Y-62409437D01*
X151134372Y-62457056D01*
X151181991Y-62504675D01*
X151229610Y-62599913D01*
G04 #@! TO.C,C7*
X147403562Y-65957246D02*
X147451181Y-66004865D01*
X147594038Y-66052484D01*
X147689276Y-66052484D01*
X147832134Y-66004865D01*
X147927372Y-65909627D01*
X147974991Y-65814389D01*
X148022610Y-65623913D01*
X148022610Y-65481056D01*
X147974991Y-65290580D01*
X147927372Y-65195342D01*
X147832134Y-65100104D01*
X147689276Y-65052484D01*
X147594038Y-65052484D01*
X147451181Y-65100104D01*
X147403562Y-65147723D01*
X147070229Y-65052484D02*
X146403562Y-65052484D01*
X146832134Y-66052484D01*
G04 #@! TO.C,C10*
X193179038Y-92524246D02*
X193226657Y-92476627D01*
X193274276Y-92333770D01*
X193274276Y-92238532D01*
X193226657Y-92095675D01*
X193131419Y-92000437D01*
X193036181Y-91952818D01*
X192845705Y-91905199D01*
X192702848Y-91905199D01*
X192512372Y-91952818D01*
X192417134Y-92000437D01*
X192321896Y-92095675D01*
X192274276Y-92238532D01*
X192274276Y-92333770D01*
X192321896Y-92476627D01*
X192369515Y-92524246D01*
X193274276Y-93476627D02*
X193274276Y-92905199D01*
X193274276Y-93190913D02*
X192274276Y-93190913D01*
X192417134Y-93095675D01*
X192512372Y-93000437D01*
X192559991Y-92905199D01*
X192274276Y-94095675D02*
X192274276Y-94190913D01*
X192321896Y-94286151D01*
X192369515Y-94333770D01*
X192464753Y-94381389D01*
X192655229Y-94429008D01*
X192893324Y-94429008D01*
X193083800Y-94381389D01*
X193179038Y-94333770D01*
X193226657Y-94286151D01*
X193274276Y-94190913D01*
X193274276Y-94095675D01*
X193226657Y-94000437D01*
X193179038Y-93952818D01*
X193083800Y-93905199D01*
X192893324Y-93857580D01*
X192655229Y-93857580D01*
X192464753Y-93905199D01*
X192369515Y-93952818D01*
X192321896Y-94000437D01*
X192274276Y-94095675D01*
G04 #@! TO.C,C11*
X193157142Y-85357142D02*
X193204761Y-85309523D01*
X193252380Y-85166666D01*
X193252380Y-85071428D01*
X193204761Y-84928571D01*
X193109523Y-84833333D01*
X193014285Y-84785714D01*
X192823809Y-84738095D01*
X192680952Y-84738095D01*
X192490476Y-84785714D01*
X192395238Y-84833333D01*
X192300000Y-84928571D01*
X192252380Y-85071428D01*
X192252380Y-85166666D01*
X192300000Y-85309523D01*
X192347619Y-85357142D01*
X193252380Y-86309523D02*
X193252380Y-85738095D01*
X193252380Y-86023809D02*
X192252380Y-86023809D01*
X192395238Y-85928571D01*
X192490476Y-85833333D01*
X192538095Y-85738095D01*
X193252380Y-87261904D02*
X193252380Y-86690476D01*
X193252380Y-86976190D02*
X192252380Y-86976190D01*
X192395238Y-86880952D01*
X192490476Y-86785714D01*
X192538095Y-86690476D01*
G04 #@! TO.C,C12*
X182497142Y-92967142D02*
X182544761Y-92919523D01*
X182592380Y-92776666D01*
X182592380Y-92681428D01*
X182544761Y-92538571D01*
X182449523Y-92443333D01*
X182354285Y-92395714D01*
X182163809Y-92348095D01*
X182020952Y-92348095D01*
X181830476Y-92395714D01*
X181735238Y-92443333D01*
X181640000Y-92538571D01*
X181592380Y-92681428D01*
X181592380Y-92776666D01*
X181640000Y-92919523D01*
X181687619Y-92967142D01*
X182592380Y-93919523D02*
X182592380Y-93348095D01*
X182592380Y-93633809D02*
X181592380Y-93633809D01*
X181735238Y-93538571D01*
X181830476Y-93443333D01*
X181878095Y-93348095D01*
X181687619Y-94300476D02*
X181640000Y-94348095D01*
X181592380Y-94443333D01*
X181592380Y-94681428D01*
X181640000Y-94776666D01*
X181687619Y-94824285D01*
X181782857Y-94871904D01*
X181878095Y-94871904D01*
X182020952Y-94824285D01*
X182592380Y-94252857D01*
X182592380Y-94871904D01*
G04 #@! TO.C,C13*
X181969853Y-86974346D02*
X182017472Y-87021965D01*
X182160329Y-87069584D01*
X182255567Y-87069584D01*
X182398424Y-87021965D01*
X182493662Y-86926727D01*
X182541281Y-86831489D01*
X182588900Y-86641013D01*
X182588900Y-86498156D01*
X182541281Y-86307680D01*
X182493662Y-86212442D01*
X182398424Y-86117204D01*
X182255567Y-86069584D01*
X182160329Y-86069584D01*
X182017472Y-86117204D01*
X181969853Y-86164823D01*
X181017472Y-87069584D02*
X181588900Y-87069584D01*
X181303186Y-87069584D02*
X181303186Y-86069584D01*
X181398424Y-86212442D01*
X181493662Y-86307680D01*
X181588900Y-86355299D01*
X180684138Y-86069584D02*
X180065091Y-86069584D01*
X180398424Y-86450537D01*
X180255567Y-86450537D01*
X180160329Y-86498156D01*
X180112710Y-86545775D01*
X180065091Y-86641013D01*
X180065091Y-86879108D01*
X180112710Y-86974346D01*
X180160329Y-87021965D01*
X180255567Y-87069584D01*
X180541281Y-87069584D01*
X180636519Y-87021965D01*
X180684138Y-86974346D01*
G04 #@! TO.C,C14*
X122959553Y-99369646D02*
X123007172Y-99417265D01*
X123150029Y-99464884D01*
X123245267Y-99464884D01*
X123388124Y-99417265D01*
X123483362Y-99322027D01*
X123530981Y-99226789D01*
X123578600Y-99036313D01*
X123578600Y-98893456D01*
X123530981Y-98702980D01*
X123483362Y-98607742D01*
X123388124Y-98512504D01*
X123245267Y-98464884D01*
X123150029Y-98464884D01*
X123007172Y-98512504D01*
X122959553Y-98560123D01*
X122007172Y-99464884D02*
X122578600Y-99464884D01*
X122292886Y-99464884D02*
X122292886Y-98464884D01*
X122388124Y-98607742D01*
X122483362Y-98702980D01*
X122578600Y-98750599D01*
X121150029Y-98798218D02*
X121150029Y-99464884D01*
X121388124Y-98417265D02*
X121626219Y-99131551D01*
X121007172Y-99131551D01*
G04 #@! TO.C,C15*
X120622753Y-91800446D02*
X120670372Y-91848065D01*
X120813229Y-91895684D01*
X120908467Y-91895684D01*
X121051324Y-91848065D01*
X121146562Y-91752827D01*
X121194181Y-91657589D01*
X121241800Y-91467113D01*
X121241800Y-91324256D01*
X121194181Y-91133780D01*
X121146562Y-91038542D01*
X121051324Y-90943304D01*
X120908467Y-90895684D01*
X120813229Y-90895684D01*
X120670372Y-90943304D01*
X120622753Y-90990923D01*
X119670372Y-91895684D02*
X120241800Y-91895684D01*
X119956086Y-91895684D02*
X119956086Y-90895684D01*
X120051324Y-91038542D01*
X120146562Y-91133780D01*
X120241800Y-91181399D01*
X118765610Y-90895684D02*
X119241800Y-90895684D01*
X119289419Y-91371875D01*
X119241800Y-91324256D01*
X119146562Y-91276637D01*
X118908467Y-91276637D01*
X118813229Y-91324256D01*
X118765610Y-91371875D01*
X118717991Y-91467113D01*
X118717991Y-91705208D01*
X118765610Y-91800446D01*
X118813229Y-91848065D01*
X118908467Y-91895684D01*
X119146562Y-91895684D01*
X119241800Y-91848065D01*
X119289419Y-91800446D01*
G04 #@! TO.C,C16*
X125769553Y-93457761D02*
X125721934Y-93505380D01*
X125674315Y-93648237D01*
X125674315Y-93743475D01*
X125721934Y-93886332D01*
X125817172Y-93981570D01*
X125912410Y-94029189D01*
X126102886Y-94076808D01*
X126245743Y-94076808D01*
X126436219Y-94029189D01*
X126531457Y-93981570D01*
X126626696Y-93886332D01*
X126674315Y-93743475D01*
X126674315Y-93648237D01*
X126626696Y-93505380D01*
X126579076Y-93457761D01*
X125674315Y-92505380D02*
X125674315Y-93076808D01*
X125674315Y-92791094D02*
X126674315Y-92791094D01*
X126531457Y-92886332D01*
X126436219Y-92981570D01*
X126388600Y-93076808D01*
X126674315Y-91648237D02*
X126674315Y-91838713D01*
X126626696Y-91933951D01*
X126579076Y-91981570D01*
X126436219Y-92076808D01*
X126245743Y-92124427D01*
X125864791Y-92124427D01*
X125769553Y-92076808D01*
X125721934Y-92029189D01*
X125674315Y-91933951D01*
X125674315Y-91743475D01*
X125721934Y-91648237D01*
X125769553Y-91600618D01*
X125864791Y-91552999D01*
X126102886Y-91552999D01*
X126198124Y-91600618D01*
X126245743Y-91648237D01*
X126293362Y-91743475D01*
X126293362Y-91933951D01*
X126245743Y-92029189D01*
X126198124Y-92076808D01*
X126102886Y-92124427D01*
G04 #@! TO.C,C19*
X124080353Y-92012246D02*
X124127972Y-92059865D01*
X124270829Y-92107484D01*
X124366067Y-92107484D01*
X124508924Y-92059865D01*
X124604162Y-91964627D01*
X124651781Y-91869389D01*
X124699400Y-91678913D01*
X124699400Y-91536056D01*
X124651781Y-91345580D01*
X124604162Y-91250342D01*
X124508924Y-91155104D01*
X124366067Y-91107484D01*
X124270829Y-91107484D01*
X124127972Y-91155104D01*
X124080353Y-91202723D01*
X123127972Y-92107484D02*
X123699400Y-92107484D01*
X123413686Y-92107484D02*
X123413686Y-91107484D01*
X123508924Y-91250342D01*
X123604162Y-91345580D01*
X123699400Y-91393199D01*
X122651781Y-92107484D02*
X122461305Y-92107484D01*
X122366067Y-92059865D01*
X122318448Y-92012246D01*
X122223210Y-91869389D01*
X122175591Y-91678913D01*
X122175591Y-91297961D01*
X122223210Y-91202723D01*
X122270829Y-91155104D01*
X122366067Y-91107484D01*
X122556543Y-91107484D01*
X122651781Y-91155104D01*
X122699400Y-91202723D01*
X122747019Y-91297961D01*
X122747019Y-91536056D01*
X122699400Y-91631294D01*
X122651781Y-91678913D01*
X122556543Y-91726532D01*
X122366067Y-91726532D01*
X122270829Y-91678913D01*
X122223210Y-91631294D01*
X122175591Y-91536056D01*
G04 #@! TO.C,C20*
X149642038Y-83015246D02*
X149689657Y-82967627D01*
X149737276Y-82824770D01*
X149737276Y-82729532D01*
X149689657Y-82586675D01*
X149594419Y-82491437D01*
X149499181Y-82443818D01*
X149308705Y-82396199D01*
X149165848Y-82396199D01*
X148975372Y-82443818D01*
X148880134Y-82491437D01*
X148784896Y-82586675D01*
X148737276Y-82729532D01*
X148737276Y-82824770D01*
X148784896Y-82967627D01*
X148832515Y-83015246D01*
X148832515Y-83396199D02*
X148784896Y-83443818D01*
X148737276Y-83539056D01*
X148737276Y-83777151D01*
X148784896Y-83872389D01*
X148832515Y-83920008D01*
X148927753Y-83967627D01*
X149022991Y-83967627D01*
X149165848Y-83920008D01*
X149737276Y-83348580D01*
X149737276Y-83967627D01*
X148737276Y-84586675D02*
X148737276Y-84681913D01*
X148784896Y-84777151D01*
X148832515Y-84824770D01*
X148927753Y-84872389D01*
X149118229Y-84920008D01*
X149356324Y-84920008D01*
X149546800Y-84872389D01*
X149642038Y-84824770D01*
X149689657Y-84777151D01*
X149737276Y-84681913D01*
X149737276Y-84586675D01*
X149689657Y-84491437D01*
X149642038Y-84443818D01*
X149546800Y-84396199D01*
X149356324Y-84348580D01*
X149118229Y-84348580D01*
X148927753Y-84396199D01*
X148832515Y-84443818D01*
X148784896Y-84491437D01*
X148737276Y-84586675D01*
G04 #@! TO.C,C21*
X122365853Y-87821246D02*
X122413472Y-87868865D01*
X122556329Y-87916484D01*
X122651567Y-87916484D01*
X122794424Y-87868865D01*
X122889662Y-87773627D01*
X122937281Y-87678389D01*
X122984900Y-87487913D01*
X122984900Y-87345056D01*
X122937281Y-87154580D01*
X122889662Y-87059342D01*
X122794424Y-86964104D01*
X122651567Y-86916484D01*
X122556329Y-86916484D01*
X122413472Y-86964104D01*
X122365853Y-87011723D01*
X121984900Y-87011723D02*
X121937281Y-86964104D01*
X121842043Y-86916484D01*
X121603948Y-86916484D01*
X121508710Y-86964104D01*
X121461091Y-87011723D01*
X121413472Y-87106961D01*
X121413472Y-87202199D01*
X121461091Y-87345056D01*
X122032519Y-87916484D01*
X121413472Y-87916484D01*
X120461091Y-87916484D02*
X121032519Y-87916484D01*
X120746805Y-87916484D02*
X120746805Y-86916484D01*
X120842043Y-87059342D01*
X120937281Y-87154580D01*
X121032519Y-87202199D01*
G04 #@! TO.C,C25*
X155876753Y-91553246D02*
X155924372Y-91600865D01*
X156067229Y-91648484D01*
X156162467Y-91648484D01*
X156305324Y-91600865D01*
X156400562Y-91505627D01*
X156448181Y-91410389D01*
X156495800Y-91219913D01*
X156495800Y-91077056D01*
X156448181Y-90886580D01*
X156400562Y-90791342D01*
X156305324Y-90696104D01*
X156162467Y-90648484D01*
X156067229Y-90648484D01*
X155924372Y-90696104D01*
X155876753Y-90743723D01*
X155495800Y-90743723D02*
X155448181Y-90696104D01*
X155352943Y-90648484D01*
X155114848Y-90648484D01*
X155019610Y-90696104D01*
X154971991Y-90743723D01*
X154924372Y-90838961D01*
X154924372Y-90934199D01*
X154971991Y-91077056D01*
X155543419Y-91648484D01*
X154924372Y-91648484D01*
X154019610Y-90648484D02*
X154495800Y-90648484D01*
X154543419Y-91124675D01*
X154495800Y-91077056D01*
X154400562Y-91029437D01*
X154162467Y-91029437D01*
X154067229Y-91077056D01*
X154019610Y-91124675D01*
X153971991Y-91219913D01*
X153971991Y-91458008D01*
X154019610Y-91553246D01*
X154067229Y-91600865D01*
X154162467Y-91648484D01*
X154400562Y-91648484D01*
X154495800Y-91600865D01*
X154543419Y-91553246D01*
G04 #@! TO.C,C26*
X151737538Y-83078746D02*
X151785157Y-83031127D01*
X151832776Y-82888270D01*
X151832776Y-82793032D01*
X151785157Y-82650175D01*
X151689919Y-82554937D01*
X151594681Y-82507318D01*
X151404205Y-82459699D01*
X151261348Y-82459699D01*
X151070872Y-82507318D01*
X150975634Y-82554937D01*
X150880396Y-82650175D01*
X150832776Y-82793032D01*
X150832776Y-82888270D01*
X150880396Y-83031127D01*
X150928015Y-83078746D01*
X150928015Y-83459699D02*
X150880396Y-83507318D01*
X150832776Y-83602556D01*
X150832776Y-83840651D01*
X150880396Y-83935889D01*
X150928015Y-83983508D01*
X151023253Y-84031127D01*
X151118491Y-84031127D01*
X151261348Y-83983508D01*
X151832776Y-83412080D01*
X151832776Y-84031127D01*
X150832776Y-84888270D02*
X150832776Y-84697794D01*
X150880396Y-84602556D01*
X150928015Y-84554937D01*
X151070872Y-84459699D01*
X151261348Y-84412080D01*
X151642300Y-84412080D01*
X151737538Y-84459699D01*
X151785157Y-84507318D01*
X151832776Y-84602556D01*
X151832776Y-84793032D01*
X151785157Y-84888270D01*
X151737538Y-84935889D01*
X151642300Y-84983508D01*
X151404205Y-84983508D01*
X151308967Y-84935889D01*
X151261348Y-84888270D01*
X151213729Y-84793032D01*
X151213729Y-84602556D01*
X151261348Y-84507318D01*
X151308967Y-84459699D01*
X151404205Y-84412080D01*
G04 #@! TO.C,C27*
X126588638Y-83138246D02*
X126636257Y-83090627D01*
X126683876Y-82947770D01*
X126683876Y-82852532D01*
X126636257Y-82709675D01*
X126541019Y-82614437D01*
X126445781Y-82566818D01*
X126255305Y-82519199D01*
X126112448Y-82519199D01*
X125921972Y-82566818D01*
X125826734Y-82614437D01*
X125731496Y-82709675D01*
X125683876Y-82852532D01*
X125683876Y-82947770D01*
X125731496Y-83090627D01*
X125779115Y-83138246D01*
X125779115Y-83519199D02*
X125731496Y-83566818D01*
X125683876Y-83662056D01*
X125683876Y-83900151D01*
X125731496Y-83995389D01*
X125779115Y-84043008D01*
X125874353Y-84090627D01*
X125969591Y-84090627D01*
X126112448Y-84043008D01*
X126683876Y-83471580D01*
X126683876Y-84090627D01*
X125683876Y-84423961D02*
X125683876Y-85090627D01*
X126683876Y-84662056D01*
G04 #@! TO.C,C28*
X136399053Y-91053746D02*
X136446672Y-91101365D01*
X136589529Y-91148984D01*
X136684767Y-91148984D01*
X136827624Y-91101365D01*
X136922862Y-91006127D01*
X136970481Y-90910889D01*
X137018100Y-90720413D01*
X137018100Y-90577556D01*
X136970481Y-90387080D01*
X136922862Y-90291842D01*
X136827624Y-90196604D01*
X136684767Y-90148984D01*
X136589529Y-90148984D01*
X136446672Y-90196604D01*
X136399053Y-90244223D01*
X136018100Y-90244223D02*
X135970481Y-90196604D01*
X135875243Y-90148984D01*
X135637148Y-90148984D01*
X135541910Y-90196604D01*
X135494291Y-90244223D01*
X135446672Y-90339461D01*
X135446672Y-90434699D01*
X135494291Y-90577556D01*
X136065719Y-91148984D01*
X135446672Y-91148984D01*
X134875243Y-90577556D02*
X134970481Y-90529937D01*
X135018100Y-90482318D01*
X135065719Y-90387080D01*
X135065719Y-90339461D01*
X135018100Y-90244223D01*
X134970481Y-90196604D01*
X134875243Y-90148984D01*
X134684767Y-90148984D01*
X134589529Y-90196604D01*
X134541910Y-90244223D01*
X134494291Y-90339461D01*
X134494291Y-90387080D01*
X134541910Y-90482318D01*
X134589529Y-90529937D01*
X134684767Y-90577556D01*
X134875243Y-90577556D01*
X134970481Y-90625175D01*
X135018100Y-90672794D01*
X135065719Y-90768032D01*
X135065719Y-90958508D01*
X135018100Y-91053746D01*
X134970481Y-91101365D01*
X134875243Y-91148984D01*
X134684767Y-91148984D01*
X134589529Y-91101365D01*
X134541910Y-91053746D01*
X134494291Y-90958508D01*
X134494291Y-90768032D01*
X134541910Y-90672794D01*
X134589529Y-90625175D01*
X134684767Y-90577556D01*
G04 #@! TO.C,C29*
X166201438Y-91270246D02*
X166249057Y-91222627D01*
X166296676Y-91079770D01*
X166296676Y-90984532D01*
X166249057Y-90841675D01*
X166153819Y-90746437D01*
X166058581Y-90698818D01*
X165868105Y-90651199D01*
X165725248Y-90651199D01*
X165534772Y-90698818D01*
X165439534Y-90746437D01*
X165344296Y-90841675D01*
X165296676Y-90984532D01*
X165296676Y-91079770D01*
X165344296Y-91222627D01*
X165391915Y-91270246D01*
X165391915Y-91651199D02*
X165344296Y-91698818D01*
X165296676Y-91794056D01*
X165296676Y-92032151D01*
X165344296Y-92127389D01*
X165391915Y-92175008D01*
X165487153Y-92222627D01*
X165582391Y-92222627D01*
X165725248Y-92175008D01*
X166296676Y-91603580D01*
X166296676Y-92222627D01*
X166296676Y-92698818D02*
X166296676Y-92889294D01*
X166249057Y-92984532D01*
X166201438Y-93032151D01*
X166058581Y-93127389D01*
X165868105Y-93175008D01*
X165487153Y-93175008D01*
X165391915Y-93127389D01*
X165344296Y-93079770D01*
X165296676Y-92984532D01*
X165296676Y-92794056D01*
X165344296Y-92698818D01*
X165391915Y-92651199D01*
X165487153Y-92603580D01*
X165725248Y-92603580D01*
X165820486Y-92651199D01*
X165868105Y-92698818D01*
X165915724Y-92794056D01*
X165915724Y-92984532D01*
X165868105Y-93079770D01*
X165820486Y-93127389D01*
X165725248Y-93175008D01*
G04 #@! TO.C,C30*
X168596753Y-87341246D02*
X168644372Y-87388865D01*
X168787229Y-87436484D01*
X168882467Y-87436484D01*
X169025324Y-87388865D01*
X169120562Y-87293627D01*
X169168181Y-87198389D01*
X169215800Y-87007913D01*
X169215800Y-86865056D01*
X169168181Y-86674580D01*
X169120562Y-86579342D01*
X169025324Y-86484104D01*
X168882467Y-86436484D01*
X168787229Y-86436484D01*
X168644372Y-86484104D01*
X168596753Y-86531723D01*
X168263419Y-86436484D02*
X167644372Y-86436484D01*
X167977705Y-86817437D01*
X167834848Y-86817437D01*
X167739610Y-86865056D01*
X167691991Y-86912675D01*
X167644372Y-87007913D01*
X167644372Y-87246008D01*
X167691991Y-87341246D01*
X167739610Y-87388865D01*
X167834848Y-87436484D01*
X168120562Y-87436484D01*
X168215800Y-87388865D01*
X168263419Y-87341246D01*
X167025324Y-86436484D02*
X166930086Y-86436484D01*
X166834848Y-86484104D01*
X166787229Y-86531723D01*
X166739610Y-86626961D01*
X166691991Y-86817437D01*
X166691991Y-87055532D01*
X166739610Y-87246008D01*
X166787229Y-87341246D01*
X166834848Y-87388865D01*
X166930086Y-87436484D01*
X167025324Y-87436484D01*
X167120562Y-87388865D01*
X167168181Y-87341246D01*
X167215800Y-87246008D01*
X167263419Y-87055532D01*
X167263419Y-86817437D01*
X167215800Y-86626961D01*
X167168181Y-86531723D01*
X167120562Y-86484104D01*
X167025324Y-86436484D01*
G04 #@! TO.C,C31*
X138089357Y-93274642D02*
X138136976Y-93322261D01*
X138279833Y-93369880D01*
X138375071Y-93369880D01*
X138517928Y-93322261D01*
X138613166Y-93227023D01*
X138660785Y-93131785D01*
X138708404Y-92941309D01*
X138708404Y-92798452D01*
X138660785Y-92607976D01*
X138613166Y-92512738D01*
X138517928Y-92417500D01*
X138375071Y-92369880D01*
X138279833Y-92369880D01*
X138136976Y-92417500D01*
X138089357Y-92465119D01*
X137756023Y-92369880D02*
X137136976Y-92369880D01*
X137470309Y-92750833D01*
X137327452Y-92750833D01*
X137232214Y-92798452D01*
X137184595Y-92846071D01*
X137136976Y-92941309D01*
X137136976Y-93179404D01*
X137184595Y-93274642D01*
X137232214Y-93322261D01*
X137327452Y-93369880D01*
X137613166Y-93369880D01*
X137708404Y-93322261D01*
X137756023Y-93274642D01*
X136184595Y-93369880D02*
X136756023Y-93369880D01*
X136470309Y-93369880D02*
X136470309Y-92369880D01*
X136565547Y-92512738D01*
X136660785Y-92607976D01*
X136756023Y-92655595D01*
G04 #@! TO.C,C32*
X136681453Y-86213746D02*
X136729072Y-86261365D01*
X136871929Y-86308984D01*
X136967167Y-86308984D01*
X137110024Y-86261365D01*
X137205262Y-86166127D01*
X137252881Y-86070889D01*
X137300500Y-85880413D01*
X137300500Y-85737556D01*
X137252881Y-85547080D01*
X137205262Y-85451842D01*
X137110024Y-85356604D01*
X136967167Y-85308984D01*
X136871929Y-85308984D01*
X136729072Y-85356604D01*
X136681453Y-85404223D01*
X136348119Y-85308984D02*
X135729072Y-85308984D01*
X136062405Y-85689937D01*
X135919548Y-85689937D01*
X135824310Y-85737556D01*
X135776691Y-85785175D01*
X135729072Y-85880413D01*
X135729072Y-86118508D01*
X135776691Y-86213746D01*
X135824310Y-86261365D01*
X135919548Y-86308984D01*
X136205262Y-86308984D01*
X136300500Y-86261365D01*
X136348119Y-86213746D01*
X135348119Y-85404223D02*
X135300500Y-85356604D01*
X135205262Y-85308984D01*
X134967167Y-85308984D01*
X134871929Y-85356604D01*
X134824310Y-85404223D01*
X134776691Y-85499461D01*
X134776691Y-85594699D01*
X134824310Y-85737556D01*
X135395738Y-86308984D01*
X134776691Y-86308984D01*
G04 #@! TO.C,IC1*
D10*
X178116919Y-57716842D02*
X176846919Y-57716842D01*
X177995967Y-59047318D02*
X178056443Y-58986842D01*
X178116919Y-58805413D01*
X178116919Y-58684461D01*
X178056443Y-58503032D01*
X177935491Y-58382080D01*
X177814538Y-58321604D01*
X177572634Y-58261127D01*
X177391205Y-58261127D01*
X177149300Y-58321604D01*
X177028348Y-58382080D01*
X176907396Y-58503032D01*
X176846919Y-58684461D01*
X176846919Y-58805413D01*
X176907396Y-58986842D01*
X176967872Y-59047318D01*
X178116919Y-60256842D02*
X178116919Y-59531127D01*
X178116919Y-59893984D02*
X176846919Y-59893984D01*
X177028348Y-59773032D01*
X177149300Y-59652080D01*
X177209776Y-59531127D01*
G04 #@! TO.C,IC2*
X144842919Y-56951351D02*
X143572919Y-56951351D01*
X144721967Y-58281827D02*
X144782443Y-58221351D01*
X144842919Y-58039922D01*
X144842919Y-57918970D01*
X144782443Y-57737541D01*
X144661491Y-57616589D01*
X144540538Y-57556113D01*
X144298634Y-57495636D01*
X144117205Y-57495636D01*
X143875300Y-57556113D01*
X143754348Y-57616589D01*
X143633396Y-57737541D01*
X143572919Y-57918970D01*
X143572919Y-58039922D01*
X143633396Y-58221351D01*
X143693872Y-58281827D01*
X143693872Y-58765636D02*
X143633396Y-58826113D01*
X143572919Y-58947065D01*
X143572919Y-59249446D01*
X143633396Y-59370398D01*
X143693872Y-59430874D01*
X143814824Y-59491351D01*
X143935776Y-59491351D01*
X144117205Y-59430874D01*
X144842919Y-58705160D01*
X144842919Y-59491351D01*
G04 #@! TO.C,IC7*
X176623157Y-94519627D02*
X176623157Y-93249627D01*
X175292681Y-94398675D02*
X175353157Y-94459151D01*
X175534586Y-94519627D01*
X175655538Y-94519627D01*
X175836967Y-94459151D01*
X175957919Y-94338199D01*
X176018396Y-94217246D01*
X176078872Y-93975342D01*
X176078872Y-93793913D01*
X176018396Y-93552008D01*
X175957919Y-93431056D01*
X175836967Y-93310104D01*
X175655538Y-93249627D01*
X175534586Y-93249627D01*
X175353157Y-93310104D01*
X175292681Y-93370580D01*
X174869348Y-93249627D02*
X174022681Y-93249627D01*
X174566967Y-94519627D01*
G04 #@! TO.C,Q1*
D13*
X142966634Y-67822723D02*
X143061872Y-67775104D01*
X143157110Y-67679865D01*
X143299967Y-67537008D01*
X143395205Y-67489389D01*
X143490443Y-67489389D01*
X143442824Y-67727484D02*
X143538062Y-67679865D01*
X143633300Y-67584627D01*
X143680919Y-67394151D01*
X143680919Y-67060818D01*
X143633300Y-66870342D01*
X143538062Y-66775104D01*
X143442824Y-66727484D01*
X143252348Y-66727484D01*
X143157110Y-66775104D01*
X143061872Y-66870342D01*
X143014253Y-67060818D01*
X143014253Y-67394151D01*
X143061872Y-67584627D01*
X143157110Y-67679865D01*
X143252348Y-67727484D01*
X143442824Y-67727484D01*
X142061872Y-67727484D02*
X142633300Y-67727484D01*
X142347586Y-67727484D02*
X142347586Y-66727484D01*
X142442824Y-66870342D01*
X142538062Y-66965580D01*
X142633300Y-67013199D01*
G04 #@! TO.C,Q2*
X156365134Y-67695723D02*
X156460372Y-67648104D01*
X156555610Y-67552865D01*
X156698467Y-67410008D01*
X156793705Y-67362389D01*
X156888943Y-67362389D01*
X156841324Y-67600484D02*
X156936562Y-67552865D01*
X157031800Y-67457627D01*
X157079419Y-67267151D01*
X157079419Y-66933818D01*
X157031800Y-66743342D01*
X156936562Y-66648104D01*
X156841324Y-66600484D01*
X156650848Y-66600484D01*
X156555610Y-66648104D01*
X156460372Y-66743342D01*
X156412753Y-66933818D01*
X156412753Y-67267151D01*
X156460372Y-67457627D01*
X156555610Y-67552865D01*
X156650848Y-67600484D01*
X156841324Y-67600484D01*
X156031800Y-66695723D02*
X155984181Y-66648104D01*
X155888943Y-66600484D01*
X155650848Y-66600484D01*
X155555610Y-66648104D01*
X155507991Y-66695723D01*
X155460372Y-66790961D01*
X155460372Y-66886199D01*
X155507991Y-67029056D01*
X156079419Y-67600484D01*
X155460372Y-67600484D01*
G04 #@! TO.C,R1*
X140255562Y-68592484D02*
X140588896Y-68116294D01*
X140826991Y-68592484D02*
X140826991Y-67592484D01*
X140446038Y-67592484D01*
X140350800Y-67640104D01*
X140303181Y-67687723D01*
X140255562Y-67782961D01*
X140255562Y-67925818D01*
X140303181Y-68021056D01*
X140350800Y-68068675D01*
X140446038Y-68116294D01*
X140826991Y-68116294D01*
X139303181Y-68592484D02*
X139874610Y-68592484D01*
X139588896Y-68592484D02*
X139588896Y-67592484D01*
X139684134Y-67735342D01*
X139779372Y-67830580D01*
X139874610Y-67878199D01*
G04 #@! TO.C,R2*
X137105562Y-68592484D02*
X137438896Y-68116294D01*
X137676991Y-68592484D02*
X137676991Y-67592484D01*
X137296038Y-67592484D01*
X137200800Y-67640104D01*
X137153181Y-67687723D01*
X137105562Y-67782961D01*
X137105562Y-67925818D01*
X137153181Y-68021056D01*
X137200800Y-68068675D01*
X137296038Y-68116294D01*
X137676991Y-68116294D01*
X136724610Y-67687723D02*
X136676991Y-67640104D01*
X136581753Y-67592484D01*
X136343657Y-67592484D01*
X136248419Y-67640104D01*
X136200800Y-67687723D01*
X136153181Y-67782961D01*
X136153181Y-67878199D01*
X136200800Y-68021056D01*
X136772229Y-68592484D01*
X136153181Y-68592484D01*
G04 #@! TO.C,R3*
X169051776Y-59910077D02*
X168575586Y-59576744D01*
X169051776Y-59338648D02*
X168051776Y-59338648D01*
X168051776Y-59719601D01*
X168099396Y-59814839D01*
X168147015Y-59862458D01*
X168242253Y-59910077D01*
X168385110Y-59910077D01*
X168480348Y-59862458D01*
X168527967Y-59814839D01*
X168575586Y-59719601D01*
X168575586Y-59338648D01*
X168051776Y-60243410D02*
X168051776Y-60862458D01*
X168432729Y-60529124D01*
X168432729Y-60671982D01*
X168480348Y-60767220D01*
X168527967Y-60814839D01*
X168623205Y-60862458D01*
X168861300Y-60862458D01*
X168956538Y-60814839D01*
X169004157Y-60767220D01*
X169051776Y-60671982D01*
X169051776Y-60386267D01*
X169004157Y-60291029D01*
X168956538Y-60243410D01*
G04 #@! TO.C,R4*
X169069556Y-57527557D02*
X168593366Y-57194224D01*
X169069556Y-56956128D02*
X168069556Y-56956128D01*
X168069556Y-57337081D01*
X168117176Y-57432319D01*
X168164795Y-57479938D01*
X168260033Y-57527557D01*
X168402890Y-57527557D01*
X168498128Y-57479938D01*
X168545747Y-57432319D01*
X168593366Y-57337081D01*
X168593366Y-56956128D01*
X168402890Y-58384700D02*
X169069556Y-58384700D01*
X168021937Y-58146604D02*
X168736223Y-57908509D01*
X168736223Y-58527557D01*
G04 #@! TO.C,R5*
X153165562Y-68522484D02*
X153498896Y-68046294D01*
X153736991Y-68522484D02*
X153736991Y-67522484D01*
X153356038Y-67522484D01*
X153260800Y-67570104D01*
X153213181Y-67617723D01*
X153165562Y-67712961D01*
X153165562Y-67855818D01*
X153213181Y-67951056D01*
X153260800Y-67998675D01*
X153356038Y-68046294D01*
X153736991Y-68046294D01*
X152260800Y-67522484D02*
X152736991Y-67522484D01*
X152784610Y-67998675D01*
X152736991Y-67951056D01*
X152641753Y-67903437D01*
X152403657Y-67903437D01*
X152308419Y-67951056D01*
X152260800Y-67998675D01*
X152213181Y-68093913D01*
X152213181Y-68332008D01*
X152260800Y-68427246D01*
X152308419Y-68474865D01*
X152403657Y-68522484D01*
X152641753Y-68522484D01*
X152736991Y-68474865D01*
X152784610Y-68427246D01*
G04 #@! TO.C,R6*
X149705562Y-68542484D02*
X150038896Y-68066294D01*
X150276991Y-68542484D02*
X150276991Y-67542484D01*
X149896038Y-67542484D01*
X149800800Y-67590104D01*
X149753181Y-67637723D01*
X149705562Y-67732961D01*
X149705562Y-67875818D01*
X149753181Y-67971056D01*
X149800800Y-68018675D01*
X149896038Y-68066294D01*
X150276991Y-68066294D01*
X148848419Y-67542484D02*
X149038896Y-67542484D01*
X149134134Y-67590104D01*
X149181753Y-67637723D01*
X149276991Y-67780580D01*
X149324610Y-67971056D01*
X149324610Y-68352008D01*
X149276991Y-68447246D01*
X149229372Y-68494865D01*
X149134134Y-68542484D01*
X148943657Y-68542484D01*
X148848419Y-68494865D01*
X148800800Y-68447246D01*
X148753181Y-68352008D01*
X148753181Y-68113913D01*
X148800800Y-68018675D01*
X148848419Y-67971056D01*
X148943657Y-67923437D01*
X149134134Y-67923437D01*
X149229372Y-67971056D01*
X149276991Y-68018675D01*
X149324610Y-68113913D01*
G04 #@! TO.C,R13*
X117463356Y-96497666D02*
X116987166Y-96164333D01*
X117463356Y-95926238D02*
X116463356Y-95926238D01*
X116463356Y-96307190D01*
X116510976Y-96402428D01*
X116558595Y-96450047D01*
X116653833Y-96497666D01*
X116796690Y-96497666D01*
X116891928Y-96450047D01*
X116939547Y-96402428D01*
X116987166Y-96307190D01*
X116987166Y-95926238D01*
X117463356Y-97450047D02*
X117463356Y-96878619D01*
X117463356Y-97164333D02*
X116463356Y-97164333D01*
X116606214Y-97069095D01*
X116701452Y-96973857D01*
X116749071Y-96878619D01*
X116463356Y-97783381D02*
X116463356Y-98402428D01*
X116844309Y-98069095D01*
X116844309Y-98211952D01*
X116891928Y-98307190D01*
X116939547Y-98354809D01*
X117034785Y-98402428D01*
X117272880Y-98402428D01*
X117368118Y-98354809D01*
X117415737Y-98307190D01*
X117463356Y-98211952D01*
X117463356Y-97926238D01*
X117415737Y-97831000D01*
X117368118Y-97783381D01*
G04 #@! TO.C,R14*
X117485876Y-93340446D02*
X117009686Y-93007113D01*
X117485876Y-92769018D02*
X116485876Y-92769018D01*
X116485876Y-93149970D01*
X116533496Y-93245208D01*
X116581115Y-93292827D01*
X116676353Y-93340446D01*
X116819210Y-93340446D01*
X116914448Y-93292827D01*
X116962067Y-93245208D01*
X117009686Y-93149970D01*
X117009686Y-92769018D01*
X117485876Y-94292827D02*
X117485876Y-93721399D01*
X117485876Y-94007113D02*
X116485876Y-94007113D01*
X116628734Y-93911875D01*
X116723972Y-93816637D01*
X116771591Y-93721399D01*
X116819210Y-95149970D02*
X117485876Y-95149970D01*
X116438257Y-94911875D02*
X117152543Y-94673780D01*
X117152543Y-95292827D01*
G04 #@! TD*
M02*
