G04 #@! TF.GenerationSoftware,KiCad,Pcbnew,(5.0.0)*
G04 #@! TF.CreationDate,2018-09-16T18:52:52-03:00*
G04 #@! TF.ProjectId,Cape_Beaglebone,436170655F426561676C65626F6E652E,rev?*
G04 #@! TF.SameCoordinates,Original*
G04 #@! TF.FileFunction,Legend,Top*
G04 #@! TF.FilePolarity,Positive*
%FSLAX46Y46*%
G04 Gerber Fmt 4.6, Leading zero omitted, Abs format (unit mm)*
G04 Created by KiCad (PCBNEW (5.0.0)) date 09/16/18 18:52:52*
%MOMM*%
%LPD*%
G01*
G04 APERTURE LIST*
%ADD10C,0.300000*%
%ADD11C,0.120000*%
%ADD12C,0.150000*%
%ADD13C,0.200000*%
%ADD14C,0.254000*%
%ADD15C,0.010000*%
G04 APERTURE END LIST*
D10*
X148071428Y-69260714D02*
X148000000Y-69332142D01*
X147785714Y-69403571D01*
X147642857Y-69403571D01*
X147428571Y-69332142D01*
X147285714Y-69189285D01*
X147214285Y-69046428D01*
X147142857Y-68760714D01*
X147142857Y-68546428D01*
X147214285Y-68260714D01*
X147285714Y-68117857D01*
X147428571Y-67975000D01*
X147642857Y-67903571D01*
X147785714Y-67903571D01*
X148000000Y-67975000D01*
X148071428Y-68046428D01*
X149357142Y-69403571D02*
X149357142Y-68617857D01*
X149285714Y-68475000D01*
X149142857Y-68403571D01*
X148857142Y-68403571D01*
X148714285Y-68475000D01*
X149357142Y-69332142D02*
X149214285Y-69403571D01*
X148857142Y-69403571D01*
X148714285Y-69332142D01*
X148642857Y-69189285D01*
X148642857Y-69046428D01*
X148714285Y-68903571D01*
X148857142Y-68832142D01*
X149214285Y-68832142D01*
X149357142Y-68760714D01*
X150071428Y-68403571D02*
X150071428Y-69903571D01*
X150071428Y-68475000D02*
X150214285Y-68403571D01*
X150500000Y-68403571D01*
X150642857Y-68475000D01*
X150714285Y-68546428D01*
X150785714Y-68689285D01*
X150785714Y-69117857D01*
X150714285Y-69260714D01*
X150642857Y-69332142D01*
X150500000Y-69403571D01*
X150214285Y-69403571D01*
X150071428Y-69332142D01*
X152000000Y-69332142D02*
X151857142Y-69403571D01*
X151571428Y-69403571D01*
X151428571Y-69332142D01*
X151357142Y-69189285D01*
X151357142Y-68617857D01*
X151428571Y-68475000D01*
X151571428Y-68403571D01*
X151857142Y-68403571D01*
X152000000Y-68475000D01*
X152071428Y-68617857D01*
X152071428Y-68760714D01*
X151357142Y-68903571D01*
X154357142Y-68617857D02*
X153857142Y-68617857D01*
X153857142Y-69403571D02*
X153857142Y-67903571D01*
X154571428Y-67903571D01*
X155142857Y-69403571D02*
X155142857Y-67903571D01*
X155500000Y-67903571D01*
X155714285Y-67975000D01*
X155857142Y-68117857D01*
X155928571Y-68260714D01*
X156000000Y-68546428D01*
X156000000Y-68760714D01*
X155928571Y-69046428D01*
X155857142Y-69189285D01*
X155714285Y-69332142D01*
X155500000Y-69403571D01*
X155142857Y-69403571D01*
X156571428Y-68975000D02*
X157285714Y-68975000D01*
X156428571Y-69403571D02*
X156928571Y-67903571D01*
X157428571Y-69403571D01*
X157928571Y-67903571D02*
X157928571Y-69117857D01*
X158000000Y-69260714D01*
X158071428Y-69332142D01*
X158214285Y-69403571D01*
X158500000Y-69403571D01*
X158642857Y-69332142D01*
X158714285Y-69260714D01*
X158785714Y-69117857D01*
X158785714Y-67903571D01*
X147285714Y-70453571D02*
X147785714Y-71953571D01*
X148285714Y-70453571D01*
X149571428Y-71953571D02*
X148714285Y-71953571D01*
X149142857Y-71953571D02*
X149142857Y-70453571D01*
X149000000Y-70667857D01*
X148857142Y-70810714D01*
X148714285Y-70882142D01*
X150214285Y-71810714D02*
X150285714Y-71882142D01*
X150214285Y-71953571D01*
X150142857Y-71882142D01*
X150214285Y-71810714D01*
X150214285Y-71953571D01*
X151214285Y-70453571D02*
X151357142Y-70453571D01*
X151500000Y-70525000D01*
X151571428Y-70596428D01*
X151642857Y-70739285D01*
X151714285Y-71025000D01*
X151714285Y-71382142D01*
X151642857Y-71667857D01*
X151571428Y-71810714D01*
X151500000Y-71882142D01*
X151357142Y-71953571D01*
X151214285Y-71953571D01*
X151071428Y-71882142D01*
X151000000Y-71810714D01*
X150928571Y-71667857D01*
X150857142Y-71382142D01*
X150857142Y-71025000D01*
X150928571Y-70739285D01*
X151000000Y-70596428D01*
X151071428Y-70525000D01*
X151214285Y-70453571D01*
X153428571Y-70596428D02*
X153500000Y-70525000D01*
X153642857Y-70453571D01*
X154000000Y-70453571D01*
X154142857Y-70525000D01*
X154214285Y-70596428D01*
X154285714Y-70739285D01*
X154285714Y-70882142D01*
X154214285Y-71096428D01*
X153357142Y-71953571D01*
X154285714Y-71953571D01*
X155214285Y-70453571D02*
X155357142Y-70453571D01*
X155500000Y-70525000D01*
X155571428Y-70596428D01*
X155642857Y-70739285D01*
X155714285Y-71025000D01*
X155714285Y-71382142D01*
X155642857Y-71667857D01*
X155571428Y-71810714D01*
X155500000Y-71882142D01*
X155357142Y-71953571D01*
X155214285Y-71953571D01*
X155071428Y-71882142D01*
X155000000Y-71810714D01*
X154928571Y-71667857D01*
X154857142Y-71382142D01*
X154857142Y-71025000D01*
X154928571Y-70739285D01*
X155000000Y-70596428D01*
X155071428Y-70525000D01*
X155214285Y-70453571D01*
X157142857Y-71953571D02*
X156285714Y-71953571D01*
X156714285Y-71953571D02*
X156714285Y-70453571D01*
X156571428Y-70667857D01*
X156428571Y-70810714D01*
X156285714Y-70882142D01*
X158000000Y-71096428D02*
X157857142Y-71025000D01*
X157785714Y-70953571D01*
X157714285Y-70810714D01*
X157714285Y-70739285D01*
X157785714Y-70596428D01*
X157857142Y-70525000D01*
X158000000Y-70453571D01*
X158285714Y-70453571D01*
X158428571Y-70525000D01*
X158500000Y-70596428D01*
X158571428Y-70739285D01*
X158571428Y-70810714D01*
X158500000Y-70953571D01*
X158428571Y-71025000D01*
X158285714Y-71096428D01*
X158000000Y-71096428D01*
X157857142Y-71167857D01*
X157785714Y-71239285D01*
X157714285Y-71382142D01*
X157714285Y-71667857D01*
X157785714Y-71810714D01*
X157857142Y-71882142D01*
X158000000Y-71953571D01*
X158285714Y-71953571D01*
X158428571Y-71882142D01*
X158500000Y-71810714D01*
X158571428Y-71667857D01*
X158571428Y-71382142D01*
X158500000Y-71239285D01*
X158428571Y-71167857D01*
X158285714Y-71096428D01*
D11*
G04 #@! TO.C,C34*
X138000000Y-68250000D02*
X139000000Y-68250000D01*
X139000000Y-66550000D02*
X138000000Y-66550000D01*
G04 #@! TO.C,L2*
X133500000Y-67860000D02*
X133500000Y-68930000D01*
X133500000Y-73720000D02*
X133500000Y-72650000D01*
X132640000Y-68930000D02*
X132640000Y-72650000D01*
X134360000Y-68930000D02*
X132640000Y-68930000D01*
X134360000Y-72650000D02*
X134360000Y-68930000D01*
X132640000Y-72650000D02*
X134360000Y-72650000D01*
D12*
G04 #@! TO.C,P8*
X185886296Y-96066004D02*
X127466296Y-96066004D01*
X185886296Y-101146004D02*
X130006296Y-101146004D01*
X185886296Y-96066004D02*
X185886296Y-101146004D01*
X127466296Y-96066004D02*
X127466296Y-98606004D01*
X127186296Y-99876004D02*
X127186296Y-101426004D01*
X127466296Y-98606004D02*
X130006296Y-98606004D01*
X130006296Y-98606004D02*
X130006296Y-101146004D01*
X127186296Y-101426004D02*
X128736296Y-101426004D01*
D11*
G04 #@! TO.C,L1*
X138611096Y-72511104D02*
X138611096Y-74231104D01*
X138611096Y-74231104D02*
X142331096Y-74231104D01*
X142331096Y-74231104D02*
X142331096Y-72511104D01*
X142331096Y-72511104D02*
X138611096Y-72511104D01*
X137541096Y-73371104D02*
X138611096Y-73371104D01*
X143401096Y-73371104D02*
X142331096Y-73371104D01*
G04 #@! TO.C,R17*
X166067396Y-58440604D02*
X166067396Y-57440604D01*
X167427396Y-57440604D02*
X167427396Y-58440604D01*
G04 #@! TO.C,R18*
X166157396Y-57440604D02*
X166157396Y-58440604D01*
X164797396Y-58440604D02*
X164797396Y-57440604D01*
D13*
G04 #@! TO.C,IC9*
X137719617Y-81465121D02*
X137719617Y-81465121D01*
X137719617Y-81465121D02*
X137719617Y-81465121D01*
X137719617Y-81465121D02*
X138219617Y-81465121D01*
X140719617Y-81465121D02*
X140719617Y-81465121D01*
X140719617Y-81465121D02*
X140219617Y-81465121D01*
X137719617Y-84465121D02*
X137719617Y-84465121D01*
X137719617Y-84465121D02*
X138219617Y-84465121D01*
X140719617Y-84465121D02*
X140719617Y-84465121D01*
X140719617Y-84465121D02*
X140219617Y-84465121D01*
D14*
X137244617Y-81965121D02*
G75*
G03X137244617Y-81965121I-125000J0D01*
G01*
D13*
G04 #@! TO.C,IC5*
X166406396Y-62076604D02*
X166406396Y-63726604D01*
X161211396Y-64076604D02*
X166441396Y-64076604D01*
X161211396Y-69076604D02*
X161211396Y-64076604D01*
X166441396Y-69076604D02*
X161211396Y-69076604D01*
X166441396Y-64076604D02*
X166441396Y-69076604D01*
G04 #@! TO.C,IC11*
X132074696Y-88351404D02*
X132074696Y-92201404D01*
X132074696Y-92201404D02*
X128024696Y-92201404D01*
X128024696Y-92201404D02*
X128024696Y-88351404D01*
X128024696Y-88351404D02*
X132074696Y-88351404D01*
G04 #@! TO.C,U1*
X177865896Y-67651604D02*
X177865896Y-55251604D01*
X187765896Y-57751604D02*
X187765896Y-55251604D01*
X195265896Y-57751604D02*
X187765896Y-57751604D01*
X195265896Y-61251604D02*
X195265896Y-57751604D01*
X187765896Y-61251604D02*
X195265896Y-61251604D01*
X187765896Y-61651604D02*
X187765896Y-61251604D01*
X195265896Y-61651604D02*
X187765896Y-61651604D01*
X195265896Y-65151604D02*
X195265896Y-61651604D01*
X187765896Y-65151604D02*
X195265896Y-65151604D01*
X187765896Y-67651604D02*
X187765896Y-65151604D01*
D11*
G04 #@! TO.C,SW1*
X168077396Y-54600604D02*
X168077396Y-60640604D01*
X164147396Y-55240604D02*
X164147396Y-60640604D01*
G04 #@! TO.C,C33*
X147767396Y-79073104D02*
X147767396Y-78073104D01*
X146067396Y-78073104D02*
X146067396Y-79073104D01*
G04 #@! TO.C,J11*
X186110896Y-89126604D02*
G75*
G03X186110896Y-89126604I-250000J0D01*
G01*
X182310896Y-88526604D02*
X182310896Y-82726604D01*
X184210896Y-89626604D02*
X185210896Y-89626604D01*
X185210896Y-89626604D02*
X185210896Y-88726604D01*
X185210896Y-89126604D02*
X184210896Y-89126604D01*
X184210896Y-89126604D02*
X184210896Y-89126604D01*
X184210896Y-89126604D02*
X185210896Y-89126604D01*
X185210896Y-89126604D02*
X185210896Y-89126604D01*
X184610896Y-89126604D02*
X184610896Y-89126604D01*
X184610896Y-89126604D02*
X184610896Y-89626604D01*
X184610896Y-89626604D02*
X184610896Y-89626604D01*
X184610896Y-89626604D02*
X184610896Y-89126604D01*
X184210896Y-81626604D02*
X185210896Y-81626604D01*
X185210896Y-81626604D02*
X185210896Y-82526604D01*
X185210896Y-82126604D02*
X184210896Y-82126604D01*
X184210896Y-82126604D02*
X184210896Y-82126604D01*
X184210896Y-82126604D02*
X185210896Y-82126604D01*
X185210896Y-82126604D02*
X185210896Y-82126604D01*
X184610896Y-82126604D02*
X184610896Y-82126604D01*
X184610896Y-82126604D02*
X184610896Y-81626604D01*
X184610896Y-81626604D02*
X184610896Y-81626604D01*
X184610896Y-81626604D02*
X184610896Y-82126604D01*
X183210896Y-88526604D02*
X182710896Y-88526604D01*
X182710896Y-88526604D02*
X182710896Y-82726604D01*
X182710896Y-82726604D02*
X183210896Y-82726604D01*
X183810896Y-88526604D02*
X184460896Y-88526604D01*
X184460896Y-88526604D02*
X184460896Y-82726604D01*
X184460896Y-82726604D02*
X183810896Y-82726604D01*
X183210896Y-88126604D02*
X183410896Y-88126604D01*
X183210896Y-87126604D02*
X183410896Y-87126604D01*
X183210896Y-86126604D02*
X183410896Y-86126604D01*
X183210896Y-85126604D02*
X183410896Y-85126604D01*
X183210896Y-84126604D02*
X183410896Y-84126604D01*
X183210896Y-83126604D02*
X183410896Y-83126604D01*
G04 #@! TO.C,J4*
X186110896Y-78966604D02*
G75*
G03X186110896Y-78966604I-250000J0D01*
G01*
X182310896Y-78366604D02*
X182310896Y-72566604D01*
X184210896Y-79466604D02*
X185210896Y-79466604D01*
X185210896Y-79466604D02*
X185210896Y-78566604D01*
X185210896Y-78966604D02*
X184210896Y-78966604D01*
X184210896Y-78966604D02*
X184210896Y-78966604D01*
X184210896Y-78966604D02*
X185210896Y-78966604D01*
X185210896Y-78966604D02*
X185210896Y-78966604D01*
X184610896Y-78966604D02*
X184610896Y-78966604D01*
X184610896Y-78966604D02*
X184610896Y-79466604D01*
X184610896Y-79466604D02*
X184610896Y-79466604D01*
X184610896Y-79466604D02*
X184610896Y-78966604D01*
X184210896Y-71466604D02*
X185210896Y-71466604D01*
X185210896Y-71466604D02*
X185210896Y-72366604D01*
X185210896Y-71966604D02*
X184210896Y-71966604D01*
X184210896Y-71966604D02*
X184210896Y-71966604D01*
X184210896Y-71966604D02*
X185210896Y-71966604D01*
X185210896Y-71966604D02*
X185210896Y-71966604D01*
X184610896Y-71966604D02*
X184610896Y-71966604D01*
X184610896Y-71966604D02*
X184610896Y-71466604D01*
X184610896Y-71466604D02*
X184610896Y-71466604D01*
X184610896Y-71466604D02*
X184610896Y-71966604D01*
X183210896Y-78366604D02*
X182710896Y-78366604D01*
X182710896Y-78366604D02*
X182710896Y-72566604D01*
X182710896Y-72566604D02*
X183210896Y-72566604D01*
X183810896Y-78366604D02*
X184460896Y-78366604D01*
X184460896Y-78366604D02*
X184460896Y-72566604D01*
X184460896Y-72566604D02*
X183810896Y-72566604D01*
X183210896Y-77966604D02*
X183410896Y-77966604D01*
X183210896Y-76966604D02*
X183410896Y-76966604D01*
X183210896Y-75966604D02*
X183410896Y-75966604D01*
X183210896Y-74966604D02*
X183410896Y-74966604D01*
X183210896Y-73966604D02*
X183410896Y-73966604D01*
X183210896Y-72966604D02*
X183410896Y-72966604D01*
G04 #@! TO.C,J6*
X191698896Y-78966604D02*
G75*
G03X191698896Y-78966604I-250000J0D01*
G01*
X187898896Y-78366604D02*
X187898896Y-72566604D01*
X189798896Y-79466604D02*
X190798896Y-79466604D01*
X190798896Y-79466604D02*
X190798896Y-78566604D01*
X190798896Y-78966604D02*
X189798896Y-78966604D01*
X189798896Y-78966604D02*
X189798896Y-78966604D01*
X189798896Y-78966604D02*
X190798896Y-78966604D01*
X190798896Y-78966604D02*
X190798896Y-78966604D01*
X190198896Y-78966604D02*
X190198896Y-78966604D01*
X190198896Y-78966604D02*
X190198896Y-79466604D01*
X190198896Y-79466604D02*
X190198896Y-79466604D01*
X190198896Y-79466604D02*
X190198896Y-78966604D01*
X189798896Y-71466604D02*
X190798896Y-71466604D01*
X190798896Y-71466604D02*
X190798896Y-72366604D01*
X190798896Y-71966604D02*
X189798896Y-71966604D01*
X189798896Y-71966604D02*
X189798896Y-71966604D01*
X189798896Y-71966604D02*
X190798896Y-71966604D01*
X190798896Y-71966604D02*
X190798896Y-71966604D01*
X190198896Y-71966604D02*
X190198896Y-71966604D01*
X190198896Y-71966604D02*
X190198896Y-71466604D01*
X190198896Y-71466604D02*
X190198896Y-71466604D01*
X190198896Y-71466604D02*
X190198896Y-71966604D01*
X188798896Y-78366604D02*
X188298896Y-78366604D01*
X188298896Y-78366604D02*
X188298896Y-72566604D01*
X188298896Y-72566604D02*
X188798896Y-72566604D01*
X189398896Y-78366604D02*
X190048896Y-78366604D01*
X190048896Y-78366604D02*
X190048896Y-72566604D01*
X190048896Y-72566604D02*
X189398896Y-72566604D01*
X188798896Y-77966604D02*
X188998896Y-77966604D01*
X188798896Y-76966604D02*
X188998896Y-76966604D01*
X188798896Y-75966604D02*
X188998896Y-75966604D01*
X188798896Y-74966604D02*
X188998896Y-74966604D01*
X188798896Y-73966604D02*
X188998896Y-73966604D01*
X188798896Y-72966604D02*
X188998896Y-72966604D01*
G04 #@! TO.C,J16*
X191698896Y-89126604D02*
G75*
G03X191698896Y-89126604I-250000J0D01*
G01*
X187898896Y-88526604D02*
X187898896Y-82726604D01*
X189798896Y-89626604D02*
X190798896Y-89626604D01*
X190798896Y-89626604D02*
X190798896Y-88726604D01*
X190798896Y-89126604D02*
X189798896Y-89126604D01*
X189798896Y-89126604D02*
X189798896Y-89126604D01*
X189798896Y-89126604D02*
X190798896Y-89126604D01*
X190798896Y-89126604D02*
X190798896Y-89126604D01*
X190198896Y-89126604D02*
X190198896Y-89126604D01*
X190198896Y-89126604D02*
X190198896Y-89626604D01*
X190198896Y-89626604D02*
X190198896Y-89626604D01*
X190198896Y-89626604D02*
X190198896Y-89126604D01*
X189798896Y-81626604D02*
X190798896Y-81626604D01*
X190798896Y-81626604D02*
X190798896Y-82526604D01*
X190798896Y-82126604D02*
X189798896Y-82126604D01*
X189798896Y-82126604D02*
X189798896Y-82126604D01*
X189798896Y-82126604D02*
X190798896Y-82126604D01*
X190798896Y-82126604D02*
X190798896Y-82126604D01*
X190198896Y-82126604D02*
X190198896Y-82126604D01*
X190198896Y-82126604D02*
X190198896Y-81626604D01*
X190198896Y-81626604D02*
X190198896Y-81626604D01*
X190198896Y-81626604D02*
X190198896Y-82126604D01*
X188798896Y-88526604D02*
X188298896Y-88526604D01*
X188298896Y-88526604D02*
X188298896Y-82726604D01*
X188298896Y-82726604D02*
X188798896Y-82726604D01*
X189398896Y-88526604D02*
X190048896Y-88526604D01*
X190048896Y-88526604D02*
X190048896Y-82726604D01*
X190048896Y-82726604D02*
X189398896Y-82726604D01*
X188798896Y-88126604D02*
X188998896Y-88126604D01*
X188798896Y-87126604D02*
X188998896Y-87126604D01*
X188798896Y-86126604D02*
X188998896Y-86126604D01*
X188798896Y-85126604D02*
X188998896Y-85126604D01*
X188798896Y-84126604D02*
X188998896Y-84126604D01*
X188798896Y-83126604D02*
X188998896Y-83126604D01*
G04 #@! TO.C,J3*
X175242995Y-68063604D02*
G75*
G03X175242995Y-68063604I-250000J0D01*
G01*
X174392995Y-71613604D02*
X172592995Y-71613604D01*
X175492995Y-69713604D02*
X175492995Y-68713604D01*
X175492995Y-68713604D02*
X174592995Y-68713604D01*
X174992995Y-68713604D02*
X174992995Y-69713604D01*
X174992995Y-69713604D02*
X174992995Y-69713604D01*
X174992995Y-69713604D02*
X174992995Y-68713604D01*
X174992995Y-68713604D02*
X174992995Y-68713604D01*
X174992995Y-69313604D02*
X174992995Y-69313604D01*
X174992995Y-69313604D02*
X175492995Y-69313604D01*
X175492995Y-69313604D02*
X175492995Y-69313604D01*
X175492995Y-69313604D02*
X174992995Y-69313604D01*
X171492995Y-69713604D02*
X171492995Y-68713604D01*
X171492995Y-68713604D02*
X172392995Y-68713604D01*
X171992995Y-68713604D02*
X171992995Y-69713604D01*
X171992995Y-69713604D02*
X171992995Y-69713604D01*
X171992995Y-69713604D02*
X171992995Y-68713604D01*
X171992995Y-68713604D02*
X171992995Y-68713604D01*
X171992995Y-69313604D02*
X171992995Y-69313604D01*
X171992995Y-69313604D02*
X171492995Y-69313604D01*
X171492995Y-69313604D02*
X171492995Y-69313604D01*
X171492995Y-69313604D02*
X171992995Y-69313604D01*
X174392995Y-70713604D02*
X174392995Y-71213604D01*
X174392995Y-71213604D02*
X172592995Y-71213604D01*
X172592995Y-71213604D02*
X172592995Y-70713604D01*
X174392995Y-70113604D02*
X174392995Y-69463604D01*
X174392995Y-69463604D02*
X172592995Y-69463604D01*
X172592995Y-69463604D02*
X172592995Y-70113604D01*
X173992995Y-70713604D02*
X173992995Y-70513604D01*
X172992995Y-70713604D02*
X172992995Y-70513604D01*
G04 #@! TO.C,J1*
X140725896Y-58964104D02*
G75*
G03X140725896Y-58964104I-250000J0D01*
G01*
X139875896Y-62514104D02*
X136075896Y-62514104D01*
X140975896Y-60614104D02*
X140975896Y-59614104D01*
X140975896Y-59614104D02*
X140075896Y-59614104D01*
X140475896Y-59614104D02*
X140475896Y-60614104D01*
X140475896Y-60614104D02*
X140475896Y-60614104D01*
X140475896Y-60614104D02*
X140475896Y-59614104D01*
X140475896Y-59614104D02*
X140475896Y-59614104D01*
X140475896Y-60214104D02*
X140475896Y-60214104D01*
X140475896Y-60214104D02*
X140975896Y-60214104D01*
X140975896Y-60214104D02*
X140975896Y-60214104D01*
X140975896Y-60214104D02*
X140475896Y-60214104D01*
X134975896Y-60614104D02*
X134975896Y-59614104D01*
X134975896Y-59614104D02*
X135875896Y-59614104D01*
X135475896Y-59614104D02*
X135475896Y-60614104D01*
X135475896Y-60614104D02*
X135475896Y-60614104D01*
X135475896Y-60614104D02*
X135475896Y-59614104D01*
X135475896Y-59614104D02*
X135475896Y-59614104D01*
X135475896Y-60214104D02*
X135475896Y-60214104D01*
X135475896Y-60214104D02*
X134975896Y-60214104D01*
X134975896Y-60214104D02*
X134975896Y-60214104D01*
X134975896Y-60214104D02*
X135475896Y-60214104D01*
X139875896Y-61614104D02*
X139875896Y-62114104D01*
X139875896Y-62114104D02*
X136075896Y-62114104D01*
X136075896Y-62114104D02*
X136075896Y-61614104D01*
X139875896Y-61014104D02*
X139875896Y-60364104D01*
X139875896Y-60364104D02*
X136075896Y-60364104D01*
X136075896Y-60364104D02*
X136075896Y-61014104D01*
X139475896Y-61614104D02*
X139475896Y-61414104D01*
X138475896Y-61614104D02*
X138475896Y-61414104D01*
X137475896Y-61614104D02*
X137475896Y-61414104D01*
X136475896Y-61614104D02*
X136475896Y-61414104D01*
G04 #@! TO.C,J2*
X153685896Y-58956604D02*
G75*
G03X153685896Y-58956604I-250000J0D01*
G01*
X152835896Y-62506604D02*
X149035896Y-62506604D01*
X153935896Y-60606604D02*
X153935896Y-59606604D01*
X153935896Y-59606604D02*
X153035896Y-59606604D01*
X153435896Y-59606604D02*
X153435896Y-60606604D01*
X153435896Y-60606604D02*
X153435896Y-60606604D01*
X153435896Y-60606604D02*
X153435896Y-59606604D01*
X153435896Y-59606604D02*
X153435896Y-59606604D01*
X153435896Y-60206604D02*
X153435896Y-60206604D01*
X153435896Y-60206604D02*
X153935896Y-60206604D01*
X153935896Y-60206604D02*
X153935896Y-60206604D01*
X153935896Y-60206604D02*
X153435896Y-60206604D01*
X147935896Y-60606604D02*
X147935896Y-59606604D01*
X147935896Y-59606604D02*
X148835896Y-59606604D01*
X148435896Y-59606604D02*
X148435896Y-60606604D01*
X148435896Y-60606604D02*
X148435896Y-60606604D01*
X148435896Y-60606604D02*
X148435896Y-59606604D01*
X148435896Y-59606604D02*
X148435896Y-59606604D01*
X148435896Y-60206604D02*
X148435896Y-60206604D01*
X148435896Y-60206604D02*
X147935896Y-60206604D01*
X147935896Y-60206604D02*
X147935896Y-60206604D01*
X147935896Y-60206604D02*
X148435896Y-60206604D01*
X152835896Y-61606604D02*
X152835896Y-62106604D01*
X152835896Y-62106604D02*
X149035896Y-62106604D01*
X149035896Y-62106604D02*
X149035896Y-61606604D01*
X152835896Y-61006604D02*
X152835896Y-60356604D01*
X152835896Y-60356604D02*
X149035896Y-60356604D01*
X149035896Y-60356604D02*
X149035896Y-61006604D01*
X152435896Y-61606604D02*
X152435896Y-61406604D01*
X151435896Y-61606604D02*
X151435896Y-61406604D01*
X150435896Y-61606604D02*
X150435896Y-61406604D01*
X149435896Y-61606604D02*
X149435896Y-61406604D01*
G04 #@! TO.C,J7*
X154701896Y-83086604D02*
G75*
G03X154701896Y-83086604I-250000J0D01*
G01*
X153851896Y-86636604D02*
X150051896Y-86636604D01*
X154951896Y-84736604D02*
X154951896Y-83736604D01*
X154951896Y-83736604D02*
X154051896Y-83736604D01*
X154451896Y-83736604D02*
X154451896Y-84736604D01*
X154451896Y-84736604D02*
X154451896Y-84736604D01*
X154451896Y-84736604D02*
X154451896Y-83736604D01*
X154451896Y-83736604D02*
X154451896Y-83736604D01*
X154451896Y-84336604D02*
X154451896Y-84336604D01*
X154451896Y-84336604D02*
X154951896Y-84336604D01*
X154951896Y-84336604D02*
X154951896Y-84336604D01*
X154951896Y-84336604D02*
X154451896Y-84336604D01*
X148951896Y-84736604D02*
X148951896Y-83736604D01*
X148951896Y-83736604D02*
X149851896Y-83736604D01*
X149451896Y-83736604D02*
X149451896Y-84736604D01*
X149451896Y-84736604D02*
X149451896Y-84736604D01*
X149451896Y-84736604D02*
X149451896Y-83736604D01*
X149451896Y-83736604D02*
X149451896Y-83736604D01*
X149451896Y-84336604D02*
X149451896Y-84336604D01*
X149451896Y-84336604D02*
X148951896Y-84336604D01*
X148951896Y-84336604D02*
X148951896Y-84336604D01*
X148951896Y-84336604D02*
X149451896Y-84336604D01*
X153851896Y-85736604D02*
X153851896Y-86236604D01*
X153851896Y-86236604D02*
X150051896Y-86236604D01*
X150051896Y-86236604D02*
X150051896Y-85736604D01*
X153851896Y-85136604D02*
X153851896Y-84486604D01*
X153851896Y-84486604D02*
X150051896Y-84486604D01*
X150051896Y-84486604D02*
X150051896Y-85136604D01*
X153451896Y-85736604D02*
X153451896Y-85536604D01*
X152451896Y-85736604D02*
X152451896Y-85536604D01*
X151451896Y-85736604D02*
X151451896Y-85536604D01*
X150451896Y-85736604D02*
X150451896Y-85536604D01*
G04 #@! TO.C,J8*
X154701896Y-77498604D02*
G75*
G03X154701896Y-77498604I-250000J0D01*
G01*
X153851896Y-81048604D02*
X150051896Y-81048604D01*
X154951896Y-79148604D02*
X154951896Y-78148604D01*
X154951896Y-78148604D02*
X154051896Y-78148604D01*
X154451896Y-78148604D02*
X154451896Y-79148604D01*
X154451896Y-79148604D02*
X154451896Y-79148604D01*
X154451896Y-79148604D02*
X154451896Y-78148604D01*
X154451896Y-78148604D02*
X154451896Y-78148604D01*
X154451896Y-78748604D02*
X154451896Y-78748604D01*
X154451896Y-78748604D02*
X154951896Y-78748604D01*
X154951896Y-78748604D02*
X154951896Y-78748604D01*
X154951896Y-78748604D02*
X154451896Y-78748604D01*
X148951896Y-79148604D02*
X148951896Y-78148604D01*
X148951896Y-78148604D02*
X149851896Y-78148604D01*
X149451896Y-78148604D02*
X149451896Y-79148604D01*
X149451896Y-79148604D02*
X149451896Y-79148604D01*
X149451896Y-79148604D02*
X149451896Y-78148604D01*
X149451896Y-78148604D02*
X149451896Y-78148604D01*
X149451896Y-78748604D02*
X149451896Y-78748604D01*
X149451896Y-78748604D02*
X148951896Y-78748604D01*
X148951896Y-78748604D02*
X148951896Y-78748604D01*
X148951896Y-78748604D02*
X149451896Y-78748604D01*
X153851896Y-80148604D02*
X153851896Y-80648604D01*
X153851896Y-80648604D02*
X150051896Y-80648604D01*
X150051896Y-80648604D02*
X150051896Y-80148604D01*
X153851896Y-79548604D02*
X153851896Y-78898604D01*
X153851896Y-78898604D02*
X150051896Y-78898604D01*
X150051896Y-78898604D02*
X150051896Y-79548604D01*
X153451896Y-80148604D02*
X153451896Y-79948604D01*
X152451896Y-80148604D02*
X152451896Y-79948604D01*
X151451896Y-80148604D02*
X151451896Y-79948604D01*
X150451896Y-80148604D02*
X150451896Y-79948604D01*
G04 #@! TO.C,J9*
X162766396Y-83086604D02*
G75*
G03X162766396Y-83086604I-250000J0D01*
G01*
X161916396Y-86636604D02*
X158116396Y-86636604D01*
X163016396Y-84736604D02*
X163016396Y-83736604D01*
X163016396Y-83736604D02*
X162116396Y-83736604D01*
X162516396Y-83736604D02*
X162516396Y-84736604D01*
X162516396Y-84736604D02*
X162516396Y-84736604D01*
X162516396Y-84736604D02*
X162516396Y-83736604D01*
X162516396Y-83736604D02*
X162516396Y-83736604D01*
X162516396Y-84336604D02*
X162516396Y-84336604D01*
X162516396Y-84336604D02*
X163016396Y-84336604D01*
X163016396Y-84336604D02*
X163016396Y-84336604D01*
X163016396Y-84336604D02*
X162516396Y-84336604D01*
X157016396Y-84736604D02*
X157016396Y-83736604D01*
X157016396Y-83736604D02*
X157916396Y-83736604D01*
X157516396Y-83736604D02*
X157516396Y-84736604D01*
X157516396Y-84736604D02*
X157516396Y-84736604D01*
X157516396Y-84736604D02*
X157516396Y-83736604D01*
X157516396Y-83736604D02*
X157516396Y-83736604D01*
X157516396Y-84336604D02*
X157516396Y-84336604D01*
X157516396Y-84336604D02*
X157016396Y-84336604D01*
X157016396Y-84336604D02*
X157016396Y-84336604D01*
X157016396Y-84336604D02*
X157516396Y-84336604D01*
X161916396Y-85736604D02*
X161916396Y-86236604D01*
X161916396Y-86236604D02*
X158116396Y-86236604D01*
X158116396Y-86236604D02*
X158116396Y-85736604D01*
X161916396Y-85136604D02*
X161916396Y-84486604D01*
X161916396Y-84486604D02*
X158116396Y-84486604D01*
X158116396Y-84486604D02*
X158116396Y-85136604D01*
X161516396Y-85736604D02*
X161516396Y-85536604D01*
X160516396Y-85736604D02*
X160516396Y-85536604D01*
X159516396Y-85736604D02*
X159516396Y-85536604D01*
X158516396Y-85736604D02*
X158516396Y-85536604D01*
G04 #@! TO.C,J10*
X162702896Y-77498604D02*
G75*
G03X162702896Y-77498604I-250000J0D01*
G01*
X161852896Y-81048604D02*
X158052896Y-81048604D01*
X162952896Y-79148604D02*
X162952896Y-78148604D01*
X162952896Y-78148604D02*
X162052896Y-78148604D01*
X162452896Y-78148604D02*
X162452896Y-79148604D01*
X162452896Y-79148604D02*
X162452896Y-79148604D01*
X162452896Y-79148604D02*
X162452896Y-78148604D01*
X162452896Y-78148604D02*
X162452896Y-78148604D01*
X162452896Y-78748604D02*
X162452896Y-78748604D01*
X162452896Y-78748604D02*
X162952896Y-78748604D01*
X162952896Y-78748604D02*
X162952896Y-78748604D01*
X162952896Y-78748604D02*
X162452896Y-78748604D01*
X156952896Y-79148604D02*
X156952896Y-78148604D01*
X156952896Y-78148604D02*
X157852896Y-78148604D01*
X157452896Y-78148604D02*
X157452896Y-79148604D01*
X157452896Y-79148604D02*
X157452896Y-79148604D01*
X157452896Y-79148604D02*
X157452896Y-78148604D01*
X157452896Y-78148604D02*
X157452896Y-78148604D01*
X157452896Y-78748604D02*
X157452896Y-78748604D01*
X157452896Y-78748604D02*
X156952896Y-78748604D01*
X156952896Y-78748604D02*
X156952896Y-78748604D01*
X156952896Y-78748604D02*
X157452896Y-78748604D01*
X161852896Y-80148604D02*
X161852896Y-80648604D01*
X161852896Y-80648604D02*
X158052896Y-80648604D01*
X158052896Y-80648604D02*
X158052896Y-80148604D01*
X161852896Y-79548604D02*
X161852896Y-78898604D01*
X161852896Y-78898604D02*
X158052896Y-78898604D01*
X158052896Y-78898604D02*
X158052896Y-79548604D01*
X161452896Y-80148604D02*
X161452896Y-79948604D01*
X160452896Y-80148604D02*
X160452896Y-79948604D01*
X159452896Y-80148604D02*
X159452896Y-79948604D01*
X158452896Y-80148604D02*
X158452896Y-79948604D01*
G04 #@! TO.C,J12*
X178895396Y-83023104D02*
G75*
G03X178895396Y-83023104I-250000J0D01*
G01*
X178045396Y-86573104D02*
X174245396Y-86573104D01*
X179145396Y-84673104D02*
X179145396Y-83673104D01*
X179145396Y-83673104D02*
X178245396Y-83673104D01*
X178645396Y-83673104D02*
X178645396Y-84673104D01*
X178645396Y-84673104D02*
X178645396Y-84673104D01*
X178645396Y-84673104D02*
X178645396Y-83673104D01*
X178645396Y-83673104D02*
X178645396Y-83673104D01*
X178645396Y-84273104D02*
X178645396Y-84273104D01*
X178645396Y-84273104D02*
X179145396Y-84273104D01*
X179145396Y-84273104D02*
X179145396Y-84273104D01*
X179145396Y-84273104D02*
X178645396Y-84273104D01*
X173145396Y-84673104D02*
X173145396Y-83673104D01*
X173145396Y-83673104D02*
X174045396Y-83673104D01*
X173645396Y-83673104D02*
X173645396Y-84673104D01*
X173645396Y-84673104D02*
X173645396Y-84673104D01*
X173645396Y-84673104D02*
X173645396Y-83673104D01*
X173645396Y-83673104D02*
X173645396Y-83673104D01*
X173645396Y-84273104D02*
X173645396Y-84273104D01*
X173645396Y-84273104D02*
X173145396Y-84273104D01*
X173145396Y-84273104D02*
X173145396Y-84273104D01*
X173145396Y-84273104D02*
X173645396Y-84273104D01*
X178045396Y-85673104D02*
X178045396Y-86173104D01*
X178045396Y-86173104D02*
X174245396Y-86173104D01*
X174245396Y-86173104D02*
X174245396Y-85673104D01*
X178045396Y-85073104D02*
X178045396Y-84423104D01*
X178045396Y-84423104D02*
X174245396Y-84423104D01*
X174245396Y-84423104D02*
X174245396Y-85073104D01*
X177645396Y-85673104D02*
X177645396Y-85473104D01*
X176645396Y-85673104D02*
X176645396Y-85473104D01*
X175645396Y-85673104D02*
X175645396Y-85473104D01*
X174645396Y-85673104D02*
X174645396Y-85473104D01*
G04 #@! TO.C,J13*
X170767396Y-83086604D02*
G75*
G03X170767396Y-83086604I-250000J0D01*
G01*
X169917396Y-86636604D02*
X166117396Y-86636604D01*
X171017396Y-84736604D02*
X171017396Y-83736604D01*
X171017396Y-83736604D02*
X170117396Y-83736604D01*
X170517396Y-83736604D02*
X170517396Y-84736604D01*
X170517396Y-84736604D02*
X170517396Y-84736604D01*
X170517396Y-84736604D02*
X170517396Y-83736604D01*
X170517396Y-83736604D02*
X170517396Y-83736604D01*
X170517396Y-84336604D02*
X170517396Y-84336604D01*
X170517396Y-84336604D02*
X171017396Y-84336604D01*
X171017396Y-84336604D02*
X171017396Y-84336604D01*
X171017396Y-84336604D02*
X170517396Y-84336604D01*
X165017396Y-84736604D02*
X165017396Y-83736604D01*
X165017396Y-83736604D02*
X165917396Y-83736604D01*
X165517396Y-83736604D02*
X165517396Y-84736604D01*
X165517396Y-84736604D02*
X165517396Y-84736604D01*
X165517396Y-84736604D02*
X165517396Y-83736604D01*
X165517396Y-83736604D02*
X165517396Y-83736604D01*
X165517396Y-84336604D02*
X165517396Y-84336604D01*
X165517396Y-84336604D02*
X165017396Y-84336604D01*
X165017396Y-84336604D02*
X165017396Y-84336604D01*
X165017396Y-84336604D02*
X165517396Y-84336604D01*
X169917396Y-85736604D02*
X169917396Y-86236604D01*
X169917396Y-86236604D02*
X166117396Y-86236604D01*
X166117396Y-86236604D02*
X166117396Y-85736604D01*
X169917396Y-85136604D02*
X169917396Y-84486604D01*
X169917396Y-84486604D02*
X166117396Y-84486604D01*
X166117396Y-84486604D02*
X166117396Y-85136604D01*
X169517396Y-85736604D02*
X169517396Y-85536604D01*
X168517396Y-85736604D02*
X168517396Y-85536604D01*
X167517396Y-85736604D02*
X167517396Y-85536604D01*
X166517396Y-85736604D02*
X166517396Y-85536604D01*
G04 #@! TO.C,J14*
X170703896Y-77498604D02*
G75*
G03X170703896Y-77498604I-250000J0D01*
G01*
X169853896Y-81048604D02*
X166053896Y-81048604D01*
X170953896Y-79148604D02*
X170953896Y-78148604D01*
X170953896Y-78148604D02*
X170053896Y-78148604D01*
X170453896Y-78148604D02*
X170453896Y-79148604D01*
X170453896Y-79148604D02*
X170453896Y-79148604D01*
X170453896Y-79148604D02*
X170453896Y-78148604D01*
X170453896Y-78148604D02*
X170453896Y-78148604D01*
X170453896Y-78748604D02*
X170453896Y-78748604D01*
X170453896Y-78748604D02*
X170953896Y-78748604D01*
X170953896Y-78748604D02*
X170953896Y-78748604D01*
X170953896Y-78748604D02*
X170453896Y-78748604D01*
X164953896Y-79148604D02*
X164953896Y-78148604D01*
X164953896Y-78148604D02*
X165853896Y-78148604D01*
X165453896Y-78148604D02*
X165453896Y-79148604D01*
X165453896Y-79148604D02*
X165453896Y-79148604D01*
X165453896Y-79148604D02*
X165453896Y-78148604D01*
X165453896Y-78148604D02*
X165453896Y-78148604D01*
X165453896Y-78748604D02*
X165453896Y-78748604D01*
X165453896Y-78748604D02*
X164953896Y-78748604D01*
X164953896Y-78748604D02*
X164953896Y-78748604D01*
X164953896Y-78748604D02*
X165453896Y-78748604D01*
X169853896Y-80148604D02*
X169853896Y-80648604D01*
X169853896Y-80648604D02*
X166053896Y-80648604D01*
X166053896Y-80648604D02*
X166053896Y-80148604D01*
X169853896Y-79548604D02*
X169853896Y-78898604D01*
X169853896Y-78898604D02*
X166053896Y-78898604D01*
X166053896Y-78898604D02*
X166053896Y-79548604D01*
X169453896Y-80148604D02*
X169453896Y-79948604D01*
X168453896Y-80148604D02*
X168453896Y-79948604D01*
X167453896Y-80148604D02*
X167453896Y-79948604D01*
X166453896Y-80148604D02*
X166453896Y-79948604D01*
G04 #@! TO.C,J15*
X178895396Y-77498604D02*
G75*
G03X178895396Y-77498604I-250000J0D01*
G01*
X178045396Y-81048604D02*
X174245396Y-81048604D01*
X179145396Y-79148604D02*
X179145396Y-78148604D01*
X179145396Y-78148604D02*
X178245396Y-78148604D01*
X178645396Y-78148604D02*
X178645396Y-79148604D01*
X178645396Y-79148604D02*
X178645396Y-79148604D01*
X178645396Y-79148604D02*
X178645396Y-78148604D01*
X178645396Y-78148604D02*
X178645396Y-78148604D01*
X178645396Y-78748604D02*
X178645396Y-78748604D01*
X178645396Y-78748604D02*
X179145396Y-78748604D01*
X179145396Y-78748604D02*
X179145396Y-78748604D01*
X179145396Y-78748604D02*
X178645396Y-78748604D01*
X173145396Y-79148604D02*
X173145396Y-78148604D01*
X173145396Y-78148604D02*
X174045396Y-78148604D01*
X173645396Y-78148604D02*
X173645396Y-79148604D01*
X173645396Y-79148604D02*
X173645396Y-79148604D01*
X173645396Y-79148604D02*
X173645396Y-78148604D01*
X173645396Y-78148604D02*
X173645396Y-78148604D01*
X173645396Y-78748604D02*
X173645396Y-78748604D01*
X173645396Y-78748604D02*
X173145396Y-78748604D01*
X173145396Y-78748604D02*
X173145396Y-78748604D01*
X173145396Y-78748604D02*
X173645396Y-78748604D01*
X178045396Y-80148604D02*
X178045396Y-80648604D01*
X178045396Y-80648604D02*
X174245396Y-80648604D01*
X174245396Y-80648604D02*
X174245396Y-80148604D01*
X178045396Y-79548604D02*
X178045396Y-78898604D01*
X178045396Y-78898604D02*
X174245396Y-78898604D01*
X174245396Y-78898604D02*
X174245396Y-79548604D01*
X177645396Y-80148604D02*
X177645396Y-79948604D01*
X176645396Y-80148604D02*
X176645396Y-79948604D01*
X175645396Y-80148604D02*
X175645396Y-79948604D01*
X174645396Y-80148604D02*
X174645396Y-79948604D01*
D12*
G04 #@! TO.C,P9*
X185886296Y-47806004D02*
X127466296Y-47806004D01*
X185886296Y-52886004D02*
X130006296Y-52886004D01*
X185886296Y-47806004D02*
X185886296Y-52886004D01*
X127466296Y-47806004D02*
X127466296Y-50346004D01*
X127186296Y-51616004D02*
X127186296Y-53166004D01*
X127466296Y-50346004D02*
X130006296Y-50346004D01*
X130006296Y-50346004D02*
X130006296Y-52886004D01*
X127186296Y-53166004D02*
X128736296Y-53166004D01*
D11*
G04 #@! TO.C,C8*
X168486396Y-69870604D02*
X168486396Y-68870604D01*
X166786396Y-68870604D02*
X166786396Y-69870604D01*
G04 #@! TO.C,C9*
X135180000Y-82240000D02*
X135180000Y-83240000D01*
X136880000Y-83240000D02*
X136880000Y-82240000D01*
G04 #@! TO.C,C17*
X137840175Y-79052121D02*
X137840175Y-80052121D01*
X139540175Y-80052121D02*
X139540175Y-79052121D01*
G04 #@! TO.C,C18*
X141204975Y-80063167D02*
X141204975Y-79063167D01*
X139504975Y-79063167D02*
X139504975Y-80063167D01*
G04 #@! TO.C,C22*
X141155975Y-79052121D02*
X141155975Y-80052121D01*
X142855975Y-80052121D02*
X142855975Y-79052121D01*
G04 #@! TO.C,C23*
X130244896Y-86441904D02*
X129244896Y-86441904D01*
X129244896Y-88141904D02*
X130244896Y-88141904D01*
G04 #@! TO.C,R7*
X161802396Y-57260604D02*
X162802396Y-57260604D01*
X162802396Y-58620604D02*
X161802396Y-58620604D01*
G04 #@! TO.C,R8*
X162802396Y-60144604D02*
X161802396Y-60144604D01*
X161802396Y-58784604D02*
X162802396Y-58784604D01*
G04 #@! TO.C,R9*
X161802396Y-60308604D02*
X162802396Y-60308604D01*
X162802396Y-61668604D02*
X161802396Y-61668604D01*
G04 #@! TO.C,R10*
X151006296Y-94776004D02*
X151006296Y-93776004D01*
X152366296Y-93776004D02*
X152366296Y-94776004D01*
G04 #@! TO.C,R11*
X161294396Y-71484604D02*
X162294396Y-71484604D01*
X162294396Y-72844604D02*
X161294396Y-72844604D01*
G04 #@! TO.C,R12*
X153666296Y-93776004D02*
X153666296Y-94776004D01*
X152306296Y-94776004D02*
X152306296Y-93776004D01*
G04 #@! TO.C,R15*
X148446296Y-93903004D02*
X148446296Y-94903004D01*
X147086296Y-94903004D02*
X147086296Y-93903004D01*
G04 #@! TO.C,R16*
X148604896Y-94889604D02*
X148604896Y-93889604D01*
X149964896Y-93889604D02*
X149964896Y-94889604D01*
D15*
G04 #@! TO.C,G\002A\002A\002A*
G36*
X123272870Y-91896750D02*
X123275606Y-91708777D01*
X123279929Y-91544879D01*
X123281364Y-91506110D01*
X123288826Y-91328499D01*
X123295663Y-91197780D01*
X123302831Y-91106883D01*
X123311284Y-91048739D01*
X123321975Y-91016277D01*
X123335859Y-91002429D01*
X123349666Y-91000000D01*
X123397792Y-91017672D01*
X123411721Y-91036181D01*
X123448197Y-91061153D01*
X123502335Y-91061177D01*
X123590552Y-91065366D01*
X123664268Y-91098280D01*
X123707728Y-91150987D01*
X123713216Y-91180761D01*
X123704526Y-91236744D01*
X123692972Y-91259489D01*
X123687764Y-91290716D01*
X123683373Y-91367664D01*
X123679806Y-91482078D01*
X123677071Y-91625705D01*
X123675175Y-91790290D01*
X123674126Y-91967577D01*
X123673930Y-92149313D01*
X123674596Y-92327242D01*
X123676130Y-92493111D01*
X123678541Y-92638664D01*
X123681834Y-92755647D01*
X123686019Y-92835806D01*
X123691101Y-92870885D01*
X123691535Y-92871486D01*
X123699837Y-92905839D01*
X123703944Y-92978040D01*
X123703111Y-93066600D01*
X123703739Y-93162764D01*
X123711712Y-93239129D01*
X123723986Y-93276609D01*
X123740760Y-93320687D01*
X123754389Y-93398352D01*
X123759648Y-93457091D01*
X123768012Y-93604681D01*
X124064930Y-93639662D01*
X124189135Y-93655271D01*
X124295736Y-93670471D01*
X124371880Y-93683321D01*
X124402337Y-93690645D01*
X124460821Y-93703991D01*
X124510308Y-93708360D01*
X124577789Y-93710072D01*
X124592113Y-92126266D01*
X124733410Y-92143238D01*
X124830600Y-92153254D01*
X124917417Y-92159472D01*
X124948535Y-92160445D01*
X125022363Y-92160680D01*
X125029513Y-92963709D01*
X125036663Y-93766737D01*
X125333581Y-93808448D01*
X125458606Y-93827352D01*
X125567019Y-93846210D01*
X125645628Y-93862581D01*
X125678186Y-93872242D01*
X125741640Y-93884638D01*
X125793549Y-93881388D01*
X125849636Y-93879708D01*
X125875669Y-93891824D01*
X125910771Y-93909440D01*
X125960379Y-93915196D01*
X126030643Y-93915196D01*
X126013239Y-92884614D01*
X126008571Y-92645417D01*
X126003083Y-92427000D01*
X125996997Y-92234855D01*
X125990536Y-92074472D01*
X125983923Y-91951344D01*
X125977380Y-91870962D01*
X125971129Y-91838818D01*
X125970852Y-91838590D01*
X125957445Y-91805864D01*
X125945415Y-91734029D01*
X125937172Y-91637950D01*
X125936642Y-91627454D01*
X125927417Y-91431759D01*
X126052258Y-91431820D01*
X126129115Y-91434590D01*
X126168576Y-91449374D01*
X126187190Y-91486028D01*
X126193969Y-91516232D01*
X126204051Y-91594522D01*
X126210081Y-91695168D01*
X126210839Y-91740271D01*
X126216730Y-91826448D01*
X126231765Y-91891991D01*
X126243044Y-91912162D01*
X126251595Y-91936417D01*
X126258904Y-91992922D01*
X126265077Y-92084906D01*
X126270223Y-92215600D01*
X126274445Y-92388234D01*
X126277852Y-92606037D01*
X126280550Y-92872240D01*
X126282129Y-93098485D01*
X126283267Y-93344366D01*
X126283704Y-93574538D01*
X126283475Y-93783170D01*
X126282614Y-93964429D01*
X126281156Y-94112485D01*
X126279136Y-94221504D01*
X126276590Y-94285656D01*
X126274937Y-94299840D01*
X126239672Y-94339558D01*
X126209962Y-94347077D01*
X126151270Y-94343094D01*
X126060173Y-94332735D01*
X125953247Y-94318383D01*
X125847069Y-94302421D01*
X125758213Y-94287233D01*
X125703257Y-94275203D01*
X125697980Y-94273457D01*
X125638859Y-94263515D01*
X125595329Y-94264205D01*
X125532302Y-94258754D01*
X125500855Y-94244768D01*
X125461945Y-94231564D01*
X125376768Y-94213791D01*
X125252741Y-94192613D01*
X125097276Y-94169196D01*
X124917787Y-94144705D01*
X124721690Y-94120307D01*
X124672263Y-94114512D01*
X124584885Y-94100638D01*
X124512859Y-94082905D01*
X124496811Y-94077022D01*
X124452421Y-94065507D01*
X124364955Y-94048938D01*
X124244886Y-94029088D01*
X124102690Y-94007725D01*
X124010945Y-93994897D01*
X123863223Y-93973600D01*
X123733992Y-93952672D01*
X123632900Y-93933856D01*
X123569599Y-93918897D01*
X123553421Y-93912198D01*
X123511585Y-93896617D01*
X123440671Y-93888525D01*
X123423297Y-93888204D01*
X123318816Y-93888204D01*
X123325234Y-93730965D01*
X123325284Y-93639638D01*
X123318711Y-93568119D01*
X123310477Y-93539465D01*
X123302925Y-93501030D01*
X123295945Y-93415707D01*
X123289638Y-93290595D01*
X123284105Y-93132787D01*
X123279449Y-92949382D01*
X123275771Y-92747474D01*
X123273173Y-92534161D01*
X123271755Y-92316539D01*
X123271621Y-92101703D01*
X123272870Y-91896750D01*
X123272870Y-91896750D01*
G37*
X123272870Y-91896750D02*
X123275606Y-91708777D01*
X123279929Y-91544879D01*
X123281364Y-91506110D01*
X123288826Y-91328499D01*
X123295663Y-91197780D01*
X123302831Y-91106883D01*
X123311284Y-91048739D01*
X123321975Y-91016277D01*
X123335859Y-91002429D01*
X123349666Y-91000000D01*
X123397792Y-91017672D01*
X123411721Y-91036181D01*
X123448197Y-91061153D01*
X123502335Y-91061177D01*
X123590552Y-91065366D01*
X123664268Y-91098280D01*
X123707728Y-91150987D01*
X123713216Y-91180761D01*
X123704526Y-91236744D01*
X123692972Y-91259489D01*
X123687764Y-91290716D01*
X123683373Y-91367664D01*
X123679806Y-91482078D01*
X123677071Y-91625705D01*
X123675175Y-91790290D01*
X123674126Y-91967577D01*
X123673930Y-92149313D01*
X123674596Y-92327242D01*
X123676130Y-92493111D01*
X123678541Y-92638664D01*
X123681834Y-92755647D01*
X123686019Y-92835806D01*
X123691101Y-92870885D01*
X123691535Y-92871486D01*
X123699837Y-92905839D01*
X123703944Y-92978040D01*
X123703111Y-93066600D01*
X123703739Y-93162764D01*
X123711712Y-93239129D01*
X123723986Y-93276609D01*
X123740760Y-93320687D01*
X123754389Y-93398352D01*
X123759648Y-93457091D01*
X123768012Y-93604681D01*
X124064930Y-93639662D01*
X124189135Y-93655271D01*
X124295736Y-93670471D01*
X124371880Y-93683321D01*
X124402337Y-93690645D01*
X124460821Y-93703991D01*
X124510308Y-93708360D01*
X124577789Y-93710072D01*
X124592113Y-92126266D01*
X124733410Y-92143238D01*
X124830600Y-92153254D01*
X124917417Y-92159472D01*
X124948535Y-92160445D01*
X125022363Y-92160680D01*
X125029513Y-92963709D01*
X125036663Y-93766737D01*
X125333581Y-93808448D01*
X125458606Y-93827352D01*
X125567019Y-93846210D01*
X125645628Y-93862581D01*
X125678186Y-93872242D01*
X125741640Y-93884638D01*
X125793549Y-93881388D01*
X125849636Y-93879708D01*
X125875669Y-93891824D01*
X125910771Y-93909440D01*
X125960379Y-93915196D01*
X126030643Y-93915196D01*
X126013239Y-92884614D01*
X126008571Y-92645417D01*
X126003083Y-92427000D01*
X125996997Y-92234855D01*
X125990536Y-92074472D01*
X125983923Y-91951344D01*
X125977380Y-91870962D01*
X125971129Y-91838818D01*
X125970852Y-91838590D01*
X125957445Y-91805864D01*
X125945415Y-91734029D01*
X125937172Y-91637950D01*
X125936642Y-91627454D01*
X125927417Y-91431759D01*
X126052258Y-91431820D01*
X126129115Y-91434590D01*
X126168576Y-91449374D01*
X126187190Y-91486028D01*
X126193969Y-91516232D01*
X126204051Y-91594522D01*
X126210081Y-91695168D01*
X126210839Y-91740271D01*
X126216730Y-91826448D01*
X126231765Y-91891991D01*
X126243044Y-91912162D01*
X126251595Y-91936417D01*
X126258904Y-91992922D01*
X126265077Y-92084906D01*
X126270223Y-92215600D01*
X126274445Y-92388234D01*
X126277852Y-92606037D01*
X126280550Y-92872240D01*
X126282129Y-93098485D01*
X126283267Y-93344366D01*
X126283704Y-93574538D01*
X126283475Y-93783170D01*
X126282614Y-93964429D01*
X126281156Y-94112485D01*
X126279136Y-94221504D01*
X126276590Y-94285656D01*
X126274937Y-94299840D01*
X126239672Y-94339558D01*
X126209962Y-94347077D01*
X126151270Y-94343094D01*
X126060173Y-94332735D01*
X125953247Y-94318383D01*
X125847069Y-94302421D01*
X125758213Y-94287233D01*
X125703257Y-94275203D01*
X125697980Y-94273457D01*
X125638859Y-94263515D01*
X125595329Y-94264205D01*
X125532302Y-94258754D01*
X125500855Y-94244768D01*
X125461945Y-94231564D01*
X125376768Y-94213791D01*
X125252741Y-94192613D01*
X125097276Y-94169196D01*
X124917787Y-94144705D01*
X124721690Y-94120307D01*
X124672263Y-94114512D01*
X124584885Y-94100638D01*
X124512859Y-94082905D01*
X124496811Y-94077022D01*
X124452421Y-94065507D01*
X124364955Y-94048938D01*
X124244886Y-94029088D01*
X124102690Y-94007725D01*
X124010945Y-93994897D01*
X123863223Y-93973600D01*
X123733992Y-93952672D01*
X123632900Y-93933856D01*
X123569599Y-93918897D01*
X123553421Y-93912198D01*
X123511585Y-93896617D01*
X123440671Y-93888525D01*
X123423297Y-93888204D01*
X123318816Y-93888204D01*
X123325234Y-93730965D01*
X123325284Y-93639638D01*
X123318711Y-93568119D01*
X123310477Y-93539465D01*
X123302925Y-93501030D01*
X123295945Y-93415707D01*
X123289638Y-93290595D01*
X123284105Y-93132787D01*
X123279449Y-92949382D01*
X123275771Y-92747474D01*
X123273173Y-92534161D01*
X123271755Y-92316539D01*
X123271621Y-92101703D01*
X123272870Y-91896750D01*
G36*
X123597910Y-94104144D02*
X123708183Y-94106842D01*
X123780798Y-94121500D01*
X123826880Y-94157969D01*
X123857555Y-94226095D01*
X123883950Y-94335728D01*
X123889424Y-94362183D01*
X123911422Y-94453680D01*
X123934546Y-94525668D01*
X123949694Y-94556270D01*
X123963387Y-94585114D01*
X123956960Y-94590010D01*
X123952491Y-94606575D01*
X123962963Y-94623751D01*
X123985123Y-94668632D01*
X124011648Y-94744121D01*
X124023956Y-94786402D01*
X124048608Y-94864052D01*
X124072314Y-94917420D01*
X124082129Y-94929706D01*
X124103514Y-94966408D01*
X124105419Y-94982923D01*
X124117714Y-95032169D01*
X124151504Y-95118965D01*
X124202146Y-95233626D01*
X124264997Y-95366467D01*
X124335415Y-95507802D01*
X124408758Y-95647946D01*
X124480382Y-95777213D01*
X124512258Y-95831668D01*
X124562657Y-95917977D01*
X124599986Y-95985833D01*
X124617297Y-96022517D01*
X124617750Y-96024747D01*
X124634985Y-96051406D01*
X124680497Y-96107283D01*
X124745767Y-96182092D01*
X124773485Y-96212803D01*
X124948924Y-96401741D01*
X125095545Y-96550502D01*
X125217337Y-96661785D01*
X125318287Y-96738287D01*
X125402383Y-96782706D01*
X125473612Y-96797741D01*
X125535961Y-96786090D01*
X125581727Y-96759667D01*
X125647198Y-96689656D01*
X125713192Y-96584372D01*
X125770618Y-96461662D01*
X125810386Y-96339376D01*
X125819616Y-96292569D01*
X125835484Y-96212169D01*
X125854039Y-96153610D01*
X125861301Y-96140716D01*
X125873103Y-96102151D01*
X125886084Y-96019882D01*
X125899389Y-95904153D01*
X125912166Y-95765207D01*
X125923560Y-95613286D01*
X125932718Y-95458635D01*
X125938786Y-95311497D01*
X125940913Y-95185325D01*
X125944136Y-95073592D01*
X125952789Y-94983941D01*
X125965355Y-94930096D01*
X125969983Y-94922641D01*
X125984067Y-94880010D01*
X125991168Y-94792872D01*
X125990583Y-94670337D01*
X125990228Y-94660442D01*
X125987474Y-94545550D01*
X125990519Y-94476226D01*
X126000379Y-94444267D01*
X126017351Y-94441181D01*
X126066563Y-94450226D01*
X126142234Y-94454880D01*
X126159062Y-94455048D01*
X126264824Y-94455048D01*
X126264824Y-95016493D01*
X126263783Y-95185988D01*
X126260874Y-95337441D01*
X126256420Y-95462440D01*
X126250746Y-95552573D01*
X126244173Y-95599425D01*
X126242271Y-95603581D01*
X126232327Y-95638310D01*
X126220039Y-95716767D01*
X126206692Y-95828817D01*
X126193572Y-95964323D01*
X126187968Y-96031730D01*
X126174948Y-96175561D01*
X126160407Y-96301490D01*
X126145788Y-96399083D01*
X126132537Y-96457909D01*
X126127425Y-96468930D01*
X126106756Y-96522222D01*
X126104763Y-96565786D01*
X126102863Y-96633404D01*
X126094514Y-96668438D01*
X126081577Y-96715005D01*
X126064064Y-96796350D01*
X126047644Y-96884378D01*
X126028955Y-96978539D01*
X126010116Y-97051984D01*
X125996253Y-97086822D01*
X125975387Y-97131058D01*
X125956310Y-97194792D01*
X125934009Y-97263664D01*
X125897355Y-97352566D01*
X125853945Y-97445594D01*
X125811378Y-97526841D01*
X125777250Y-97580403D01*
X125767078Y-97590949D01*
X125739434Y-97625977D01*
X125704714Y-97688099D01*
X125699505Y-97698920D01*
X125644634Y-97772814D01*
X125568831Y-97802802D01*
X125470237Y-97788497D01*
X125346998Y-97729513D01*
X125197254Y-97625464D01*
X125144633Y-97583566D01*
X125031193Y-97486641D01*
X124912004Y-97377490D01*
X124793872Y-97263199D01*
X124683604Y-97150854D01*
X124588008Y-97047540D01*
X124513890Y-96960341D01*
X124468057Y-96896345D01*
X124456323Y-96867106D01*
X124439025Y-96820543D01*
X124409086Y-96780635D01*
X124381558Y-96748569D01*
X124351251Y-96705206D01*
X124312507Y-96641239D01*
X124259666Y-96547360D01*
X124193158Y-96425504D01*
X124093741Y-96238194D01*
X124020139Y-96091004D01*
X123973151Y-95985645D01*
X123953576Y-95923822D01*
X123953374Y-95912646D01*
X123941393Y-95883347D01*
X123909232Y-95832410D01*
X123874968Y-95770866D01*
X123861642Y-95724440D01*
X123849791Y-95678292D01*
X123820246Y-95603888D01*
X123794408Y-95548246D01*
X123757219Y-95464867D01*
X123733015Y-95395687D01*
X123727770Y-95367639D01*
X123713163Y-95318626D01*
X123700091Y-95305041D01*
X123684991Y-95271954D01*
X123688918Y-95261777D01*
X123688631Y-95220756D01*
X123677860Y-95202550D01*
X123655893Y-95158376D01*
X123630417Y-95082577D01*
X123617655Y-95035029D01*
X123595087Y-94952445D01*
X123574005Y-94891124D01*
X123565191Y-94873432D01*
X123550981Y-94834826D01*
X123532215Y-94758987D01*
X123512849Y-94661994D01*
X123512045Y-94657492D01*
X123492071Y-94554731D01*
X123472045Y-94467361D01*
X123456392Y-94414559D01*
X123439493Y-94355378D01*
X123422816Y-94269586D01*
X123417306Y-94232359D01*
X123400305Y-94104144D01*
X123597910Y-94104144D01*
X123597910Y-94104144D01*
G37*
X123597910Y-94104144D02*
X123708183Y-94106842D01*
X123780798Y-94121500D01*
X123826880Y-94157969D01*
X123857555Y-94226095D01*
X123883950Y-94335728D01*
X123889424Y-94362183D01*
X123911422Y-94453680D01*
X123934546Y-94525668D01*
X123949694Y-94556270D01*
X123963387Y-94585114D01*
X123956960Y-94590010D01*
X123952491Y-94606575D01*
X123962963Y-94623751D01*
X123985123Y-94668632D01*
X124011648Y-94744121D01*
X124023956Y-94786402D01*
X124048608Y-94864052D01*
X124072314Y-94917420D01*
X124082129Y-94929706D01*
X124103514Y-94966408D01*
X124105419Y-94982923D01*
X124117714Y-95032169D01*
X124151504Y-95118965D01*
X124202146Y-95233626D01*
X124264997Y-95366467D01*
X124335415Y-95507802D01*
X124408758Y-95647946D01*
X124480382Y-95777213D01*
X124512258Y-95831668D01*
X124562657Y-95917977D01*
X124599986Y-95985833D01*
X124617297Y-96022517D01*
X124617750Y-96024747D01*
X124634985Y-96051406D01*
X124680497Y-96107283D01*
X124745767Y-96182092D01*
X124773485Y-96212803D01*
X124948924Y-96401741D01*
X125095545Y-96550502D01*
X125217337Y-96661785D01*
X125318287Y-96738287D01*
X125402383Y-96782706D01*
X125473612Y-96797741D01*
X125535961Y-96786090D01*
X125581727Y-96759667D01*
X125647198Y-96689656D01*
X125713192Y-96584372D01*
X125770618Y-96461662D01*
X125810386Y-96339376D01*
X125819616Y-96292569D01*
X125835484Y-96212169D01*
X125854039Y-96153610D01*
X125861301Y-96140716D01*
X125873103Y-96102151D01*
X125886084Y-96019882D01*
X125899389Y-95904153D01*
X125912166Y-95765207D01*
X125923560Y-95613286D01*
X125932718Y-95458635D01*
X125938786Y-95311497D01*
X125940913Y-95185325D01*
X125944136Y-95073592D01*
X125952789Y-94983941D01*
X125965355Y-94930096D01*
X125969983Y-94922641D01*
X125984067Y-94880010D01*
X125991168Y-94792872D01*
X125990583Y-94670337D01*
X125990228Y-94660442D01*
X125987474Y-94545550D01*
X125990519Y-94476226D01*
X126000379Y-94444267D01*
X126017351Y-94441181D01*
X126066563Y-94450226D01*
X126142234Y-94454880D01*
X126159062Y-94455048D01*
X126264824Y-94455048D01*
X126264824Y-95016493D01*
X126263783Y-95185988D01*
X126260874Y-95337441D01*
X126256420Y-95462440D01*
X126250746Y-95552573D01*
X126244173Y-95599425D01*
X126242271Y-95603581D01*
X126232327Y-95638310D01*
X126220039Y-95716767D01*
X126206692Y-95828817D01*
X126193572Y-95964323D01*
X126187968Y-96031730D01*
X126174948Y-96175561D01*
X126160407Y-96301490D01*
X126145788Y-96399083D01*
X126132537Y-96457909D01*
X126127425Y-96468930D01*
X126106756Y-96522222D01*
X126104763Y-96565786D01*
X126102863Y-96633404D01*
X126094514Y-96668438D01*
X126081577Y-96715005D01*
X126064064Y-96796350D01*
X126047644Y-96884378D01*
X126028955Y-96978539D01*
X126010116Y-97051984D01*
X125996253Y-97086822D01*
X125975387Y-97131058D01*
X125956310Y-97194792D01*
X125934009Y-97263664D01*
X125897355Y-97352566D01*
X125853945Y-97445594D01*
X125811378Y-97526841D01*
X125777250Y-97580403D01*
X125767078Y-97590949D01*
X125739434Y-97625977D01*
X125704714Y-97688099D01*
X125699505Y-97698920D01*
X125644634Y-97772814D01*
X125568831Y-97802802D01*
X125470237Y-97788497D01*
X125346998Y-97729513D01*
X125197254Y-97625464D01*
X125144633Y-97583566D01*
X125031193Y-97486641D01*
X124912004Y-97377490D01*
X124793872Y-97263199D01*
X124683604Y-97150854D01*
X124588008Y-97047540D01*
X124513890Y-96960341D01*
X124468057Y-96896345D01*
X124456323Y-96867106D01*
X124439025Y-96820543D01*
X124409086Y-96780635D01*
X124381558Y-96748569D01*
X124351251Y-96705206D01*
X124312507Y-96641239D01*
X124259666Y-96547360D01*
X124193158Y-96425504D01*
X124093741Y-96238194D01*
X124020139Y-96091004D01*
X123973151Y-95985645D01*
X123953576Y-95923822D01*
X123953374Y-95912646D01*
X123941393Y-95883347D01*
X123909232Y-95832410D01*
X123874968Y-95770866D01*
X123861642Y-95724440D01*
X123849791Y-95678292D01*
X123820246Y-95603888D01*
X123794408Y-95548246D01*
X123757219Y-95464867D01*
X123733015Y-95395687D01*
X123727770Y-95367639D01*
X123713163Y-95318626D01*
X123700091Y-95305041D01*
X123684991Y-95271954D01*
X123688918Y-95261777D01*
X123688631Y-95220756D01*
X123677860Y-95202550D01*
X123655893Y-95158376D01*
X123630417Y-95082577D01*
X123617655Y-95035029D01*
X123595087Y-94952445D01*
X123574005Y-94891124D01*
X123565191Y-94873432D01*
X123550981Y-94834826D01*
X123532215Y-94758987D01*
X123512849Y-94661994D01*
X123512045Y-94657492D01*
X123492071Y-94554731D01*
X123472045Y-94467361D01*
X123456392Y-94414559D01*
X123439493Y-94355378D01*
X123422816Y-94269586D01*
X123417306Y-94232359D01*
X123400305Y-94104144D01*
X123597910Y-94104144D01*
G36*
X123328342Y-90749553D02*
X123345025Y-90686678D01*
X123347096Y-90682471D01*
X123358681Y-90638714D01*
X123372663Y-90553056D01*
X123387366Y-90437429D01*
X123401109Y-90303763D01*
X123402454Y-90288879D01*
X123415960Y-90154248D01*
X123430558Y-90036629D01*
X123444585Y-89947862D01*
X123456378Y-89899784D01*
X123457468Y-89897487D01*
X123472433Y-89850420D01*
X123490229Y-89766231D01*
X123507462Y-89661426D01*
X123510601Y-89639012D01*
X123526866Y-89534727D01*
X123543918Y-89450321D01*
X123558599Y-89400917D01*
X123561320Y-89396079D01*
X123576827Y-89356366D01*
X123596970Y-89279676D01*
X123617498Y-89182282D01*
X123618301Y-89178002D01*
X123639586Y-89079055D01*
X123661874Y-88999191D01*
X123680444Y-88955259D01*
X123680903Y-88954661D01*
X123695971Y-88915984D01*
X123691115Y-88903159D01*
X123688949Y-88870108D01*
X123696725Y-88856575D01*
X123713584Y-88816283D01*
X123735307Y-88739993D01*
X123755587Y-88651647D01*
X123779908Y-88549170D01*
X123806793Y-88459183D01*
X123826943Y-88408714D01*
X123853534Y-88342199D01*
X123862320Y-88295753D01*
X123872502Y-88238213D01*
X123893965Y-88174286D01*
X123917635Y-88116385D01*
X123929968Y-88084803D01*
X123942519Y-88052679D01*
X123965970Y-87995320D01*
X123988963Y-87930610D01*
X123998365Y-87887350D01*
X124009985Y-87844823D01*
X124038079Y-87776047D01*
X124051434Y-87747396D01*
X124083728Y-87673381D01*
X124102591Y-87616362D01*
X124104503Y-87603956D01*
X124115653Y-87561585D01*
X124143579Y-87488384D01*
X124172901Y-87420956D01*
X124209133Y-87336496D01*
X124233627Y-87269353D01*
X124240382Y-87240086D01*
X124252346Y-87196128D01*
X124281966Y-87129323D01*
X124290589Y-87112671D01*
X124329424Y-87032089D01*
X124358369Y-86958717D01*
X124360739Y-86951116D01*
X124383193Y-86889823D01*
X124420211Y-86802450D01*
X124451000Y-86735175D01*
X124488730Y-86654647D01*
X124515672Y-86595503D01*
X124525001Y-86573220D01*
X124550877Y-86501386D01*
X124594017Y-86403659D01*
X124646774Y-86295165D01*
X124701502Y-86191030D01*
X124750555Y-86106380D01*
X124786284Y-86056343D01*
X124786295Y-86056332D01*
X124828322Y-85992367D01*
X124850783Y-85932833D01*
X124873907Y-85869064D01*
X124915306Y-85781106D01*
X124953960Y-85709458D01*
X125006871Y-85612698D01*
X125053981Y-85518761D01*
X125077330Y-85466525D01*
X125109996Y-85395183D01*
X125159397Y-85297967D01*
X125214996Y-85195592D01*
X125216476Y-85192966D01*
X125268381Y-85095937D01*
X125310393Y-85008263D01*
X125334040Y-84947721D01*
X125334933Y-84944392D01*
X125362194Y-84879348D01*
X125390214Y-84843498D01*
X125422869Y-84800607D01*
X125428055Y-84780276D01*
X125441950Y-84743478D01*
X125478625Y-84675734D01*
X125530564Y-84590781D01*
X125538330Y-84578750D01*
X125610231Y-84462025D01*
X125686949Y-84328157D01*
X125743382Y-84222480D01*
X125791182Y-84134149D01*
X125832329Y-84068411D01*
X125859303Y-84037040D01*
X125862544Y-84035919D01*
X125885636Y-84053314D01*
X125873354Y-84092830D01*
X125863990Y-84104750D01*
X125854818Y-84138839D01*
X125843486Y-84217666D01*
X125831007Y-84332076D01*
X125818391Y-84472914D01*
X125807975Y-84611529D01*
X125795818Y-84784056D01*
X125785263Y-84912559D01*
X125774379Y-85006880D01*
X125761237Y-85076866D01*
X125743909Y-85132360D01*
X125720465Y-85183207D01*
X125688976Y-85239251D01*
X125682940Y-85249567D01*
X125630977Y-85340734D01*
X125587178Y-85421995D01*
X125563568Y-85470237D01*
X125532537Y-85536309D01*
X125511981Y-85574495D01*
X125487875Y-85618745D01*
X125448767Y-85694355D01*
X125407139Y-85776939D01*
X125357913Y-85875054D01*
X125311749Y-85965881D01*
X125283808Y-86019872D01*
X125257213Y-86072408D01*
X125215617Y-86156909D01*
X125164064Y-86262879D01*
X125107595Y-86379820D01*
X125051254Y-86497234D01*
X125000082Y-86604624D01*
X124959122Y-86691494D01*
X124933416Y-86747345D01*
X124927242Y-86762168D01*
X124915037Y-86793169D01*
X124888781Y-86854005D01*
X124879015Y-86876019D01*
X124850353Y-86948680D01*
X124835022Y-87004004D01*
X124834218Y-87012640D01*
X124817069Y-87057141D01*
X124778400Y-87108820D01*
X124734609Y-87178436D01*
X124707448Y-87261992D01*
X124707387Y-87262369D01*
X124692499Y-87324362D01*
X124675622Y-87355233D01*
X124673042Y-87356004D01*
X124657541Y-87380066D01*
X124636871Y-87442475D01*
X124619763Y-87511211D01*
X124596234Y-87606976D01*
X124571904Y-87688698D01*
X124558081Y-87724956D01*
X124541930Y-87794322D01*
X124542910Y-87867855D01*
X124545150Y-87930497D01*
X124533497Y-87965642D01*
X124532800Y-87966118D01*
X124519084Y-87999296D01*
X124511119Y-88066363D01*
X124510308Y-88098299D01*
X124515005Y-88173331D01*
X124526822Y-88222519D01*
X124532800Y-88230481D01*
X124544940Y-88264068D01*
X124543287Y-88326098D01*
X124542910Y-88328744D01*
X124542948Y-88408712D01*
X124559138Y-88471643D01*
X124578230Y-88528256D01*
X124599664Y-88617875D01*
X124616890Y-88710028D01*
X124638151Y-88815822D01*
X124664253Y-88910756D01*
X124685974Y-88966458D01*
X124714618Y-89035619D01*
X124726082Y-89090276D01*
X124735879Y-89130380D01*
X124746652Y-89137513D01*
X124769610Y-89159789D01*
X124799414Y-89214484D01*
X124804110Y-89225239D01*
X124903987Y-89438808D01*
X125026536Y-89664770D01*
X125163131Y-89889405D01*
X125305143Y-90098998D01*
X125443944Y-90279831D01*
X125526064Y-90373035D01*
X125595333Y-90447493D01*
X125648454Y-90506862D01*
X125675817Y-90540346D01*
X125677391Y-90543078D01*
X125702333Y-90571187D01*
X125759081Y-90622850D01*
X125836596Y-90688778D01*
X125923840Y-90759681D01*
X126009772Y-90826270D01*
X126043952Y-90851541D01*
X126155578Y-90932518D01*
X126156216Y-91144637D01*
X126155790Y-91250340D01*
X126151633Y-91312363D01*
X126140607Y-91341007D01*
X126119577Y-91346572D01*
X126096121Y-91341986D01*
X126037646Y-91331624D01*
X125946780Y-91319558D01*
X125859936Y-91310107D01*
X125759776Y-91297787D01*
X125675206Y-91282895D01*
X125630499Y-91270682D01*
X125612914Y-91266506D01*
X125612914Y-90808525D01*
X125644303Y-90799728D01*
X125641672Y-90777314D01*
X125609873Y-90739805D01*
X125553760Y-90685724D01*
X125549521Y-90681727D01*
X125463647Y-90596561D01*
X125363762Y-90491343D01*
X125270270Y-90387614D01*
X125262868Y-90379089D01*
X125176715Y-90273330D01*
X125079304Y-90144312D01*
X124987624Y-90014781D01*
X124960525Y-89974282D01*
X124892730Y-89872426D01*
X124832337Y-89784198D01*
X124787721Y-89721707D01*
X124771689Y-89701237D01*
X124747077Y-89663332D01*
X124707227Y-89592215D01*
X124659141Y-89501563D01*
X124609820Y-89405049D01*
X124566268Y-89316349D01*
X124535486Y-89249137D01*
X124524506Y-89218491D01*
X124511576Y-89185306D01*
X124507623Y-89178002D01*
X124493926Y-89138742D01*
X124473982Y-89064279D01*
X124456269Y-88989054D01*
X124433709Y-88898322D01*
X124411849Y-88827890D01*
X124398318Y-88797956D01*
X124386401Y-88759159D01*
X124373558Y-88680826D01*
X124361968Y-88577314D01*
X124358377Y-88534778D01*
X124348474Y-88430038D01*
X124337333Y-88349512D01*
X124326806Y-88305440D01*
X124322976Y-88300744D01*
X124306587Y-88324344D01*
X124284215Y-88384489D01*
X124271575Y-88427826D01*
X124242624Y-88523951D01*
X124210713Y-88612873D01*
X124200541Y-88637018D01*
X124173520Y-88711916D01*
X124146003Y-88811137D01*
X124133690Y-88865746D01*
X124113075Y-88952468D01*
X124092007Y-89018373D01*
X124080585Y-89041198D01*
X124063066Y-89081692D01*
X124041402Y-89157298D01*
X124024442Y-89231987D01*
X124002642Y-89323840D01*
X123979760Y-89396128D01*
X123964511Y-89427339D01*
X123949410Y-89479319D01*
X123954028Y-89504005D01*
X123957929Y-89558626D01*
X123950314Y-89578578D01*
X123933324Y-89625197D01*
X123913543Y-89709035D01*
X123893903Y-89813628D01*
X123877337Y-89922515D01*
X123866775Y-90019232D01*
X123864619Y-90059759D01*
X123857564Y-90126743D01*
X123842892Y-90165282D01*
X123839431Y-90167729D01*
X123826197Y-90197017D01*
X123812184Y-90266298D01*
X123800073Y-90361690D01*
X123798276Y-90380857D01*
X123780175Y-90584987D01*
X124259960Y-90632817D01*
X124417386Y-90649127D01*
X124557763Y-90664829D01*
X124671591Y-90678770D01*
X124749372Y-90689793D01*
X124780233Y-90696076D01*
X124836150Y-90709901D01*
X124901700Y-90719212D01*
X124962280Y-90726294D01*
X125060695Y-90739208D01*
X125181382Y-90755871D01*
X125266099Y-90767972D01*
X125428665Y-90791170D01*
X125542653Y-90805179D01*
X125612914Y-90808525D01*
X125612914Y-91266506D01*
X125583823Y-91259597D01*
X125491675Y-91244545D01*
X125362336Y-91226565D01*
X125204089Y-91206695D01*
X125025213Y-91185973D01*
X124833989Y-91165437D01*
X124638700Y-91146126D01*
X124631774Y-91145474D01*
X124533770Y-91133895D01*
X124456499Y-91120418D01*
X124416281Y-91107904D01*
X124415834Y-91107586D01*
X124377499Y-91095672D01*
X124300568Y-91082428D01*
X124200293Y-91070382D01*
X124179649Y-91068418D01*
X124081207Y-91057128D01*
X124007666Y-91044254D01*
X123971959Y-91032191D01*
X123970457Y-91029697D01*
X123945374Y-91019195D01*
X123877330Y-91005703D01*
X123777134Y-90991065D01*
X123672296Y-90978840D01*
X123549678Y-90964887D01*
X123446585Y-90951038D01*
X123375097Y-90939049D01*
X123348385Y-90931750D01*
X123330137Y-90894243D01*
X123323418Y-90826126D01*
X123328342Y-90749553D01*
X123328342Y-90749553D01*
G37*
X123328342Y-90749553D02*
X123345025Y-90686678D01*
X123347096Y-90682471D01*
X123358681Y-90638714D01*
X123372663Y-90553056D01*
X123387366Y-90437429D01*
X123401109Y-90303763D01*
X123402454Y-90288879D01*
X123415960Y-90154248D01*
X123430558Y-90036629D01*
X123444585Y-89947862D01*
X123456378Y-89899784D01*
X123457468Y-89897487D01*
X123472433Y-89850420D01*
X123490229Y-89766231D01*
X123507462Y-89661426D01*
X123510601Y-89639012D01*
X123526866Y-89534727D01*
X123543918Y-89450321D01*
X123558599Y-89400917D01*
X123561320Y-89396079D01*
X123576827Y-89356366D01*
X123596970Y-89279676D01*
X123617498Y-89182282D01*
X123618301Y-89178002D01*
X123639586Y-89079055D01*
X123661874Y-88999191D01*
X123680444Y-88955259D01*
X123680903Y-88954661D01*
X123695971Y-88915984D01*
X123691115Y-88903159D01*
X123688949Y-88870108D01*
X123696725Y-88856575D01*
X123713584Y-88816283D01*
X123735307Y-88739993D01*
X123755587Y-88651647D01*
X123779908Y-88549170D01*
X123806793Y-88459183D01*
X123826943Y-88408714D01*
X123853534Y-88342199D01*
X123862320Y-88295753D01*
X123872502Y-88238213D01*
X123893965Y-88174286D01*
X123917635Y-88116385D01*
X123929968Y-88084803D01*
X123942519Y-88052679D01*
X123965970Y-87995320D01*
X123988963Y-87930610D01*
X123998365Y-87887350D01*
X124009985Y-87844823D01*
X124038079Y-87776047D01*
X124051434Y-87747396D01*
X124083728Y-87673381D01*
X124102591Y-87616362D01*
X124104503Y-87603956D01*
X124115653Y-87561585D01*
X124143579Y-87488384D01*
X124172901Y-87420956D01*
X124209133Y-87336496D01*
X124233627Y-87269353D01*
X124240382Y-87240086D01*
X124252346Y-87196128D01*
X124281966Y-87129323D01*
X124290589Y-87112671D01*
X124329424Y-87032089D01*
X124358369Y-86958717D01*
X124360739Y-86951116D01*
X124383193Y-86889823D01*
X124420211Y-86802450D01*
X124451000Y-86735175D01*
X124488730Y-86654647D01*
X124515672Y-86595503D01*
X124525001Y-86573220D01*
X124550877Y-86501386D01*
X124594017Y-86403659D01*
X124646774Y-86295165D01*
X124701502Y-86191030D01*
X124750555Y-86106380D01*
X124786284Y-86056343D01*
X124786295Y-86056332D01*
X124828322Y-85992367D01*
X124850783Y-85932833D01*
X124873907Y-85869064D01*
X124915306Y-85781106D01*
X124953960Y-85709458D01*
X125006871Y-85612698D01*
X125053981Y-85518761D01*
X125077330Y-85466525D01*
X125109996Y-85395183D01*
X125159397Y-85297967D01*
X125214996Y-85195592D01*
X125216476Y-85192966D01*
X125268381Y-85095937D01*
X125310393Y-85008263D01*
X125334040Y-84947721D01*
X125334933Y-84944392D01*
X125362194Y-84879348D01*
X125390214Y-84843498D01*
X125422869Y-84800607D01*
X125428055Y-84780276D01*
X125441950Y-84743478D01*
X125478625Y-84675734D01*
X125530564Y-84590781D01*
X125538330Y-84578750D01*
X125610231Y-84462025D01*
X125686949Y-84328157D01*
X125743382Y-84222480D01*
X125791182Y-84134149D01*
X125832329Y-84068411D01*
X125859303Y-84037040D01*
X125862544Y-84035919D01*
X125885636Y-84053314D01*
X125873354Y-84092830D01*
X125863990Y-84104750D01*
X125854818Y-84138839D01*
X125843486Y-84217666D01*
X125831007Y-84332076D01*
X125818391Y-84472914D01*
X125807975Y-84611529D01*
X125795818Y-84784056D01*
X125785263Y-84912559D01*
X125774379Y-85006880D01*
X125761237Y-85076866D01*
X125743909Y-85132360D01*
X125720465Y-85183207D01*
X125688976Y-85239251D01*
X125682940Y-85249567D01*
X125630977Y-85340734D01*
X125587178Y-85421995D01*
X125563568Y-85470237D01*
X125532537Y-85536309D01*
X125511981Y-85574495D01*
X125487875Y-85618745D01*
X125448767Y-85694355D01*
X125407139Y-85776939D01*
X125357913Y-85875054D01*
X125311749Y-85965881D01*
X125283808Y-86019872D01*
X125257213Y-86072408D01*
X125215617Y-86156909D01*
X125164064Y-86262879D01*
X125107595Y-86379820D01*
X125051254Y-86497234D01*
X125000082Y-86604624D01*
X124959122Y-86691494D01*
X124933416Y-86747345D01*
X124927242Y-86762168D01*
X124915037Y-86793169D01*
X124888781Y-86854005D01*
X124879015Y-86876019D01*
X124850353Y-86948680D01*
X124835022Y-87004004D01*
X124834218Y-87012640D01*
X124817069Y-87057141D01*
X124778400Y-87108820D01*
X124734609Y-87178436D01*
X124707448Y-87261992D01*
X124707387Y-87262369D01*
X124692499Y-87324362D01*
X124675622Y-87355233D01*
X124673042Y-87356004D01*
X124657541Y-87380066D01*
X124636871Y-87442475D01*
X124619763Y-87511211D01*
X124596234Y-87606976D01*
X124571904Y-87688698D01*
X124558081Y-87724956D01*
X124541930Y-87794322D01*
X124542910Y-87867855D01*
X124545150Y-87930497D01*
X124533497Y-87965642D01*
X124532800Y-87966118D01*
X124519084Y-87999296D01*
X124511119Y-88066363D01*
X124510308Y-88098299D01*
X124515005Y-88173331D01*
X124526822Y-88222519D01*
X124532800Y-88230481D01*
X124544940Y-88264068D01*
X124543287Y-88326098D01*
X124542910Y-88328744D01*
X124542948Y-88408712D01*
X124559138Y-88471643D01*
X124578230Y-88528256D01*
X124599664Y-88617875D01*
X124616890Y-88710028D01*
X124638151Y-88815822D01*
X124664253Y-88910756D01*
X124685974Y-88966458D01*
X124714618Y-89035619D01*
X124726082Y-89090276D01*
X124735879Y-89130380D01*
X124746652Y-89137513D01*
X124769610Y-89159789D01*
X124799414Y-89214484D01*
X124804110Y-89225239D01*
X124903987Y-89438808D01*
X125026536Y-89664770D01*
X125163131Y-89889405D01*
X125305143Y-90098998D01*
X125443944Y-90279831D01*
X125526064Y-90373035D01*
X125595333Y-90447493D01*
X125648454Y-90506862D01*
X125675817Y-90540346D01*
X125677391Y-90543078D01*
X125702333Y-90571187D01*
X125759081Y-90622850D01*
X125836596Y-90688778D01*
X125923840Y-90759681D01*
X126009772Y-90826270D01*
X126043952Y-90851541D01*
X126155578Y-90932518D01*
X126156216Y-91144637D01*
X126155790Y-91250340D01*
X126151633Y-91312363D01*
X126140607Y-91341007D01*
X126119577Y-91346572D01*
X126096121Y-91341986D01*
X126037646Y-91331624D01*
X125946780Y-91319558D01*
X125859936Y-91310107D01*
X125759776Y-91297787D01*
X125675206Y-91282895D01*
X125630499Y-91270682D01*
X125612914Y-91266506D01*
X125612914Y-90808525D01*
X125644303Y-90799728D01*
X125641672Y-90777314D01*
X125609873Y-90739805D01*
X125553760Y-90685724D01*
X125549521Y-90681727D01*
X125463647Y-90596561D01*
X125363762Y-90491343D01*
X125270270Y-90387614D01*
X125262868Y-90379089D01*
X125176715Y-90273330D01*
X125079304Y-90144312D01*
X124987624Y-90014781D01*
X124960525Y-89974282D01*
X124892730Y-89872426D01*
X124832337Y-89784198D01*
X124787721Y-89721707D01*
X124771689Y-89701237D01*
X124747077Y-89663332D01*
X124707227Y-89592215D01*
X124659141Y-89501563D01*
X124609820Y-89405049D01*
X124566268Y-89316349D01*
X124535486Y-89249137D01*
X124524506Y-89218491D01*
X124511576Y-89185306D01*
X124507623Y-89178002D01*
X124493926Y-89138742D01*
X124473982Y-89064279D01*
X124456269Y-88989054D01*
X124433709Y-88898322D01*
X124411849Y-88827890D01*
X124398318Y-88797956D01*
X124386401Y-88759159D01*
X124373558Y-88680826D01*
X124361968Y-88577314D01*
X124358377Y-88534778D01*
X124348474Y-88430038D01*
X124337333Y-88349512D01*
X124326806Y-88305440D01*
X124322976Y-88300744D01*
X124306587Y-88324344D01*
X124284215Y-88384489D01*
X124271575Y-88427826D01*
X124242624Y-88523951D01*
X124210713Y-88612873D01*
X124200541Y-88637018D01*
X124173520Y-88711916D01*
X124146003Y-88811137D01*
X124133690Y-88865746D01*
X124113075Y-88952468D01*
X124092007Y-89018373D01*
X124080585Y-89041198D01*
X124063066Y-89081692D01*
X124041402Y-89157298D01*
X124024442Y-89231987D01*
X124002642Y-89323840D01*
X123979760Y-89396128D01*
X123964511Y-89427339D01*
X123949410Y-89479319D01*
X123954028Y-89504005D01*
X123957929Y-89558626D01*
X123950314Y-89578578D01*
X123933324Y-89625197D01*
X123913543Y-89709035D01*
X123893903Y-89813628D01*
X123877337Y-89922515D01*
X123866775Y-90019232D01*
X123864619Y-90059759D01*
X123857564Y-90126743D01*
X123842892Y-90165282D01*
X123839431Y-90167729D01*
X123826197Y-90197017D01*
X123812184Y-90266298D01*
X123800073Y-90361690D01*
X123798276Y-90380857D01*
X123780175Y-90584987D01*
X124259960Y-90632817D01*
X124417386Y-90649127D01*
X124557763Y-90664829D01*
X124671591Y-90678770D01*
X124749372Y-90689793D01*
X124780233Y-90696076D01*
X124836150Y-90709901D01*
X124901700Y-90719212D01*
X124962280Y-90726294D01*
X125060695Y-90739208D01*
X125181382Y-90755871D01*
X125266099Y-90767972D01*
X125428665Y-90791170D01*
X125542653Y-90805179D01*
X125612914Y-90808525D01*
X125612914Y-91266506D01*
X125583823Y-91259597D01*
X125491675Y-91244545D01*
X125362336Y-91226565D01*
X125204089Y-91206695D01*
X125025213Y-91185973D01*
X124833989Y-91165437D01*
X124638700Y-91146126D01*
X124631774Y-91145474D01*
X124533770Y-91133895D01*
X124456499Y-91120418D01*
X124416281Y-91107904D01*
X124415834Y-91107586D01*
X124377499Y-91095672D01*
X124300568Y-91082428D01*
X124200293Y-91070382D01*
X124179649Y-91068418D01*
X124081207Y-91057128D01*
X124007666Y-91044254D01*
X123971959Y-91032191D01*
X123970457Y-91029697D01*
X123945374Y-91019195D01*
X123877330Y-91005703D01*
X123777134Y-90991065D01*
X123672296Y-90978840D01*
X123549678Y-90964887D01*
X123446585Y-90951038D01*
X123375097Y-90939049D01*
X123348385Y-90931750D01*
X123330137Y-90894243D01*
X123323418Y-90826126D01*
X123328342Y-90749553D01*
G36*
X121379171Y-87760892D02*
X121379171Y-91458873D01*
X120488416Y-91458873D01*
X120488416Y-87760892D01*
X121379171Y-87760892D01*
X121379171Y-87760892D01*
G37*
X121379171Y-87760892D02*
X121379171Y-91458873D01*
X120488416Y-91458873D01*
X120488416Y-87760892D01*
X121379171Y-87760892D01*
G36*
X117321333Y-85034839D02*
X117322018Y-84980659D01*
X117329577Y-84779809D01*
X117345394Y-84581691D01*
X117367562Y-84408223D01*
X117376003Y-84359830D01*
X117424760Y-84103400D01*
X117640701Y-84085820D01*
X117744103Y-84079048D01*
X117826131Y-84076739D01*
X117872461Y-84079206D01*
X117876886Y-84080665D01*
X117901764Y-84122452D01*
X117890129Y-84181918D01*
X117847763Y-84243196D01*
X117805265Y-84277240D01*
X117656936Y-84394120D01*
X117552435Y-84536181D01*
X117490023Y-84707276D01*
X117467964Y-84911260D01*
X117470985Y-85018696D01*
X117508980Y-85247940D01*
X117590701Y-85446119D01*
X117714791Y-85611866D01*
X117879892Y-85743810D01*
X118084646Y-85840584D01*
X118327696Y-85900820D01*
X118349250Y-85904091D01*
X118607411Y-85919453D01*
X118848715Y-85890631D01*
X119068298Y-85820557D01*
X119261300Y-85712162D01*
X119422857Y-85568376D01*
X119548107Y-85392130D01*
X119632187Y-85186357D01*
X119648289Y-85121041D01*
X119673132Y-84969074D01*
X119674193Y-84840780D01*
X119650863Y-84711069D01*
X119637105Y-84661647D01*
X119595570Y-84521785D01*
X119316834Y-84521785D01*
X119185967Y-84523168D01*
X119096571Y-84528645D01*
X119036174Y-84540213D01*
X118992302Y-84559864D01*
X118966977Y-84577729D01*
X118918023Y-84626880D01*
X118895956Y-84670064D01*
X118895855Y-84672203D01*
X118872351Y-84702649D01*
X118828374Y-84710733D01*
X118760892Y-84710733D01*
X118760892Y-84332837D01*
X118761458Y-84182575D01*
X118763838Y-84078128D01*
X118769051Y-84011332D01*
X118778119Y-83974023D01*
X118792063Y-83958036D01*
X118808129Y-83955112D01*
X118852571Y-83976901D01*
X118897606Y-84029767D01*
X118901348Y-84036090D01*
X118947329Y-84116897D01*
X119313652Y-84116897D01*
X119465548Y-84116350D01*
X119572859Y-84119437D01*
X119644876Y-84133247D01*
X119690891Y-84164869D01*
X119720192Y-84221393D01*
X119742071Y-84309907D01*
X119765818Y-84437502D01*
X119771170Y-84466022D01*
X119799078Y-84646226D01*
X119818014Y-84837475D01*
X119827209Y-85023958D01*
X119825895Y-85189865D01*
X119813304Y-85319386D01*
X119812805Y-85322204D01*
X119742547Y-85578993D01*
X119630628Y-85811376D01*
X119481413Y-86013132D01*
X119299267Y-86178044D01*
X119145517Y-86272869D01*
X118910713Y-86363364D01*
X118664569Y-86404523D01*
X118415495Y-86397254D01*
X118171900Y-86342463D01*
X117942195Y-86241058D01*
X117771183Y-86124638D01*
X117652538Y-86005512D01*
X117538613Y-85849596D01*
X117440438Y-85673716D01*
X117379870Y-85527696D01*
X117353477Y-85444778D01*
X117335898Y-85367945D01*
X117325661Y-85283284D01*
X117321297Y-85176886D01*
X117321333Y-85034839D01*
X117321333Y-85034839D01*
G37*
X117321333Y-85034839D02*
X117322018Y-84980659D01*
X117329577Y-84779809D01*
X117345394Y-84581691D01*
X117367562Y-84408223D01*
X117376003Y-84359830D01*
X117424760Y-84103400D01*
X117640701Y-84085820D01*
X117744103Y-84079048D01*
X117826131Y-84076739D01*
X117872461Y-84079206D01*
X117876886Y-84080665D01*
X117901764Y-84122452D01*
X117890129Y-84181918D01*
X117847763Y-84243196D01*
X117805265Y-84277240D01*
X117656936Y-84394120D01*
X117552435Y-84536181D01*
X117490023Y-84707276D01*
X117467964Y-84911260D01*
X117470985Y-85018696D01*
X117508980Y-85247940D01*
X117590701Y-85446119D01*
X117714791Y-85611866D01*
X117879892Y-85743810D01*
X118084646Y-85840584D01*
X118327696Y-85900820D01*
X118349250Y-85904091D01*
X118607411Y-85919453D01*
X118848715Y-85890631D01*
X119068298Y-85820557D01*
X119261300Y-85712162D01*
X119422857Y-85568376D01*
X119548107Y-85392130D01*
X119632187Y-85186357D01*
X119648289Y-85121041D01*
X119673132Y-84969074D01*
X119674193Y-84840780D01*
X119650863Y-84711069D01*
X119637105Y-84661647D01*
X119595570Y-84521785D01*
X119316834Y-84521785D01*
X119185967Y-84523168D01*
X119096571Y-84528645D01*
X119036174Y-84540213D01*
X118992302Y-84559864D01*
X118966977Y-84577729D01*
X118918023Y-84626880D01*
X118895956Y-84670064D01*
X118895855Y-84672203D01*
X118872351Y-84702649D01*
X118828374Y-84710733D01*
X118760892Y-84710733D01*
X118760892Y-84332837D01*
X118761458Y-84182575D01*
X118763838Y-84078128D01*
X118769051Y-84011332D01*
X118778119Y-83974023D01*
X118792063Y-83958036D01*
X118808129Y-83955112D01*
X118852571Y-83976901D01*
X118897606Y-84029767D01*
X118901348Y-84036090D01*
X118947329Y-84116897D01*
X119313652Y-84116897D01*
X119465548Y-84116350D01*
X119572859Y-84119437D01*
X119644876Y-84133247D01*
X119690891Y-84164869D01*
X119720192Y-84221393D01*
X119742071Y-84309907D01*
X119765818Y-84437502D01*
X119771170Y-84466022D01*
X119799078Y-84646226D01*
X119818014Y-84837475D01*
X119827209Y-85023958D01*
X119825895Y-85189865D01*
X119813304Y-85319386D01*
X119812805Y-85322204D01*
X119742547Y-85578993D01*
X119630628Y-85811376D01*
X119481413Y-86013132D01*
X119299267Y-86178044D01*
X119145517Y-86272869D01*
X118910713Y-86363364D01*
X118664569Y-86404523D01*
X118415495Y-86397254D01*
X118171900Y-86342463D01*
X117942195Y-86241058D01*
X117771183Y-86124638D01*
X117652538Y-86005512D01*
X117538613Y-85849596D01*
X117440438Y-85673716D01*
X117379870Y-85527696D01*
X117353477Y-85444778D01*
X117335898Y-85367945D01*
X117325661Y-85283284D01*
X117321297Y-85176886D01*
X117321333Y-85034839D01*
G36*
X117382195Y-90525591D02*
X117405678Y-90487337D01*
X117443826Y-90452024D01*
X117493426Y-90432230D01*
X117561119Y-90428846D01*
X117653550Y-90442764D01*
X117777363Y-90474875D01*
X117939200Y-90526071D01*
X118096758Y-90580053D01*
X118240803Y-90629777D01*
X118367882Y-90672433D01*
X118468920Y-90705072D01*
X118534841Y-90724743D01*
X118555631Y-90729219D01*
X118556149Y-90715161D01*
X118520843Y-90681172D01*
X118504463Y-90668562D01*
X118328184Y-90527759D01*
X118146042Y-90363380D01*
X117966847Y-90184924D01*
X117799409Y-90001888D01*
X117652539Y-89823774D01*
X117535047Y-89660078D01*
X117474347Y-89557921D01*
X117403525Y-89394375D01*
X117370727Y-89248248D01*
X117376541Y-89125786D01*
X117421553Y-89033238D01*
X117424688Y-89029679D01*
X117459195Y-89001376D01*
X117504870Y-88985948D01*
X117568266Y-88984396D01*
X117655936Y-88997722D01*
X117774432Y-89026926D01*
X117930309Y-89073011D01*
X118130119Y-89136978D01*
X118132981Y-89137914D01*
X118274318Y-89183602D01*
X118398309Y-89222642D01*
X118495594Y-89252169D01*
X118556811Y-89269317D01*
X118572549Y-89272476D01*
X118570522Y-89257418D01*
X118534644Y-89218837D01*
X118498654Y-89187024D01*
X118390655Y-89091164D01*
X118263421Y-88969444D01*
X118125491Y-88830928D01*
X117985404Y-88684678D01*
X117851698Y-88539758D01*
X117732913Y-88405231D01*
X117637587Y-88290159D01*
X117579103Y-88211012D01*
X117472637Y-88031250D01*
X117403345Y-87870550D01*
X117370898Y-87732378D01*
X117374969Y-87620198D01*
X117415229Y-87537478D01*
X117491350Y-87487682D01*
X117603003Y-87474278D01*
X117648480Y-87478553D01*
X117741065Y-87497161D01*
X117852639Y-87527436D01*
X117918405Y-87548767D01*
X118227532Y-87657109D01*
X118489773Y-87748260D01*
X118709008Y-87823399D01*
X118889115Y-87883707D01*
X119033972Y-87930363D01*
X119147458Y-87964546D01*
X119233451Y-87987438D01*
X119295829Y-88000217D01*
X119338471Y-88004064D01*
X119365255Y-88000158D01*
X119377491Y-87992632D01*
X119402552Y-87960426D01*
X119402657Y-87925016D01*
X119376439Y-87866953D01*
X119367491Y-87850117D01*
X119320734Y-87777535D01*
X119252061Y-87687489D01*
X119186025Y-87610377D01*
X119106014Y-87513307D01*
X119064748Y-87441041D01*
X119063406Y-87396631D01*
X119098010Y-87382997D01*
X119139995Y-87402624D01*
X119207738Y-87455872D01*
X119293170Y-87534284D01*
X119388222Y-87629408D01*
X119484827Y-87732789D01*
X119574915Y-87835973D01*
X119650419Y-87930505D01*
X119703270Y-88007932D01*
X119714895Y-88029370D01*
X119766462Y-88164035D01*
X119787964Y-88288351D01*
X119779124Y-88391808D01*
X119739665Y-88463897D01*
X119726618Y-88474665D01*
X119687510Y-88497894D01*
X119645370Y-88510058D01*
X119591818Y-88509733D01*
X119518474Y-88495496D01*
X119416956Y-88465924D01*
X119278884Y-88419593D01*
X119163247Y-88378997D01*
X118876379Y-88277655D01*
X118635922Y-88193341D01*
X118437526Y-88124715D01*
X118276840Y-88070431D01*
X118149512Y-88029149D01*
X118051191Y-87999524D01*
X117977526Y-87980214D01*
X117924166Y-87969877D01*
X117886760Y-87967168D01*
X117860957Y-87970747D01*
X117851625Y-87974207D01*
X117799660Y-88022668D01*
X117788140Y-88098437D01*
X117813679Y-88197310D01*
X117872888Y-88315081D01*
X117962380Y-88447546D01*
X118078769Y-88590502D01*
X118218665Y-88739742D01*
X118378682Y-88891063D01*
X118555432Y-89040259D01*
X118745528Y-89183127D01*
X118918821Y-89298807D01*
X118999869Y-89344222D01*
X119116099Y-89402214D01*
X119252462Y-89465571D01*
X119393911Y-89527086D01*
X119404687Y-89531584D01*
X119571251Y-89604791D01*
X119690783Y-89668644D01*
X119768136Y-89728695D01*
X119808164Y-89790496D01*
X119815721Y-89859600D01*
X119795660Y-89941560D01*
X119785768Y-89967534D01*
X119759198Y-90014189D01*
X119739736Y-90028268D01*
X119709712Y-90020019D01*
X119634838Y-89996644D01*
X119521446Y-89960201D01*
X119375864Y-89912745D01*
X119204420Y-89856335D01*
X119013445Y-89793027D01*
X118913257Y-89759645D01*
X118653907Y-89673659D01*
X118440609Y-89604457D01*
X118268517Y-89550827D01*
X118132784Y-89511557D01*
X118028565Y-89485436D01*
X117951013Y-89471252D01*
X117895284Y-89467793D01*
X117856531Y-89473848D01*
X117829909Y-89488204D01*
X117829404Y-89488620D01*
X117788870Y-89555058D01*
X117792240Y-89647971D01*
X117838088Y-89764520D01*
X117924984Y-89901866D01*
X118051502Y-90057168D01*
X118186368Y-90198452D01*
X118462792Y-90452348D01*
X118735233Y-90661732D01*
X119014983Y-90833870D01*
X119313335Y-90976027D01*
X119514414Y-91052929D01*
X119618598Y-91092437D01*
X119703121Y-91129866D01*
X119754881Y-91159186D01*
X119763682Y-91167608D01*
X119781741Y-91226680D01*
X119785780Y-91308315D01*
X119777002Y-91389583D01*
X119756612Y-91447553D01*
X119748493Y-91456904D01*
X119727547Y-91462475D01*
X119685462Y-91458613D01*
X119617715Y-91444043D01*
X119519782Y-91417492D01*
X119387139Y-91377685D01*
X119215263Y-91323348D01*
X118999630Y-91253209D01*
X118849696Y-91203780D01*
X118640901Y-91135543D01*
X118445151Y-91073173D01*
X118269170Y-91018688D01*
X118119681Y-90974110D01*
X118003409Y-90941457D01*
X117927077Y-90922749D01*
X117901736Y-90919022D01*
X117824511Y-90934770D01*
X117789727Y-90979909D01*
X117796755Y-91051285D01*
X117844968Y-91145739D01*
X117933735Y-91260117D01*
X117979598Y-91309847D01*
X118069919Y-91408136D01*
X118121199Y-91475776D01*
X118135450Y-91517175D01*
X118114681Y-91536745D01*
X118084413Y-91539851D01*
X118038710Y-91520263D01*
X117967315Y-91467096D01*
X117878489Y-91388742D01*
X117780491Y-91293593D01*
X117681582Y-91190041D01*
X117590020Y-91086481D01*
X117514067Y-90991304D01*
X117461981Y-90912903D01*
X117455671Y-90901008D01*
X117390013Y-90745581D01*
X117365643Y-90621454D01*
X117382195Y-90525591D01*
X117382195Y-90525591D01*
G37*
X117382195Y-90525591D02*
X117405678Y-90487337D01*
X117443826Y-90452024D01*
X117493426Y-90432230D01*
X117561119Y-90428846D01*
X117653550Y-90442764D01*
X117777363Y-90474875D01*
X117939200Y-90526071D01*
X118096758Y-90580053D01*
X118240803Y-90629777D01*
X118367882Y-90672433D01*
X118468920Y-90705072D01*
X118534841Y-90724743D01*
X118555631Y-90729219D01*
X118556149Y-90715161D01*
X118520843Y-90681172D01*
X118504463Y-90668562D01*
X118328184Y-90527759D01*
X118146042Y-90363380D01*
X117966847Y-90184924D01*
X117799409Y-90001888D01*
X117652539Y-89823774D01*
X117535047Y-89660078D01*
X117474347Y-89557921D01*
X117403525Y-89394375D01*
X117370727Y-89248248D01*
X117376541Y-89125786D01*
X117421553Y-89033238D01*
X117424688Y-89029679D01*
X117459195Y-89001376D01*
X117504870Y-88985948D01*
X117568266Y-88984396D01*
X117655936Y-88997722D01*
X117774432Y-89026926D01*
X117930309Y-89073011D01*
X118130119Y-89136978D01*
X118132981Y-89137914D01*
X118274318Y-89183602D01*
X118398309Y-89222642D01*
X118495594Y-89252169D01*
X118556811Y-89269317D01*
X118572549Y-89272476D01*
X118570522Y-89257418D01*
X118534644Y-89218837D01*
X118498654Y-89187024D01*
X118390655Y-89091164D01*
X118263421Y-88969444D01*
X118125491Y-88830928D01*
X117985404Y-88684678D01*
X117851698Y-88539758D01*
X117732913Y-88405231D01*
X117637587Y-88290159D01*
X117579103Y-88211012D01*
X117472637Y-88031250D01*
X117403345Y-87870550D01*
X117370898Y-87732378D01*
X117374969Y-87620198D01*
X117415229Y-87537478D01*
X117491350Y-87487682D01*
X117603003Y-87474278D01*
X117648480Y-87478553D01*
X117741065Y-87497161D01*
X117852639Y-87527436D01*
X117918405Y-87548767D01*
X118227532Y-87657109D01*
X118489773Y-87748260D01*
X118709008Y-87823399D01*
X118889115Y-87883707D01*
X119033972Y-87930363D01*
X119147458Y-87964546D01*
X119233451Y-87987438D01*
X119295829Y-88000217D01*
X119338471Y-88004064D01*
X119365255Y-88000158D01*
X119377491Y-87992632D01*
X119402552Y-87960426D01*
X119402657Y-87925016D01*
X119376439Y-87866953D01*
X119367491Y-87850117D01*
X119320734Y-87777535D01*
X119252061Y-87687489D01*
X119186025Y-87610377D01*
X119106014Y-87513307D01*
X119064748Y-87441041D01*
X119063406Y-87396631D01*
X119098010Y-87382997D01*
X119139995Y-87402624D01*
X119207738Y-87455872D01*
X119293170Y-87534284D01*
X119388222Y-87629408D01*
X119484827Y-87732789D01*
X119574915Y-87835973D01*
X119650419Y-87930505D01*
X119703270Y-88007932D01*
X119714895Y-88029370D01*
X119766462Y-88164035D01*
X119787964Y-88288351D01*
X119779124Y-88391808D01*
X119739665Y-88463897D01*
X119726618Y-88474665D01*
X119687510Y-88497894D01*
X119645370Y-88510058D01*
X119591818Y-88509733D01*
X119518474Y-88495496D01*
X119416956Y-88465924D01*
X119278884Y-88419593D01*
X119163247Y-88378997D01*
X118876379Y-88277655D01*
X118635922Y-88193341D01*
X118437526Y-88124715D01*
X118276840Y-88070431D01*
X118149512Y-88029149D01*
X118051191Y-87999524D01*
X117977526Y-87980214D01*
X117924166Y-87969877D01*
X117886760Y-87967168D01*
X117860957Y-87970747D01*
X117851625Y-87974207D01*
X117799660Y-88022668D01*
X117788140Y-88098437D01*
X117813679Y-88197310D01*
X117872888Y-88315081D01*
X117962380Y-88447546D01*
X118078769Y-88590502D01*
X118218665Y-88739742D01*
X118378682Y-88891063D01*
X118555432Y-89040259D01*
X118745528Y-89183127D01*
X118918821Y-89298807D01*
X118999869Y-89344222D01*
X119116099Y-89402214D01*
X119252462Y-89465571D01*
X119393911Y-89527086D01*
X119404687Y-89531584D01*
X119571251Y-89604791D01*
X119690783Y-89668644D01*
X119768136Y-89728695D01*
X119808164Y-89790496D01*
X119815721Y-89859600D01*
X119795660Y-89941560D01*
X119785768Y-89967534D01*
X119759198Y-90014189D01*
X119739736Y-90028268D01*
X119709712Y-90020019D01*
X119634838Y-89996644D01*
X119521446Y-89960201D01*
X119375864Y-89912745D01*
X119204420Y-89856335D01*
X119013445Y-89793027D01*
X118913257Y-89759645D01*
X118653907Y-89673659D01*
X118440609Y-89604457D01*
X118268517Y-89550827D01*
X118132784Y-89511557D01*
X118028565Y-89485436D01*
X117951013Y-89471252D01*
X117895284Y-89467793D01*
X117856531Y-89473848D01*
X117829909Y-89488204D01*
X117829404Y-89488620D01*
X117788870Y-89555058D01*
X117792240Y-89647971D01*
X117838088Y-89764520D01*
X117924984Y-89901866D01*
X118051502Y-90057168D01*
X118186368Y-90198452D01*
X118462792Y-90452348D01*
X118735233Y-90661732D01*
X119014983Y-90833870D01*
X119313335Y-90976027D01*
X119514414Y-91052929D01*
X119618598Y-91092437D01*
X119703121Y-91129866D01*
X119754881Y-91159186D01*
X119763682Y-91167608D01*
X119781741Y-91226680D01*
X119785780Y-91308315D01*
X119777002Y-91389583D01*
X119756612Y-91447553D01*
X119748493Y-91456904D01*
X119727547Y-91462475D01*
X119685462Y-91458613D01*
X119617715Y-91444043D01*
X119519782Y-91417492D01*
X119387139Y-91377685D01*
X119215263Y-91323348D01*
X118999630Y-91253209D01*
X118849696Y-91203780D01*
X118640901Y-91135543D01*
X118445151Y-91073173D01*
X118269170Y-91018688D01*
X118119681Y-90974110D01*
X118003409Y-90941457D01*
X117927077Y-90922749D01*
X117901736Y-90919022D01*
X117824511Y-90934770D01*
X117789727Y-90979909D01*
X117796755Y-91051285D01*
X117844968Y-91145739D01*
X117933735Y-91260117D01*
X117979598Y-91309847D01*
X118069919Y-91408136D01*
X118121199Y-91475776D01*
X118135450Y-91517175D01*
X118114681Y-91536745D01*
X118084413Y-91539851D01*
X118038710Y-91520263D01*
X117967315Y-91467096D01*
X117878489Y-91388742D01*
X117780491Y-91293593D01*
X117681582Y-91190041D01*
X117590020Y-91086481D01*
X117514067Y-90991304D01*
X117461981Y-90912903D01*
X117455671Y-90901008D01*
X117390013Y-90745581D01*
X117365643Y-90621454D01*
X117382195Y-90525591D01*
G36*
X117396961Y-95615728D02*
X117449012Y-95627928D01*
X117465249Y-95651511D01*
X117483520Y-95692797D01*
X117528176Y-95746304D01*
X117534840Y-95752733D01*
X117556240Y-95771872D01*
X117579295Y-95786993D01*
X117610414Y-95798722D01*
X117656008Y-95807684D01*
X117722488Y-95814504D01*
X117816265Y-95819807D01*
X117943748Y-95824218D01*
X118111349Y-95828363D01*
X118325478Y-95832865D01*
X118364861Y-95833668D01*
X118613164Y-95839301D01*
X118814303Y-95845893D01*
X118975100Y-95854749D01*
X119102375Y-95867171D01*
X119202949Y-95884463D01*
X119283641Y-95907928D01*
X119351274Y-95938869D01*
X119412667Y-95978590D01*
X119474642Y-96028393D01*
X119500175Y-96050596D01*
X119584515Y-96140816D01*
X119663677Y-96251649D01*
X119697368Y-96311746D01*
X119729598Y-96381657D01*
X119751466Y-96445029D01*
X119765222Y-96515455D01*
X119773117Y-96606531D01*
X119777400Y-96731849D01*
X119778755Y-96803400D01*
X119778004Y-96987278D01*
X119769516Y-97137378D01*
X119753860Y-97244798D01*
X119749379Y-97262274D01*
X119692416Y-97420050D01*
X119619085Y-97542786D01*
X119539231Y-97630400D01*
X119485038Y-97680581D01*
X119436167Y-97720772D01*
X119386011Y-97752139D01*
X119327963Y-97775850D01*
X119255415Y-97793069D01*
X119161761Y-97804963D01*
X119040393Y-97812698D01*
X118884702Y-97817440D01*
X118688084Y-97820355D01*
X118450478Y-97822554D01*
X118244112Y-97824740D01*
X118053194Y-97827559D01*
X117884980Y-97830842D01*
X117746723Y-97834419D01*
X117645677Y-97838120D01*
X117589097Y-97841776D01*
X117581685Y-97842882D01*
X117526364Y-97881210D01*
X117488536Y-97950668D01*
X117453973Y-98018243D01*
X117409057Y-98043800D01*
X117391642Y-98045058D01*
X117328880Y-98045058D01*
X117336332Y-97633422D01*
X117339448Y-97476416D01*
X117343068Y-97365243D01*
X117348513Y-97291753D01*
X117357105Y-97247799D01*
X117370166Y-97225234D01*
X117389017Y-97215910D01*
X117404516Y-97213160D01*
X117452557Y-97218627D01*
X117465249Y-97256213D01*
X117484283Y-97314139D01*
X117514612Y-97352564D01*
X117534352Y-97365727D01*
X117565174Y-97376061D01*
X117613170Y-97383897D01*
X117684432Y-97389567D01*
X117785054Y-97393405D01*
X117921127Y-97395741D01*
X118098745Y-97396907D01*
X118323998Y-97397236D01*
X118334511Y-97397237D01*
X118537803Y-97396615D01*
X118727405Y-97394862D01*
X118895458Y-97392140D01*
X119034100Y-97388615D01*
X119135474Y-97384452D01*
X119191718Y-97379814D01*
X119195223Y-97379201D01*
X119277506Y-97343449D01*
X119374114Y-97270436D01*
X119411340Y-97235226D01*
X119491640Y-97145246D01*
X119539696Y-97061925D01*
X119567471Y-96968511D01*
X119594494Y-96750254D01*
X119578221Y-96556442D01*
X119520198Y-96390440D01*
X119421974Y-96255615D01*
X119285096Y-96155333D01*
X119172323Y-96109080D01*
X119115768Y-96093865D01*
X119051815Y-96082160D01*
X118972840Y-96073534D01*
X118871216Y-96067553D01*
X118739318Y-96063785D01*
X118569518Y-96061797D01*
X118354192Y-96061156D01*
X118327842Y-96061149D01*
X118114120Y-96061460D01*
X117947573Y-96062710D01*
X117821390Y-96065332D01*
X117728764Y-96069758D01*
X117662885Y-96076419D01*
X117616945Y-96085747D01*
X117584134Y-96098174D01*
X117564382Y-96109567D01*
X117502503Y-96173741D01*
X117474172Y-96239180D01*
X117453615Y-96297068D01*
X117416767Y-96313476D01*
X117400862Y-96312185D01*
X117377296Y-96305885D01*
X117360995Y-96288962D01*
X117350322Y-96252505D01*
X117343643Y-96187601D01*
X117339322Y-96085337D01*
X117336228Y-95959883D01*
X117328674Y-95615728D01*
X117396961Y-95615728D01*
X117396961Y-95615728D01*
G37*
X117396961Y-95615728D02*
X117449012Y-95627928D01*
X117465249Y-95651511D01*
X117483520Y-95692797D01*
X117528176Y-95746304D01*
X117534840Y-95752733D01*
X117556240Y-95771872D01*
X117579295Y-95786993D01*
X117610414Y-95798722D01*
X117656008Y-95807684D01*
X117722488Y-95814504D01*
X117816265Y-95819807D01*
X117943748Y-95824218D01*
X118111349Y-95828363D01*
X118325478Y-95832865D01*
X118364861Y-95833668D01*
X118613164Y-95839301D01*
X118814303Y-95845893D01*
X118975100Y-95854749D01*
X119102375Y-95867171D01*
X119202949Y-95884463D01*
X119283641Y-95907928D01*
X119351274Y-95938869D01*
X119412667Y-95978590D01*
X119474642Y-96028393D01*
X119500175Y-96050596D01*
X119584515Y-96140816D01*
X119663677Y-96251649D01*
X119697368Y-96311746D01*
X119729598Y-96381657D01*
X119751466Y-96445029D01*
X119765222Y-96515455D01*
X119773117Y-96606531D01*
X119777400Y-96731849D01*
X119778755Y-96803400D01*
X119778004Y-96987278D01*
X119769516Y-97137378D01*
X119753860Y-97244798D01*
X119749379Y-97262274D01*
X119692416Y-97420050D01*
X119619085Y-97542786D01*
X119539231Y-97630400D01*
X119485038Y-97680581D01*
X119436167Y-97720772D01*
X119386011Y-97752139D01*
X119327963Y-97775850D01*
X119255415Y-97793069D01*
X119161761Y-97804963D01*
X119040393Y-97812698D01*
X118884702Y-97817440D01*
X118688084Y-97820355D01*
X118450478Y-97822554D01*
X118244112Y-97824740D01*
X118053194Y-97827559D01*
X117884980Y-97830842D01*
X117746723Y-97834419D01*
X117645677Y-97838120D01*
X117589097Y-97841776D01*
X117581685Y-97842882D01*
X117526364Y-97881210D01*
X117488536Y-97950668D01*
X117453973Y-98018243D01*
X117409057Y-98043800D01*
X117391642Y-98045058D01*
X117328880Y-98045058D01*
X117336332Y-97633422D01*
X117339448Y-97476416D01*
X117343068Y-97365243D01*
X117348513Y-97291753D01*
X117357105Y-97247799D01*
X117370166Y-97225234D01*
X117389017Y-97215910D01*
X117404516Y-97213160D01*
X117452557Y-97218627D01*
X117465249Y-97256213D01*
X117484283Y-97314139D01*
X117514612Y-97352564D01*
X117534352Y-97365727D01*
X117565174Y-97376061D01*
X117613170Y-97383897D01*
X117684432Y-97389567D01*
X117785054Y-97393405D01*
X117921127Y-97395741D01*
X118098745Y-97396907D01*
X118323998Y-97397236D01*
X118334511Y-97397237D01*
X118537803Y-97396615D01*
X118727405Y-97394862D01*
X118895458Y-97392140D01*
X119034100Y-97388615D01*
X119135474Y-97384452D01*
X119191718Y-97379814D01*
X119195223Y-97379201D01*
X119277506Y-97343449D01*
X119374114Y-97270436D01*
X119411340Y-97235226D01*
X119491640Y-97145246D01*
X119539696Y-97061925D01*
X119567471Y-96968511D01*
X119594494Y-96750254D01*
X119578221Y-96556442D01*
X119520198Y-96390440D01*
X119421974Y-96255615D01*
X119285096Y-96155333D01*
X119172323Y-96109080D01*
X119115768Y-96093865D01*
X119051815Y-96082160D01*
X118972840Y-96073534D01*
X118871216Y-96067553D01*
X118739318Y-96063785D01*
X118569518Y-96061797D01*
X118354192Y-96061156D01*
X118327842Y-96061149D01*
X118114120Y-96061460D01*
X117947573Y-96062710D01*
X117821390Y-96065332D01*
X117728764Y-96069758D01*
X117662885Y-96076419D01*
X117616945Y-96085747D01*
X117584134Y-96098174D01*
X117564382Y-96109567D01*
X117502503Y-96173741D01*
X117474172Y-96239180D01*
X117453615Y-96297068D01*
X117416767Y-96313476D01*
X117400862Y-96312185D01*
X117377296Y-96305885D01*
X117360995Y-96288962D01*
X117350322Y-96252505D01*
X117343643Y-96187601D01*
X117339322Y-96085337D01*
X117336228Y-95959883D01*
X117328674Y-95615728D01*
X117396961Y-95615728D01*
G36*
X117519234Y-92592561D02*
X117618044Y-92593688D01*
X117674606Y-92599673D01*
X117700651Y-92614423D01*
X117707910Y-92641844D01*
X117708182Y-92655481D01*
X117683773Y-92720552D01*
X117646175Y-92751587D01*
X117597911Y-92781693D01*
X117561924Y-92818453D01*
X117536213Y-92869941D01*
X117518778Y-92944231D01*
X117507621Y-93049397D01*
X117500742Y-93193514D01*
X117496715Y-93355101D01*
X117487692Y-93807226D01*
X118409989Y-93807226D01*
X118409989Y-93127079D01*
X118329011Y-93051434D01*
X118273231Y-92994394D01*
X118253221Y-92955917D01*
X118273211Y-92932479D01*
X118337429Y-92920555D01*
X118450106Y-92916621D01*
X118490967Y-92916472D01*
X118620415Y-92919439D01*
X118699562Y-92930037D01*
X118731849Y-92950806D01*
X118720719Y-92984290D01*
X118669614Y-93033030D01*
X118659670Y-93041053D01*
X118629435Y-93066918D01*
X118608509Y-93094572D01*
X118594861Y-93134097D01*
X118586461Y-93195574D01*
X118581278Y-93289085D01*
X118577281Y-93424712D01*
X118576547Y-93453703D01*
X118567654Y-93807226D01*
X119021925Y-93806828D01*
X119211850Y-93805559D01*
X119355406Y-93800659D01*
X119460190Y-93789925D01*
X119533800Y-93771152D01*
X119583832Y-93742136D01*
X119617884Y-93700673D01*
X119643553Y-93644558D01*
X119650814Y-93624367D01*
X119690797Y-93540979D01*
X119734647Y-93510492D01*
X119738540Y-93510308D01*
X119755894Y-93514071D01*
X119768504Y-93530265D01*
X119777117Y-93566247D01*
X119782483Y-93629374D01*
X119785350Y-93727003D01*
X119786467Y-93866491D01*
X119786610Y-93982678D01*
X119786610Y-94455048D01*
X119719128Y-94455048D01*
X119666212Y-94442395D01*
X119651647Y-94401062D01*
X119633327Y-94342301D01*
X119597662Y-94293092D01*
X119581649Y-94279010D01*
X119561017Y-94267614D01*
X119530314Y-94258620D01*
X119484084Y-94251746D01*
X119416877Y-94246707D01*
X119323239Y-94243220D01*
X119197716Y-94241000D01*
X119034857Y-94239764D01*
X118829207Y-94239227D01*
X118575315Y-94239107D01*
X117577138Y-94239107D01*
X117521194Y-94310229D01*
X117482464Y-94369786D01*
X117465298Y-94416599D01*
X117465249Y-94418199D01*
X117441881Y-94446737D01*
X117397768Y-94455048D01*
X117330286Y-94455048D01*
X117330286Y-92592561D01*
X117519234Y-92592561D01*
X117519234Y-92592561D01*
G37*
X117519234Y-92592561D02*
X117618044Y-92593688D01*
X117674606Y-92599673D01*
X117700651Y-92614423D01*
X117707910Y-92641844D01*
X117708182Y-92655481D01*
X117683773Y-92720552D01*
X117646175Y-92751587D01*
X117597911Y-92781693D01*
X117561924Y-92818453D01*
X117536213Y-92869941D01*
X117518778Y-92944231D01*
X117507621Y-93049397D01*
X117500742Y-93193514D01*
X117496715Y-93355101D01*
X117487692Y-93807226D01*
X118409989Y-93807226D01*
X118409989Y-93127079D01*
X118329011Y-93051434D01*
X118273231Y-92994394D01*
X118253221Y-92955917D01*
X118273211Y-92932479D01*
X118337429Y-92920555D01*
X118450106Y-92916621D01*
X118490967Y-92916472D01*
X118620415Y-92919439D01*
X118699562Y-92930037D01*
X118731849Y-92950806D01*
X118720719Y-92984290D01*
X118669614Y-93033030D01*
X118659670Y-93041053D01*
X118629435Y-93066918D01*
X118608509Y-93094572D01*
X118594861Y-93134097D01*
X118586461Y-93195574D01*
X118581278Y-93289085D01*
X118577281Y-93424712D01*
X118576547Y-93453703D01*
X118567654Y-93807226D01*
X119021925Y-93806828D01*
X119211850Y-93805559D01*
X119355406Y-93800659D01*
X119460190Y-93789925D01*
X119533800Y-93771152D01*
X119583832Y-93742136D01*
X119617884Y-93700673D01*
X119643553Y-93644558D01*
X119650814Y-93624367D01*
X119690797Y-93540979D01*
X119734647Y-93510492D01*
X119738540Y-93510308D01*
X119755894Y-93514071D01*
X119768504Y-93530265D01*
X119777117Y-93566247D01*
X119782483Y-93629374D01*
X119785350Y-93727003D01*
X119786467Y-93866491D01*
X119786610Y-93982678D01*
X119786610Y-94455048D01*
X119719128Y-94455048D01*
X119666212Y-94442395D01*
X119651647Y-94401062D01*
X119633327Y-94342301D01*
X119597662Y-94293092D01*
X119581649Y-94279010D01*
X119561017Y-94267614D01*
X119530314Y-94258620D01*
X119484084Y-94251746D01*
X119416877Y-94246707D01*
X119323239Y-94243220D01*
X119197716Y-94241000D01*
X119034857Y-94239764D01*
X118829207Y-94239227D01*
X118575315Y-94239107D01*
X117577138Y-94239107D01*
X117521194Y-94310229D01*
X117482464Y-94369786D01*
X117465298Y-94416599D01*
X117465249Y-94418199D01*
X117441881Y-94446737D01*
X117397768Y-94455048D01*
X117330286Y-94455048D01*
X117330286Y-92592561D01*
X117519234Y-92592561D01*
G04 #@! TO.C,C34*
D12*
X137857142Y-66257142D02*
X137809523Y-66304761D01*
X137666666Y-66352380D01*
X137571428Y-66352380D01*
X137428571Y-66304761D01*
X137333333Y-66209523D01*
X137285714Y-66114285D01*
X137238095Y-65923809D01*
X137238095Y-65780952D01*
X137285714Y-65590476D01*
X137333333Y-65495238D01*
X137428571Y-65400000D01*
X137571428Y-65352380D01*
X137666666Y-65352380D01*
X137809523Y-65400000D01*
X137857142Y-65447619D01*
X138190476Y-65352380D02*
X138809523Y-65352380D01*
X138476190Y-65733333D01*
X138619047Y-65733333D01*
X138714285Y-65780952D01*
X138761904Y-65828571D01*
X138809523Y-65923809D01*
X138809523Y-66161904D01*
X138761904Y-66257142D01*
X138714285Y-66304761D01*
X138619047Y-66352380D01*
X138333333Y-66352380D01*
X138238095Y-66304761D01*
X138190476Y-66257142D01*
X139666666Y-65685714D02*
X139666666Y-66352380D01*
X139428571Y-65304761D02*
X139190476Y-66019047D01*
X139809523Y-66019047D01*
G04 #@! TO.C,L2*
X132092380Y-70956666D02*
X132092380Y-71432857D01*
X131092380Y-71432857D01*
X131187619Y-70670952D02*
X131140000Y-70623333D01*
X131092380Y-70528095D01*
X131092380Y-70290000D01*
X131140000Y-70194761D01*
X131187619Y-70147142D01*
X131282857Y-70099523D01*
X131378095Y-70099523D01*
X131520952Y-70147142D01*
X132092380Y-70718571D01*
X132092380Y-70099523D01*
G04 #@! TO.C,P8*
X187952380Y-99238095D02*
X186952380Y-99238095D01*
X186952380Y-98857142D01*
X187000000Y-98761904D01*
X187047619Y-98714285D01*
X187142857Y-98666666D01*
X187285714Y-98666666D01*
X187380952Y-98714285D01*
X187428571Y-98761904D01*
X187476190Y-98857142D01*
X187476190Y-99238095D01*
X187380952Y-98095238D02*
X187333333Y-98190476D01*
X187285714Y-98238095D01*
X187190476Y-98285714D01*
X187142857Y-98285714D01*
X187047619Y-98238095D01*
X187000000Y-98190476D01*
X186952380Y-98095238D01*
X186952380Y-97904761D01*
X187000000Y-97809523D01*
X187047619Y-97761904D01*
X187142857Y-97714285D01*
X187190476Y-97714285D01*
X187285714Y-97761904D01*
X187333333Y-97809523D01*
X187380952Y-97904761D01*
X187380952Y-98095238D01*
X187428571Y-98190476D01*
X187476190Y-98238095D01*
X187571428Y-98285714D01*
X187761904Y-98285714D01*
X187857142Y-98238095D01*
X187904761Y-98190476D01*
X187952380Y-98095238D01*
X187952380Y-97904761D01*
X187904761Y-97809523D01*
X187857142Y-97761904D01*
X187761904Y-97714285D01*
X187571428Y-97714285D01*
X187476190Y-97761904D01*
X187428571Y-97809523D01*
X187380952Y-97904761D01*
G04 #@! TO.C,L1*
X140304429Y-71963484D02*
X139828238Y-71963484D01*
X139828238Y-70963484D01*
X141161572Y-71963484D02*
X140590143Y-71963484D01*
X140875857Y-71963484D02*
X140875857Y-70963484D01*
X140780619Y-71106342D01*
X140685381Y-71201580D01*
X140590143Y-71249199D01*
G04 #@! TO.C,R17*
X168596776Y-58583461D02*
X168120586Y-58916794D01*
X168596776Y-59154889D02*
X167596776Y-59154889D01*
X167596776Y-58773937D01*
X167644396Y-58678699D01*
X167692015Y-58631080D01*
X167787253Y-58583461D01*
X167930110Y-58583461D01*
X168025348Y-58631080D01*
X168072967Y-58678699D01*
X168120586Y-58773937D01*
X168120586Y-59154889D01*
X168596776Y-57631080D02*
X168596776Y-58202508D01*
X168596776Y-57916794D02*
X167596776Y-57916794D01*
X167739634Y-58012032D01*
X167834872Y-58107270D01*
X167882491Y-58202508D01*
X167596776Y-57297746D02*
X167596776Y-56631080D01*
X168596776Y-57059651D01*
G04 #@! TO.C,R18*
X164532776Y-58710461D02*
X164056586Y-59043794D01*
X164532776Y-59281889D02*
X163532776Y-59281889D01*
X163532776Y-58900937D01*
X163580396Y-58805699D01*
X163628015Y-58758080D01*
X163723253Y-58710461D01*
X163866110Y-58710461D01*
X163961348Y-58758080D01*
X164008967Y-58805699D01*
X164056586Y-58900937D01*
X164056586Y-59281889D01*
X164532776Y-57758080D02*
X164532776Y-58329508D01*
X164532776Y-58043794D02*
X163532776Y-58043794D01*
X163675634Y-58139032D01*
X163770872Y-58234270D01*
X163818491Y-58329508D01*
X163961348Y-57186651D02*
X163913729Y-57281889D01*
X163866110Y-57329508D01*
X163770872Y-57377127D01*
X163723253Y-57377127D01*
X163628015Y-57329508D01*
X163580396Y-57281889D01*
X163532776Y-57186651D01*
X163532776Y-56996175D01*
X163580396Y-56900937D01*
X163628015Y-56853318D01*
X163723253Y-56805699D01*
X163770872Y-56805699D01*
X163866110Y-56853318D01*
X163913729Y-56900937D01*
X163961348Y-56996175D01*
X163961348Y-57186651D01*
X164008967Y-57281889D01*
X164056586Y-57329508D01*
X164151824Y-57377127D01*
X164342300Y-57377127D01*
X164437538Y-57329508D01*
X164485157Y-57281889D01*
X164532776Y-57186651D01*
X164532776Y-56996175D01*
X164485157Y-56900937D01*
X164437538Y-56853318D01*
X164342300Y-56805699D01*
X164151824Y-56805699D01*
X164056586Y-56853318D01*
X164008967Y-56900937D01*
X163961348Y-56996175D01*
G04 #@! TO.C,IC9*
D14*
X141502593Y-81979359D02*
X142772593Y-81979359D01*
X141623545Y-83309835D02*
X141563069Y-83249359D01*
X141502593Y-83067930D01*
X141502593Y-82946978D01*
X141563069Y-82765549D01*
X141684021Y-82644597D01*
X141804974Y-82584121D01*
X142046878Y-82523644D01*
X142228307Y-82523644D01*
X142470212Y-82584121D01*
X142591164Y-82644597D01*
X142712117Y-82765549D01*
X142772593Y-82946978D01*
X142772593Y-83067930D01*
X142712117Y-83249359D01*
X142651640Y-83309835D01*
X141502593Y-83914597D02*
X141502593Y-84156501D01*
X141563069Y-84277454D01*
X141623545Y-84337930D01*
X141804974Y-84458882D01*
X142046878Y-84519359D01*
X142530688Y-84519359D01*
X142651640Y-84458882D01*
X142712117Y-84398406D01*
X142772593Y-84277454D01*
X142772593Y-84035549D01*
X142712117Y-83914597D01*
X142651640Y-83854121D01*
X142530688Y-83793644D01*
X142228307Y-83793644D01*
X142107355Y-83854121D01*
X142046878Y-83914597D01*
X141986402Y-84035549D01*
X141986402Y-84277454D01*
X142046878Y-84398406D01*
X142107355Y-84458882D01*
X142228307Y-84519359D01*
G04 #@! TO.C,IC5*
X164400919Y-67816365D02*
X163130919Y-67816365D01*
X164279967Y-66485889D02*
X164340443Y-66546365D01*
X164400919Y-66727794D01*
X164400919Y-66848746D01*
X164340443Y-67030175D01*
X164219491Y-67151127D01*
X164098538Y-67211604D01*
X163856634Y-67272080D01*
X163675205Y-67272080D01*
X163433300Y-67211604D01*
X163312348Y-67151127D01*
X163191396Y-67030175D01*
X163130919Y-66848746D01*
X163130919Y-66727794D01*
X163191396Y-66546365D01*
X163251872Y-66485889D01*
X163130919Y-65336842D02*
X163130919Y-65941604D01*
X163735681Y-66002080D01*
X163675205Y-65941604D01*
X163614729Y-65820651D01*
X163614729Y-65518270D01*
X163675205Y-65397318D01*
X163735681Y-65336842D01*
X163856634Y-65276365D01*
X164159015Y-65276365D01*
X164279967Y-65336842D01*
X164340443Y-65397318D01*
X164400919Y-65518270D01*
X164400919Y-65820651D01*
X164340443Y-65941604D01*
X164279967Y-66002080D01*
G04 #@! TO.C,IC11*
X133545219Y-92120927D02*
X132275219Y-92120927D01*
X133424267Y-90790451D02*
X133484743Y-90850927D01*
X133545219Y-91032356D01*
X133545219Y-91153308D01*
X133484743Y-91334737D01*
X133363791Y-91455689D01*
X133242838Y-91516165D01*
X133000934Y-91576642D01*
X132819505Y-91576642D01*
X132577600Y-91516165D01*
X132456648Y-91455689D01*
X132335696Y-91334737D01*
X132275219Y-91153308D01*
X132275219Y-91032356D01*
X132335696Y-90850927D01*
X132396172Y-90790451D01*
X133545219Y-89580927D02*
X133545219Y-90306642D01*
X133545219Y-89943784D02*
X132275219Y-89943784D01*
X132456648Y-90064737D01*
X132577600Y-90185689D01*
X132638076Y-90306642D01*
X133545219Y-88371404D02*
X133545219Y-89097118D01*
X133545219Y-88734261D02*
X132275219Y-88734261D01*
X132456648Y-88855213D01*
X132577600Y-88976165D01*
X132638076Y-89097118D01*
G04 #@! TO.C,U1*
X176021419Y-62464223D02*
X177049515Y-62464223D01*
X177170467Y-62403746D01*
X177230943Y-62343270D01*
X177291419Y-62222318D01*
X177291419Y-61980413D01*
X177230943Y-61859461D01*
X177170467Y-61798984D01*
X177049515Y-61738508D01*
X176021419Y-61738508D01*
X177291419Y-60468508D02*
X177291419Y-61194223D01*
X177291419Y-60831365D02*
X176021419Y-60831365D01*
X176202848Y-60952318D01*
X176323800Y-61073270D01*
X176384276Y-61194223D01*
G04 #@! TO.C,J5*
D12*
X163786776Y-74275937D02*
X164501062Y-74275937D01*
X164643919Y-74323556D01*
X164739157Y-74418794D01*
X164786776Y-74561651D01*
X164786776Y-74656889D01*
X163786776Y-73323556D02*
X163786776Y-73799746D01*
X164262967Y-73847365D01*
X164215348Y-73799746D01*
X164167729Y-73704508D01*
X164167729Y-73466413D01*
X164215348Y-73371175D01*
X164262967Y-73323556D01*
X164358205Y-73275937D01*
X164596300Y-73275937D01*
X164691538Y-73323556D01*
X164739157Y-73371175D01*
X164786776Y-73466413D01*
X164786776Y-73704508D01*
X164739157Y-73799746D01*
X164691538Y-73847365D01*
G04 #@! TO.C,SW1*
X169482157Y-61940937D02*
X169529776Y-61798080D01*
X169529776Y-61559984D01*
X169482157Y-61464746D01*
X169434538Y-61417127D01*
X169339300Y-61369508D01*
X169244062Y-61369508D01*
X169148824Y-61417127D01*
X169101205Y-61464746D01*
X169053586Y-61559984D01*
X169005967Y-61750461D01*
X168958348Y-61845699D01*
X168910729Y-61893318D01*
X168815491Y-61940937D01*
X168720253Y-61940937D01*
X168625015Y-61893318D01*
X168577396Y-61845699D01*
X168529776Y-61750461D01*
X168529776Y-61512365D01*
X168577396Y-61369508D01*
X168529776Y-61036175D02*
X169529776Y-60798080D01*
X168815491Y-60607604D01*
X169529776Y-60417127D01*
X168529776Y-60179032D01*
X169529776Y-59274270D02*
X169529776Y-59845699D01*
X169529776Y-59559984D02*
X168529776Y-59559984D01*
X168672634Y-59655223D01*
X168767872Y-59750461D01*
X168815491Y-59845699D01*
G04 #@! TO.C,C33*
X147292538Y-75918961D02*
X147340157Y-75966580D01*
X147387776Y-76109437D01*
X147387776Y-76204675D01*
X147340157Y-76347532D01*
X147244919Y-76442770D01*
X147149681Y-76490389D01*
X146959205Y-76538008D01*
X146816348Y-76538008D01*
X146625872Y-76490389D01*
X146530634Y-76442770D01*
X146435396Y-76347532D01*
X146387776Y-76204675D01*
X146387776Y-76109437D01*
X146435396Y-75966580D01*
X146483015Y-75918961D01*
X146387776Y-75585627D02*
X146387776Y-74966580D01*
X146768729Y-75299913D01*
X146768729Y-75157056D01*
X146816348Y-75061818D01*
X146863967Y-75014199D01*
X146959205Y-74966580D01*
X147197300Y-74966580D01*
X147292538Y-75014199D01*
X147340157Y-75061818D01*
X147387776Y-75157056D01*
X147387776Y-75442770D01*
X147340157Y-75538008D01*
X147292538Y-75585627D01*
X146387776Y-74633246D02*
X146387776Y-74014199D01*
X146768729Y-74347532D01*
X146768729Y-74204675D01*
X146816348Y-74109437D01*
X146863967Y-74061818D01*
X146959205Y-74014199D01*
X147197300Y-74014199D01*
X147292538Y-74061818D01*
X147340157Y-74109437D01*
X147387776Y-74204675D01*
X147387776Y-74490389D01*
X147340157Y-74585627D01*
X147292538Y-74633246D01*
G04 #@! TO.C,J11*
X183463872Y-90920984D02*
X183463872Y-91635270D01*
X183416253Y-91778127D01*
X183321015Y-91873365D01*
X183178157Y-91920984D01*
X183082919Y-91920984D01*
X184463872Y-91920984D02*
X183892443Y-91920984D01*
X184178157Y-91920984D02*
X184178157Y-90920984D01*
X184082919Y-91063842D01*
X183987681Y-91159080D01*
X183892443Y-91206699D01*
X185416253Y-91920984D02*
X184844824Y-91920984D01*
X185130538Y-91920984D02*
X185130538Y-90920984D01*
X185035300Y-91063842D01*
X184940062Y-91159080D01*
X184844824Y-91206699D01*
G04 #@! TO.C,J4*
X183940062Y-69076984D02*
X183940062Y-69791270D01*
X183892443Y-69934127D01*
X183797205Y-70029365D01*
X183654348Y-70076984D01*
X183559110Y-70076984D01*
X184844824Y-69410318D02*
X184844824Y-70076984D01*
X184606729Y-69029365D02*
X184368634Y-69743651D01*
X184987681Y-69743651D01*
G04 #@! TO.C,J6*
X189528062Y-69076984D02*
X189528062Y-69791270D01*
X189480443Y-69934127D01*
X189385205Y-70029365D01*
X189242348Y-70076984D01*
X189147110Y-70076984D01*
X190432824Y-69076984D02*
X190242348Y-69076984D01*
X190147110Y-69124604D01*
X190099491Y-69172223D01*
X190004253Y-69315080D01*
X189956634Y-69505556D01*
X189956634Y-69886508D01*
X190004253Y-69981746D01*
X190051872Y-70029365D01*
X190147110Y-70076984D01*
X190337586Y-70076984D01*
X190432824Y-70029365D01*
X190480443Y-69981746D01*
X190528062Y-69886508D01*
X190528062Y-69648413D01*
X190480443Y-69553175D01*
X190432824Y-69505556D01*
X190337586Y-69457937D01*
X190147110Y-69457937D01*
X190051872Y-69505556D01*
X190004253Y-69553175D01*
X189956634Y-69648413D01*
G04 #@! TO.C,J16*
X189051872Y-90920984D02*
X189051872Y-91635270D01*
X189004253Y-91778127D01*
X188909015Y-91873365D01*
X188766157Y-91920984D01*
X188670919Y-91920984D01*
X190051872Y-91920984D02*
X189480443Y-91920984D01*
X189766157Y-91920984D02*
X189766157Y-90920984D01*
X189670919Y-91063842D01*
X189575681Y-91159080D01*
X189480443Y-91206699D01*
X190909015Y-90920984D02*
X190718538Y-90920984D01*
X190623300Y-90968604D01*
X190575681Y-91016223D01*
X190480443Y-91159080D01*
X190432824Y-91349556D01*
X190432824Y-91730508D01*
X190480443Y-91825746D01*
X190528062Y-91873365D01*
X190623300Y-91920984D01*
X190813776Y-91920984D01*
X190909015Y-91873365D01*
X190956634Y-91825746D01*
X191004253Y-91730508D01*
X191004253Y-91492413D01*
X190956634Y-91397175D01*
X190909015Y-91349556D01*
X190813776Y-91301937D01*
X190623300Y-91301937D01*
X190528062Y-91349556D01*
X190480443Y-91397175D01*
X190432824Y-91492413D01*
G04 #@! TO.C,J3*
X173659661Y-72603484D02*
X173659661Y-73317770D01*
X173612042Y-73460627D01*
X173516804Y-73555865D01*
X173373947Y-73603484D01*
X173278709Y-73603484D01*
X174040614Y-72603484D02*
X174659661Y-72603484D01*
X174326328Y-72984437D01*
X174469185Y-72984437D01*
X174564423Y-73032056D01*
X174612042Y-73079675D01*
X174659661Y-73174913D01*
X174659661Y-73413008D01*
X174612042Y-73508246D01*
X174564423Y-73555865D01*
X174469185Y-73603484D01*
X174183471Y-73603484D01*
X174088233Y-73555865D01*
X174040614Y-73508246D01*
G04 #@! TO.C,J1*
X137648562Y-63425484D02*
X137648562Y-64139770D01*
X137600943Y-64282627D01*
X137505705Y-64377865D01*
X137362848Y-64425484D01*
X137267610Y-64425484D01*
X138648562Y-64425484D02*
X138077134Y-64425484D01*
X138362848Y-64425484D02*
X138362848Y-63425484D01*
X138267610Y-63568342D01*
X138172372Y-63663580D01*
X138077134Y-63711199D01*
G04 #@! TO.C,J2*
X150602562Y-63425484D02*
X150602562Y-64139770D01*
X150554943Y-64282627D01*
X150459705Y-64377865D01*
X150316848Y-64425484D01*
X150221610Y-64425484D01*
X151031134Y-63520723D02*
X151078753Y-63473104D01*
X151173991Y-63425484D01*
X151412086Y-63425484D01*
X151507324Y-63473104D01*
X151554943Y-63520723D01*
X151602562Y-63615961D01*
X151602562Y-63711199D01*
X151554943Y-63854056D01*
X150983515Y-64425484D01*
X151602562Y-64425484D01*
G04 #@! TO.C,J7*
X151618562Y-87491984D02*
X151618562Y-88206270D01*
X151570943Y-88349127D01*
X151475705Y-88444365D01*
X151332848Y-88491984D01*
X151237610Y-88491984D01*
X151999515Y-87491984D02*
X152666181Y-87491984D01*
X152237610Y-88491984D01*
G04 #@! TO.C,J8*
X151618562Y-75172984D02*
X151618562Y-75887270D01*
X151570943Y-76030127D01*
X151475705Y-76125365D01*
X151332848Y-76172984D01*
X151237610Y-76172984D01*
X152237610Y-75601556D02*
X152142372Y-75553937D01*
X152094753Y-75506318D01*
X152047134Y-75411080D01*
X152047134Y-75363461D01*
X152094753Y-75268223D01*
X152142372Y-75220604D01*
X152237610Y-75172984D01*
X152428086Y-75172984D01*
X152523324Y-75220604D01*
X152570943Y-75268223D01*
X152618562Y-75363461D01*
X152618562Y-75411080D01*
X152570943Y-75506318D01*
X152523324Y-75553937D01*
X152428086Y-75601556D01*
X152237610Y-75601556D01*
X152142372Y-75649175D01*
X152094753Y-75696794D01*
X152047134Y-75792032D01*
X152047134Y-75982508D01*
X152094753Y-76077746D01*
X152142372Y-76125365D01*
X152237610Y-76172984D01*
X152428086Y-76172984D01*
X152523324Y-76125365D01*
X152570943Y-76077746D01*
X152618562Y-75982508D01*
X152618562Y-75792032D01*
X152570943Y-75696794D01*
X152523324Y-75649175D01*
X152428086Y-75601556D01*
G04 #@! TO.C,J9*
X159683062Y-87745984D02*
X159683062Y-88460270D01*
X159635443Y-88603127D01*
X159540205Y-88698365D01*
X159397348Y-88745984D01*
X159302110Y-88745984D01*
X160206872Y-88745984D02*
X160397348Y-88745984D01*
X160492586Y-88698365D01*
X160540205Y-88650746D01*
X160635443Y-88507889D01*
X160683062Y-88317413D01*
X160683062Y-87936461D01*
X160635443Y-87841223D01*
X160587824Y-87793604D01*
X160492586Y-87745984D01*
X160302110Y-87745984D01*
X160206872Y-87793604D01*
X160159253Y-87841223D01*
X160111634Y-87936461D01*
X160111634Y-88174556D01*
X160159253Y-88269794D01*
X160206872Y-88317413D01*
X160302110Y-88365032D01*
X160492586Y-88365032D01*
X160587824Y-88317413D01*
X160635443Y-88269794D01*
X160683062Y-88174556D01*
G04 #@! TO.C,J10*
X159143372Y-75172984D02*
X159143372Y-75887270D01*
X159095753Y-76030127D01*
X159000515Y-76125365D01*
X158857657Y-76172984D01*
X158762419Y-76172984D01*
X160143372Y-76172984D02*
X159571943Y-76172984D01*
X159857657Y-76172984D02*
X159857657Y-75172984D01*
X159762419Y-75315842D01*
X159667181Y-75411080D01*
X159571943Y-75458699D01*
X160762419Y-75172984D02*
X160857657Y-75172984D01*
X160952896Y-75220604D01*
X161000515Y-75268223D01*
X161048134Y-75363461D01*
X161095753Y-75553937D01*
X161095753Y-75792032D01*
X161048134Y-75982508D01*
X161000515Y-76077746D01*
X160952896Y-76125365D01*
X160857657Y-76172984D01*
X160762419Y-76172984D01*
X160667181Y-76125365D01*
X160619562Y-76077746D01*
X160571943Y-75982508D01*
X160524324Y-75792032D01*
X160524324Y-75553937D01*
X160571943Y-75363461D01*
X160619562Y-75268223D01*
X160667181Y-75220604D01*
X160762419Y-75172984D01*
G04 #@! TO.C,J12*
X175335872Y-87491984D02*
X175335872Y-88206270D01*
X175288253Y-88349127D01*
X175193015Y-88444365D01*
X175050157Y-88491984D01*
X174954919Y-88491984D01*
X176335872Y-88491984D02*
X175764443Y-88491984D01*
X176050157Y-88491984D02*
X176050157Y-87491984D01*
X175954919Y-87634842D01*
X175859681Y-87730080D01*
X175764443Y-87777699D01*
X176716824Y-87587223D02*
X176764443Y-87539604D01*
X176859681Y-87491984D01*
X177097776Y-87491984D01*
X177193015Y-87539604D01*
X177240634Y-87587223D01*
X177288253Y-87682461D01*
X177288253Y-87777699D01*
X177240634Y-87920556D01*
X176669205Y-88491984D01*
X177288253Y-88491984D01*
G04 #@! TO.C,J13*
X167207872Y-87491984D02*
X167207872Y-88206270D01*
X167160253Y-88349127D01*
X167065015Y-88444365D01*
X166922157Y-88491984D01*
X166826919Y-88491984D01*
X168207872Y-88491984D02*
X167636443Y-88491984D01*
X167922157Y-88491984D02*
X167922157Y-87491984D01*
X167826919Y-87634842D01*
X167731681Y-87730080D01*
X167636443Y-87777699D01*
X168541205Y-87491984D02*
X169160253Y-87491984D01*
X168826919Y-87872937D01*
X168969776Y-87872937D01*
X169065015Y-87920556D01*
X169112634Y-87968175D01*
X169160253Y-88063413D01*
X169160253Y-88301508D01*
X169112634Y-88396746D01*
X169065015Y-88444365D01*
X168969776Y-88491984D01*
X168684062Y-88491984D01*
X168588824Y-88444365D01*
X168541205Y-88396746D01*
G04 #@! TO.C,J14*
X167144372Y-75172984D02*
X167144372Y-75887270D01*
X167096753Y-76030127D01*
X167001515Y-76125365D01*
X166858657Y-76172984D01*
X166763419Y-76172984D01*
X168144372Y-76172984D02*
X167572943Y-76172984D01*
X167858657Y-76172984D02*
X167858657Y-75172984D01*
X167763419Y-75315842D01*
X167668181Y-75411080D01*
X167572943Y-75458699D01*
X169001515Y-75506318D02*
X169001515Y-76172984D01*
X168763419Y-75125365D02*
X168525324Y-75839651D01*
X169144372Y-75839651D01*
G04 #@! TO.C,J15*
X175335872Y-75172984D02*
X175335872Y-75887270D01*
X175288253Y-76030127D01*
X175193015Y-76125365D01*
X175050157Y-76172984D01*
X174954919Y-76172984D01*
X176335872Y-76172984D02*
X175764443Y-76172984D01*
X176050157Y-76172984D02*
X176050157Y-75172984D01*
X175954919Y-75315842D01*
X175859681Y-75411080D01*
X175764443Y-75458699D01*
X177240634Y-75172984D02*
X176764443Y-75172984D01*
X176716824Y-75649175D01*
X176764443Y-75601556D01*
X176859681Y-75553937D01*
X177097776Y-75553937D01*
X177193015Y-75601556D01*
X177240634Y-75649175D01*
X177288253Y-75744413D01*
X177288253Y-75982508D01*
X177240634Y-76077746D01*
X177193015Y-76125365D01*
X177097776Y-76172984D01*
X176859681Y-76172984D01*
X176764443Y-76125365D01*
X176716824Y-76077746D01*
G04 #@! TO.C,P9*
X188154776Y-51122199D02*
X187154776Y-51122199D01*
X187154776Y-50741246D01*
X187202396Y-50646008D01*
X187250015Y-50598389D01*
X187345253Y-50550770D01*
X187488110Y-50550770D01*
X187583348Y-50598389D01*
X187630967Y-50646008D01*
X187678586Y-50741246D01*
X187678586Y-51122199D01*
X188154776Y-50074580D02*
X188154776Y-49884104D01*
X188107157Y-49788865D01*
X188059538Y-49741246D01*
X187916681Y-49646008D01*
X187726205Y-49598389D01*
X187345253Y-49598389D01*
X187250015Y-49646008D01*
X187202396Y-49693627D01*
X187154776Y-49788865D01*
X187154776Y-49979342D01*
X187202396Y-50074580D01*
X187250015Y-50122199D01*
X187345253Y-50169818D01*
X187583348Y-50169818D01*
X187678586Y-50122199D01*
X187726205Y-50074580D01*
X187773824Y-49979342D01*
X187773824Y-49788865D01*
X187726205Y-49693627D01*
X187678586Y-49646008D01*
X187583348Y-49598389D01*
G04 #@! TO.C,C8*
X169517538Y-69537270D02*
X169565157Y-69584889D01*
X169612776Y-69727746D01*
X169612776Y-69822984D01*
X169565157Y-69965842D01*
X169469919Y-70061080D01*
X169374681Y-70108699D01*
X169184205Y-70156318D01*
X169041348Y-70156318D01*
X168850872Y-70108699D01*
X168755634Y-70061080D01*
X168660396Y-69965842D01*
X168612776Y-69822984D01*
X168612776Y-69727746D01*
X168660396Y-69584889D01*
X168708015Y-69537270D01*
X169041348Y-68965842D02*
X168993729Y-69061080D01*
X168946110Y-69108699D01*
X168850872Y-69156318D01*
X168803253Y-69156318D01*
X168708015Y-69108699D01*
X168660396Y-69061080D01*
X168612776Y-68965842D01*
X168612776Y-68775365D01*
X168660396Y-68680127D01*
X168708015Y-68632508D01*
X168803253Y-68584889D01*
X168850872Y-68584889D01*
X168946110Y-68632508D01*
X168993729Y-68680127D01*
X169041348Y-68775365D01*
X169041348Y-68965842D01*
X169088967Y-69061080D01*
X169136586Y-69108699D01*
X169231824Y-69156318D01*
X169422300Y-69156318D01*
X169517538Y-69108699D01*
X169565157Y-69061080D01*
X169612776Y-68965842D01*
X169612776Y-68775365D01*
X169565157Y-68680127D01*
X169517538Y-68632508D01*
X169422300Y-68584889D01*
X169231824Y-68584889D01*
X169136586Y-68632508D01*
X169088967Y-68680127D01*
X169041348Y-68775365D01*
G04 #@! TO.C,C9*
X136323642Y-80176166D02*
X136371261Y-80223785D01*
X136418880Y-80366642D01*
X136418880Y-80461880D01*
X136371261Y-80604738D01*
X136276023Y-80699976D01*
X136180785Y-80747595D01*
X135990309Y-80795214D01*
X135847452Y-80795214D01*
X135656976Y-80747595D01*
X135561738Y-80699976D01*
X135466500Y-80604738D01*
X135418880Y-80461880D01*
X135418880Y-80366642D01*
X135466500Y-80223785D01*
X135514119Y-80176166D01*
X136418880Y-79699976D02*
X136418880Y-79509500D01*
X136371261Y-79414261D01*
X136323642Y-79366642D01*
X136180785Y-79271404D01*
X135990309Y-79223785D01*
X135609357Y-79223785D01*
X135514119Y-79271404D01*
X135466500Y-79319023D01*
X135418880Y-79414261D01*
X135418880Y-79604738D01*
X135466500Y-79699976D01*
X135514119Y-79747595D01*
X135609357Y-79795214D01*
X135847452Y-79795214D01*
X135942690Y-79747595D01*
X135990309Y-79699976D01*
X136037928Y-79604738D01*
X136037928Y-79414261D01*
X135990309Y-79319023D01*
X135942690Y-79271404D01*
X135847452Y-79223785D01*
G04 #@! TO.C,C17*
X139132259Y-77003978D02*
X139179878Y-77051597D01*
X139227497Y-77194454D01*
X139227497Y-77289692D01*
X139179878Y-77432549D01*
X139084640Y-77527787D01*
X138989402Y-77575406D01*
X138798926Y-77623025D01*
X138656069Y-77623025D01*
X138465593Y-77575406D01*
X138370355Y-77527787D01*
X138275117Y-77432549D01*
X138227497Y-77289692D01*
X138227497Y-77194454D01*
X138275117Y-77051597D01*
X138322736Y-77003978D01*
X139227497Y-76051597D02*
X139227497Y-76623025D01*
X139227497Y-76337311D02*
X138227497Y-76337311D01*
X138370355Y-76432549D01*
X138465593Y-76527787D01*
X138513212Y-76623025D01*
X138227497Y-75718263D02*
X138227497Y-75051597D01*
X139227497Y-75480168D01*
G04 #@! TO.C,C18*
X140719759Y-76940478D02*
X140767378Y-76988097D01*
X140814997Y-77130954D01*
X140814997Y-77226192D01*
X140767378Y-77369049D01*
X140672140Y-77464287D01*
X140576902Y-77511906D01*
X140386426Y-77559525D01*
X140243569Y-77559525D01*
X140053093Y-77511906D01*
X139957855Y-77464287D01*
X139862617Y-77369049D01*
X139814997Y-77226192D01*
X139814997Y-77130954D01*
X139862617Y-76988097D01*
X139910236Y-76940478D01*
X140814997Y-75988097D02*
X140814997Y-76559525D01*
X140814997Y-76273811D02*
X139814997Y-76273811D01*
X139957855Y-76369049D01*
X140053093Y-76464287D01*
X140100712Y-76559525D01*
X140243569Y-75416668D02*
X140195950Y-75511906D01*
X140148331Y-75559525D01*
X140053093Y-75607144D01*
X140005474Y-75607144D01*
X139910236Y-75559525D01*
X139862617Y-75511906D01*
X139814997Y-75416668D01*
X139814997Y-75226192D01*
X139862617Y-75130954D01*
X139910236Y-75083335D01*
X140005474Y-75035716D01*
X140053093Y-75035716D01*
X140148331Y-75083335D01*
X140195950Y-75130954D01*
X140243569Y-75226192D01*
X140243569Y-75416668D01*
X140291188Y-75511906D01*
X140338807Y-75559525D01*
X140434045Y-75607144D01*
X140624521Y-75607144D01*
X140719759Y-75559525D01*
X140767378Y-75511906D01*
X140814997Y-75416668D01*
X140814997Y-75226192D01*
X140767378Y-75130954D01*
X140719759Y-75083335D01*
X140624521Y-75035716D01*
X140434045Y-75035716D01*
X140338807Y-75083335D01*
X140291188Y-75130954D01*
X140243569Y-75226192D01*
G04 #@! TO.C,C22*
X142370759Y-76940478D02*
X142418378Y-76988097D01*
X142465997Y-77130954D01*
X142465997Y-77226192D01*
X142418378Y-77369049D01*
X142323140Y-77464287D01*
X142227902Y-77511906D01*
X142037426Y-77559525D01*
X141894569Y-77559525D01*
X141704093Y-77511906D01*
X141608855Y-77464287D01*
X141513617Y-77369049D01*
X141465997Y-77226192D01*
X141465997Y-77130954D01*
X141513617Y-76988097D01*
X141561236Y-76940478D01*
X141561236Y-76559525D02*
X141513617Y-76511906D01*
X141465997Y-76416668D01*
X141465997Y-76178573D01*
X141513617Y-76083335D01*
X141561236Y-76035716D01*
X141656474Y-75988097D01*
X141751712Y-75988097D01*
X141894569Y-76035716D01*
X142465997Y-76607144D01*
X142465997Y-75988097D01*
X141561236Y-75607144D02*
X141513617Y-75559525D01*
X141465997Y-75464287D01*
X141465997Y-75226192D01*
X141513617Y-75130954D01*
X141561236Y-75083335D01*
X141656474Y-75035716D01*
X141751712Y-75035716D01*
X141894569Y-75083335D01*
X142465997Y-75654763D01*
X142465997Y-75035716D01*
G04 #@! TO.C,C23*
X130357142Y-85857142D02*
X130309523Y-85904761D01*
X130166666Y-85952380D01*
X130071428Y-85952380D01*
X129928571Y-85904761D01*
X129833333Y-85809523D01*
X129785714Y-85714285D01*
X129738095Y-85523809D01*
X129738095Y-85380952D01*
X129785714Y-85190476D01*
X129833333Y-85095238D01*
X129928571Y-85000000D01*
X130071428Y-84952380D01*
X130166666Y-84952380D01*
X130309523Y-85000000D01*
X130357142Y-85047619D01*
X130738095Y-85047619D02*
X130785714Y-85000000D01*
X130880952Y-84952380D01*
X131119047Y-84952380D01*
X131214285Y-85000000D01*
X131261904Y-85047619D01*
X131309523Y-85142857D01*
X131309523Y-85238095D01*
X131261904Y-85380952D01*
X130690476Y-85952380D01*
X131309523Y-85952380D01*
X131642857Y-84952380D02*
X132261904Y-84952380D01*
X131928571Y-85333333D01*
X132071428Y-85333333D01*
X132166666Y-85380952D01*
X132214285Y-85428571D01*
X132261904Y-85523809D01*
X132261904Y-85761904D01*
X132214285Y-85857142D01*
X132166666Y-85904761D01*
X132071428Y-85952380D01*
X131785714Y-85952380D01*
X131690476Y-85904761D01*
X131642857Y-85857142D01*
G04 #@! TO.C,R7*
X160072015Y-57519937D02*
X160548205Y-57186604D01*
X160072015Y-56948508D02*
X161072015Y-56948508D01*
X161072015Y-57329461D01*
X161024396Y-57424699D01*
X160976776Y-57472318D01*
X160881538Y-57519937D01*
X160738681Y-57519937D01*
X160643443Y-57472318D01*
X160595824Y-57424699D01*
X160548205Y-57329461D01*
X160548205Y-56948508D01*
X161072015Y-57853270D02*
X161072015Y-58519937D01*
X160072015Y-58091365D01*
G04 #@! TO.C,R8*
X160072015Y-59297937D02*
X160548205Y-58964604D01*
X160072015Y-58726508D02*
X161072015Y-58726508D01*
X161072015Y-59107461D01*
X161024396Y-59202699D01*
X160976776Y-59250318D01*
X160881538Y-59297937D01*
X160738681Y-59297937D01*
X160643443Y-59250318D01*
X160595824Y-59202699D01*
X160548205Y-59107461D01*
X160548205Y-58726508D01*
X160643443Y-59869365D02*
X160691062Y-59774127D01*
X160738681Y-59726508D01*
X160833919Y-59678889D01*
X160881538Y-59678889D01*
X160976776Y-59726508D01*
X161024396Y-59774127D01*
X161072015Y-59869365D01*
X161072015Y-60059842D01*
X161024396Y-60155080D01*
X160976776Y-60202699D01*
X160881538Y-60250318D01*
X160833919Y-60250318D01*
X160738681Y-60202699D01*
X160691062Y-60155080D01*
X160643443Y-60059842D01*
X160643443Y-59869365D01*
X160595824Y-59774127D01*
X160548205Y-59726508D01*
X160452967Y-59678889D01*
X160262491Y-59678889D01*
X160167253Y-59726508D01*
X160119634Y-59774127D01*
X160072015Y-59869365D01*
X160072015Y-60059842D01*
X160119634Y-60155080D01*
X160167253Y-60202699D01*
X160262491Y-60250318D01*
X160452967Y-60250318D01*
X160548205Y-60202699D01*
X160595824Y-60155080D01*
X160643443Y-60059842D01*
G04 #@! TO.C,R9*
X160072015Y-61075937D02*
X160548205Y-60742604D01*
X160072015Y-60504508D02*
X161072015Y-60504508D01*
X161072015Y-60885461D01*
X161024396Y-60980699D01*
X160976776Y-61028318D01*
X160881538Y-61075937D01*
X160738681Y-61075937D01*
X160643443Y-61028318D01*
X160595824Y-60980699D01*
X160548205Y-60885461D01*
X160548205Y-60504508D01*
X160072015Y-61552127D02*
X160072015Y-61742604D01*
X160119634Y-61837842D01*
X160167253Y-61885461D01*
X160310110Y-61980699D01*
X160500586Y-62028318D01*
X160881538Y-62028318D01*
X160976776Y-61980699D01*
X161024396Y-61933080D01*
X161072015Y-61837842D01*
X161072015Y-61647365D01*
X161024396Y-61552127D01*
X160976776Y-61504508D01*
X160881538Y-61456889D01*
X160643443Y-61456889D01*
X160548205Y-61504508D01*
X160500586Y-61552127D01*
X160452967Y-61647365D01*
X160452967Y-61837842D01*
X160500586Y-61933080D01*
X160548205Y-61980699D01*
X160643443Y-62028318D01*
G04 #@! TO.C,R10*
X152150276Y-92301961D02*
X151674086Y-92635294D01*
X152150276Y-92873389D02*
X151150276Y-92873389D01*
X151150276Y-92492437D01*
X151197896Y-92397199D01*
X151245515Y-92349580D01*
X151340753Y-92301961D01*
X151483610Y-92301961D01*
X151578848Y-92349580D01*
X151626467Y-92397199D01*
X151674086Y-92492437D01*
X151674086Y-92873389D01*
X152150276Y-91349580D02*
X152150276Y-91921008D01*
X152150276Y-91635294D02*
X151150276Y-91635294D01*
X151293134Y-91730532D01*
X151388372Y-91825770D01*
X151435991Y-91921008D01*
X151150276Y-90730532D02*
X151150276Y-90635294D01*
X151197896Y-90540056D01*
X151245515Y-90492437D01*
X151340753Y-90444818D01*
X151531229Y-90397199D01*
X151769324Y-90397199D01*
X151959800Y-90444818D01*
X152055038Y-90492437D01*
X152102657Y-90540056D01*
X152150276Y-90635294D01*
X152150276Y-90730532D01*
X152102657Y-90825770D01*
X152055038Y-90873389D01*
X151959800Y-90921008D01*
X151769324Y-90968627D01*
X151531229Y-90968627D01*
X151340753Y-90921008D01*
X151245515Y-90873389D01*
X151197896Y-90825770D01*
X151150276Y-90730532D01*
G04 #@! TO.C,R11*
X161151538Y-74140984D02*
X160818205Y-73664794D01*
X160580110Y-74140984D02*
X160580110Y-73140984D01*
X160961062Y-73140984D01*
X161056300Y-73188604D01*
X161103919Y-73236223D01*
X161151538Y-73331461D01*
X161151538Y-73474318D01*
X161103919Y-73569556D01*
X161056300Y-73617175D01*
X160961062Y-73664794D01*
X160580110Y-73664794D01*
X162103919Y-74140984D02*
X161532491Y-74140984D01*
X161818205Y-74140984D02*
X161818205Y-73140984D01*
X161722967Y-73283842D01*
X161627729Y-73379080D01*
X161532491Y-73426699D01*
X163056300Y-74140984D02*
X162484872Y-74140984D01*
X162770586Y-74140984D02*
X162770586Y-73140984D01*
X162675348Y-73283842D01*
X162580110Y-73379080D01*
X162484872Y-73426699D01*
G04 #@! TO.C,R12*
X153547276Y-92428961D02*
X153071086Y-92762294D01*
X153547276Y-93000389D02*
X152547276Y-93000389D01*
X152547276Y-92619437D01*
X152594896Y-92524199D01*
X152642515Y-92476580D01*
X152737753Y-92428961D01*
X152880610Y-92428961D01*
X152975848Y-92476580D01*
X153023467Y-92524199D01*
X153071086Y-92619437D01*
X153071086Y-93000389D01*
X153547276Y-91476580D02*
X153547276Y-92048008D01*
X153547276Y-91762294D02*
X152547276Y-91762294D01*
X152690134Y-91857532D01*
X152785372Y-91952770D01*
X152832991Y-92048008D01*
X152642515Y-91095627D02*
X152594896Y-91048008D01*
X152547276Y-90952770D01*
X152547276Y-90714675D01*
X152594896Y-90619437D01*
X152642515Y-90571818D01*
X152737753Y-90524199D01*
X152832991Y-90524199D01*
X152975848Y-90571818D01*
X153547276Y-91143246D01*
X153547276Y-90524199D01*
G04 #@! TO.C,R15*
X148213276Y-92428961D02*
X147737086Y-92762294D01*
X148213276Y-93000389D02*
X147213276Y-93000389D01*
X147213276Y-92619437D01*
X147260896Y-92524199D01*
X147308515Y-92476580D01*
X147403753Y-92428961D01*
X147546610Y-92428961D01*
X147641848Y-92476580D01*
X147689467Y-92524199D01*
X147737086Y-92619437D01*
X147737086Y-93000389D01*
X148213276Y-91476580D02*
X148213276Y-92048008D01*
X148213276Y-91762294D02*
X147213276Y-91762294D01*
X147356134Y-91857532D01*
X147451372Y-91952770D01*
X147498991Y-92048008D01*
X147213276Y-90571818D02*
X147213276Y-91048008D01*
X147689467Y-91095627D01*
X147641848Y-91048008D01*
X147594229Y-90952770D01*
X147594229Y-90714675D01*
X147641848Y-90619437D01*
X147689467Y-90571818D01*
X147784705Y-90524199D01*
X148022800Y-90524199D01*
X148118038Y-90571818D01*
X148165657Y-90619437D01*
X148213276Y-90714675D01*
X148213276Y-90952770D01*
X148165657Y-91048008D01*
X148118038Y-91095627D01*
G04 #@! TO.C,R16*
X149761876Y-92542561D02*
X149285686Y-92875894D01*
X149761876Y-93113989D02*
X148761876Y-93113989D01*
X148761876Y-92733037D01*
X148809496Y-92637799D01*
X148857115Y-92590180D01*
X148952353Y-92542561D01*
X149095210Y-92542561D01*
X149190448Y-92590180D01*
X149238067Y-92637799D01*
X149285686Y-92733037D01*
X149285686Y-93113989D01*
X149761876Y-91590180D02*
X149761876Y-92161608D01*
X149761876Y-91875894D02*
X148761876Y-91875894D01*
X148904734Y-91971132D01*
X148999972Y-92066370D01*
X149047591Y-92161608D01*
X148761876Y-90733037D02*
X148761876Y-90923513D01*
X148809496Y-91018751D01*
X148857115Y-91066370D01*
X148999972Y-91161608D01*
X149190448Y-91209227D01*
X149571400Y-91209227D01*
X149666638Y-91161608D01*
X149714257Y-91113989D01*
X149761876Y-91018751D01*
X149761876Y-90828275D01*
X149714257Y-90733037D01*
X149666638Y-90685418D01*
X149571400Y-90637799D01*
X149333305Y-90637799D01*
X149238067Y-90685418D01*
X149190448Y-90733037D01*
X149142829Y-90828275D01*
X149142829Y-91018751D01*
X149190448Y-91113989D01*
X149238067Y-91161608D01*
X149333305Y-91209227D01*
G04 #@! TD*
M02*
