M48
;DRILL file {KiCad (5.0.0)} date 09/16/18 18:52:38
;FORMAT={-:-/ absolute / metric / decimal}
FMAT,2
METRIC,TZ
T1C0.400
T2C0.700
T3C0.780
T4C1.016
%
G90
G05
M71
T1
X118.456Y-98.86
X121.5Y-94.
X122.583Y-91.685
X125.469Y-90.004
X125.885Y-96.066
X126.508Y-93.602
X126.863Y-92.078
X128.5Y-85.75
X132.082Y-87.267
X133.792Y-56.99
X135.062Y-57.03
X135.25Y-93.75
X137.33Y-78.54
X137.98Y-84.89
X138.042Y-86.887
X138.49Y-57.242
X138.68Y-86.04
X139.729Y-85.74
X140.141Y-63.898
X140.594Y-86.04
X140.776Y-67.783
X141.28Y-82.04
X143.58Y-88.14
X143.779Y-61.814
X145.33Y-91.05
X145.602Y-55.21
X146.52Y-91.06
X146.872Y-57.242
X146.917Y-81.198
X147.507Y-86.008
X148.142Y-57.242
X150.453Y-79.137
X150.479Y-81.118
X151.444Y-57.242
X151.444Y-80.001
X151.469Y-82.007
X153.476Y-84.725
X153.572Y-63.846
X154.314Y-77.384
X155.37Y-91.5
X156.905Y-54.448
X157.093Y-61.587
X158.505Y-80.763
X158.505Y-82.033
X159.445Y-79.442
X159.546Y-82.033
X161.032Y-62.894
X161.502Y-82.083
X161.81Y-95.68
X162.315Y-77.308
X162.5Y-93.7
X162.55Y-91.5
X164.461Y-55.401
X165.668Y-88.492
X165.73Y-95.67
X166.481Y-81.982
X166.531Y-84.801
X167.471Y-82.007
X167.522Y-84.801
X168.75Y-90.913
X169.15Y-68.35
X169.503Y-81.982
X169.986Y-62.005
X170.316Y-77.384
X170.6Y-92.791
X173.112Y-66.095
X174.05Y-54.766
X174.382Y-66.095
X174.55Y-92.15
X174.634Y-79.213
X174.659Y-84.776
X175.65Y-79.264
X175.675Y-84.801
X176.102Y-61.751
X176.65Y-90.4
X176.795Y-62.64
X176.945Y-81.702
X177.37Y-59.028
X177.479Y-70.704
X178.258Y-93.7
X178.52Y-77.816
X179.49Y-93.32
X181.36Y-91.48
X182.05Y-92.61
X184.007Y-77.969
X184.032Y-76.978
X185.68Y-93.316
X186.95Y-92.6
X186.978Y-77.969
X186.978Y-85.131
X186.978Y-86.127
X187.004Y-73.967
X187.004Y-74.967
X187.004Y-76.953
X187.004Y-84.127
X187.004Y-87.29
X187.004Y-89.5
X187.029Y-75.962
X187.029Y-88.129
X187.85Y-91.9
X188.083Y-90.834
X188.25Y-93.85
X189.696Y-84.127
X189.747Y-73.967
X190.814Y-89.322
T2
X136.661Y-73.371
X144.281Y-73.371
X133.5Y-66.98
X133.5Y-74.6
T3
X179.166Y-55.102
X179.166Y-67.802
X181.666Y-55.102
X181.666Y-67.802
X184.166Y-55.102
X184.166Y-67.802
X186.666Y-55.102
X186.666Y-67.802
T4
X128.736Y-97.336
X128.736Y-99.876
X131.276Y-97.336
X131.276Y-99.876
X133.816Y-97.336
X133.816Y-99.876
X136.356Y-97.336
X136.356Y-99.876
X138.896Y-97.336
X138.896Y-99.876
X141.436Y-97.336
X141.436Y-99.876
X143.976Y-97.336
X143.976Y-99.876
X146.516Y-97.336
X146.516Y-99.876
X149.056Y-97.336
X149.056Y-99.876
X151.596Y-97.336
X151.596Y-99.876
X154.136Y-97.336
X154.136Y-99.876
X156.676Y-97.336
X156.676Y-99.876
X159.216Y-97.336
X159.216Y-99.876
X161.756Y-97.336
X161.756Y-99.876
X164.296Y-97.336
X164.296Y-99.876
X166.836Y-97.336
X166.836Y-99.876
X169.376Y-97.336
X169.376Y-99.876
X171.916Y-97.336
X171.916Y-99.876
X174.456Y-97.336
X174.456Y-99.876
X176.996Y-97.336
X176.996Y-99.876
X179.536Y-97.336
X179.536Y-99.876
X182.076Y-97.336
X182.076Y-99.876
X184.616Y-97.336
X184.616Y-99.876
X128.736Y-49.076
X128.736Y-51.616
X131.276Y-49.076
X131.276Y-51.616
X133.816Y-49.076
X133.816Y-51.616
X136.356Y-49.076
X136.356Y-51.616
X138.896Y-49.076
X138.896Y-51.616
X141.436Y-49.076
X141.436Y-51.616
X143.976Y-49.076
X143.976Y-51.616
X146.516Y-49.076
X146.516Y-51.616
X149.056Y-49.076
X149.056Y-51.616
X151.596Y-49.076
X151.596Y-51.616
X154.136Y-49.076
X154.136Y-51.616
X156.676Y-49.076
X156.676Y-51.616
X159.216Y-49.076
X159.216Y-51.616
X161.756Y-49.076
X161.756Y-51.616
X164.296Y-49.076
X164.296Y-51.616
X166.836Y-49.076
X166.836Y-51.616
X169.376Y-49.076
X169.376Y-51.616
X171.916Y-49.076
X171.916Y-51.616
X174.456Y-49.076
X174.456Y-51.616
X176.996Y-49.076
X176.996Y-51.616
X179.536Y-49.076
X179.536Y-51.616
X182.076Y-49.076
X182.076Y-51.616
X184.616Y-49.076
X184.616Y-51.616
T0
M30
