M48
;DRILL file {KiCad (5.0.0)} date 11/04/18 22:59:22
;FORMAT={-:-/ absolute / inch / decimal}
FMAT,2
INCH,TZ
T1C0.0157
T2C0.0276
T3C0.0307
T4C0.0400
%
G90
G05
M72
T1
X4.6636Y-3.8921
X4.7835Y-3.7008
X4.8261Y-3.6096
X4.9397Y-3.5435
X4.9561Y-3.7821
X4.9806Y-3.6851
X4.9946Y-3.6251
X5.0591Y-3.376
X5.2001Y-3.4357
X5.2674Y-2.2437
X5.3174Y-2.2453
X5.3248Y-3.6909
X5.4067Y-3.0921
X5.4323Y-3.3421
X5.4347Y-3.4207
X5.4524Y-2.2536
X5.4598Y-3.3874
X5.5011Y-3.3756
X5.5174Y-2.5157
X5.5352Y-3.3874
X5.5424Y-2.6686
X5.5622Y-3.2299
X5.6528Y-3.4701
X5.6606Y-2.4336
X5.7217Y-3.5846
X5.7324Y-2.1736
X5.7685Y-3.585
X5.7824Y-2.2536
X5.7841Y-3.1968
X5.8074Y-3.3861
X5.8324Y-2.2536
X5.9234Y-3.1156
X5.9244Y-3.1936
X5.9624Y-2.2536
X5.9624Y-3.1496
X5.9634Y-3.2286
X6.0424Y-3.3356
X6.0461Y-2.5136
X6.0754Y-3.0466
X6.1169Y-3.6024
X6.1774Y-2.1436
X6.1848Y-2.4247
X6.2404Y-3.1796
X6.2404Y-3.2296
X6.2774Y-3.1276
X6.2814Y-3.2296
X6.3399Y-2.4761
X6.3584Y-3.2316
X6.3705Y-3.7669
X6.3904Y-3.0436
X6.3976Y-3.689
X6.3996Y-3.6024
X6.4749Y-2.1811
X6.5224Y-3.4839
X6.5248Y-3.7665
X6.5544Y-3.2276
X6.5564Y-3.3386
X6.5934Y-3.2286
X6.5954Y-3.3386
X6.6437Y-3.5793
X6.6594Y-2.6909
X6.6734Y-3.2276
X6.6924Y-2.4411
X6.7054Y-3.0466
X6.7165Y-3.6532
X6.8154Y-2.6022
X6.8524Y-2.1561
X6.8654Y-2.6022
X6.872Y-3.628
X6.8754Y-3.1186
X6.8764Y-3.3376
X6.9154Y-3.1206
X6.9164Y-3.3386
X6.9332Y-2.4311
X6.9547Y-3.5591
X6.9604Y-2.4661
X6.9664Y-3.2166
X6.9831Y-2.3239
X6.9874Y-2.7836
X7.018Y-3.689
X7.0284Y-3.0636
X7.0665Y-3.674
X7.1402Y-3.6016
X7.1673Y-3.6461
X7.2444Y-3.0696
X7.2454Y-3.0306
X7.3102Y-3.6739
X7.3602Y-3.6457
X7.3614Y-3.0696
X7.3614Y-3.3516
X7.3614Y-3.3908
X7.3624Y-2.9121
X7.3624Y-2.9514
X7.3624Y-3.0296
X7.3624Y-3.3121
X7.3624Y-3.4366
X7.3624Y-3.5236
X7.3634Y-2.9906
X7.3634Y-3.4696
X7.3957Y-3.6181
X7.4049Y-3.5761
X7.4114Y-3.6949
X7.4684Y-3.3121
X7.4704Y-2.9121
X7.5124Y-3.5166
T2
X5.2559Y-2.637
X5.2559Y-2.937
X5.3804Y-2.8886
X5.6804Y-2.8886
T3
X7.0538Y-2.1694
X7.0538Y-2.6694
X7.1522Y-2.1694
X7.1522Y-2.6694
X7.2506Y-2.1694
X7.2506Y-2.6694
X7.3491Y-2.1694
X7.3491Y-2.6694
T4
X5.0684Y-3.8321
X5.0684Y-3.9321
X5.1684Y-3.8321
X5.1684Y-3.9321
X5.2684Y-3.8321
X5.2684Y-3.9321
X5.3684Y-3.8321
X5.3684Y-3.9321
X5.4684Y-3.8321
X5.4684Y-3.9321
X5.5684Y-3.8321
X5.5684Y-3.9321
X5.6684Y-3.8321
X5.6684Y-3.9321
X5.7684Y-3.8321
X5.7684Y-3.9321
X5.8684Y-3.8321
X5.8684Y-3.9321
X5.9684Y-3.8321
X5.9684Y-3.9321
X6.0684Y-3.8321
X6.0684Y-3.9321
X6.1684Y-3.8321
X6.1684Y-3.9321
X6.2684Y-3.8321
X6.2684Y-3.9321
X6.3684Y-3.8321
X6.3684Y-3.9321
X6.4684Y-3.8321
X6.4684Y-3.9321
X6.5684Y-3.8321
X6.5684Y-3.9321
X6.6684Y-3.8321
X6.6684Y-3.9321
X6.7684Y-3.8321
X6.7684Y-3.9321
X6.8684Y-3.8321
X6.8684Y-3.9321
X6.9684Y-3.8321
X6.9684Y-3.9321
X7.0684Y-3.8321
X7.0684Y-3.9321
X7.1684Y-3.8321
X7.1684Y-3.9321
X7.2684Y-3.8321
X7.2684Y-3.9321
X5.0684Y-1.9321
X5.0684Y-2.0321
X5.1684Y-1.9321
X5.1684Y-2.0321
X5.2684Y-1.9321
X5.2684Y-2.0321
X5.3684Y-1.9321
X5.3684Y-2.0321
X5.4684Y-1.9321
X5.4684Y-2.0321
X5.5684Y-1.9321
X5.5684Y-2.0321
X5.6684Y-1.9321
X5.6684Y-2.0321
X5.7684Y-1.9321
X5.7684Y-2.0321
X5.8684Y-1.9321
X5.8684Y-2.0321
X5.9684Y-1.9321
X5.9684Y-2.0321
X6.0684Y-1.9321
X6.0684Y-2.0321
X6.1684Y-1.9321
X6.1684Y-2.0321
X6.2684Y-1.9321
X6.2684Y-2.0321
X6.3684Y-1.9321
X6.3684Y-2.0321
X6.4684Y-1.9321
X6.4684Y-2.0321
X6.5684Y-1.9321
X6.5684Y-2.0321
X6.6684Y-1.9321
X6.6684Y-2.0321
X6.7684Y-1.9321
X6.7684Y-2.0321
X6.8684Y-1.9321
X6.8684Y-2.0321
X6.9684Y-1.9321
X6.9684Y-2.0321
X7.0684Y-1.9321
X7.0684Y-2.0321
X7.1684Y-1.9321
X7.1684Y-2.0321
X7.2684Y-1.9321
X7.2684Y-2.0321
T0
M30
