G04 #@! TF.GenerationSoftware,KiCad,Pcbnew,(5.0.0)*
G04 #@! TF.CreationDate,2018-11-04T22:59:11-02:00*
G04 #@! TF.ProjectId,Cape_Beaglebone,436170655F426561676C65626F6E652E,rev?*
G04 #@! TF.SameCoordinates,Original*
G04 #@! TF.FileFunction,Soldermask,Top*
G04 #@! TF.FilePolarity,Negative*
%FSLAX46Y46*%
G04 Gerber Fmt 4.6, Leading zero omitted, Abs format (unit mm)*
G04 Created by KiCad (PCBNEW (5.0.0)) date 11/04/18 22:59:11*
%MOMM*%
%LPD*%
G01*
G04 APERTURE LIST*
%ADD10R,0.600000X1.800000*%
%ADD11R,1.000000X2.800000*%
%ADD12R,1.000000X1.250000*%
%ADD13O,1.400000X1.400000*%
%ADD14C,1.400000*%
%ADD15R,1.727200X1.727200*%
%ADD16O,1.727200X1.727200*%
%ADD17R,0.900000X0.500000*%
%ADD18R,0.600000X0.300000*%
%ADD19R,0.300000X0.600000*%
%ADD20R,0.650000X1.650000*%
%ADD21R,0.700000X0.600000*%
%ADD22R,0.500000X0.600000*%
%ADD23C,1.280000*%
%ADD24C,1.000000*%
%ADD25R,0.760000X1.600000*%
%ADD26R,1.250000X1.000000*%
%ADD27R,1.550000X0.600000*%
%ADD28R,1.800000X1.200000*%
%ADD29R,0.600000X1.550000*%
%ADD30R,1.200000X1.800000*%
%ADD31R,0.500000X0.900000*%
G04 APERTURE END LIST*
D10*
G04 #@! TO.C,J3*
X174235000Y-67940000D03*
X172985000Y-67940000D03*
D11*
X171260000Y-71290000D03*
X175960000Y-71290000D03*
G04 #@! TD*
D12*
G04 #@! TO.C,C34*
X139500000Y-67400000D03*
X137500000Y-67400000D03*
G04 #@! TD*
D13*
G04 #@! TO.C,L2*
X133500000Y-66980000D03*
D14*
X133500000Y-74600000D03*
G04 #@! TD*
D15*
G04 #@! TO.C,P8*
X128736296Y-99876004D03*
D16*
X128736296Y-97336004D03*
X131276296Y-99876004D03*
X131276296Y-97336004D03*
X133816296Y-99876004D03*
X133816296Y-97336004D03*
X136356296Y-99876004D03*
X136356296Y-97336004D03*
X138896296Y-99876004D03*
X138896296Y-97336004D03*
X141436296Y-99876004D03*
X141436296Y-97336004D03*
X143976296Y-99876004D03*
X143976296Y-97336004D03*
X146516296Y-99876004D03*
X146516296Y-97336004D03*
X149056296Y-99876004D03*
X149056296Y-97336004D03*
X151596296Y-99876004D03*
X151596296Y-97336004D03*
X154136296Y-99876004D03*
X154136296Y-97336004D03*
X156676296Y-99876004D03*
X156676296Y-97336004D03*
X159216296Y-99876004D03*
X159216296Y-97336004D03*
X161756296Y-99876004D03*
X161756296Y-97336004D03*
X164296296Y-99876004D03*
X164296296Y-97336004D03*
X166836296Y-99876004D03*
X166836296Y-97336004D03*
X169376296Y-99876004D03*
X169376296Y-97336004D03*
X171916296Y-99876004D03*
X171916296Y-97336004D03*
X174456296Y-99876004D03*
X174456296Y-97336004D03*
X176996296Y-99876004D03*
X176996296Y-97336004D03*
X179536296Y-99876004D03*
X179536296Y-97336004D03*
X182076296Y-99876004D03*
X182076296Y-97336004D03*
X184616296Y-99876004D03*
X184616296Y-97336004D03*
G04 #@! TD*
D14*
G04 #@! TO.C,L1*
X136661096Y-73371104D03*
D13*
X144281096Y-73371104D03*
G04 #@! TD*
D17*
G04 #@! TO.C,R17*
X166747396Y-57190604D03*
X166747396Y-58690604D03*
G04 #@! TD*
G04 #@! TO.C,R18*
X165477396Y-58690604D03*
X165477396Y-57190604D03*
G04 #@! TD*
D18*
G04 #@! TO.C,IC9*
X138019617Y-81965121D03*
X138019617Y-82465121D03*
X138019617Y-82965121D03*
X138019617Y-83465121D03*
X138019617Y-83965121D03*
D19*
X138719617Y-84165121D03*
X139219617Y-84165121D03*
X139719617Y-84165121D03*
D18*
X140419617Y-83965121D03*
X140419617Y-83465121D03*
X140419617Y-82965121D03*
X140419617Y-82465121D03*
X140419617Y-81965121D03*
D19*
X139719617Y-81765121D03*
X139219617Y-81765121D03*
X138719617Y-81765121D03*
G04 #@! TD*
D20*
G04 #@! TO.C,IC5*
X165731396Y-70251604D03*
X164461396Y-70251604D03*
X163191396Y-70251604D03*
X161921396Y-70251604D03*
X161921396Y-62901604D03*
X163191396Y-62901604D03*
X164461396Y-62901604D03*
X165731396Y-62901604D03*
G04 #@! TD*
D21*
G04 #@! TO.C,IC11*
X131549696Y-88826404D03*
X130049696Y-88826404D03*
X128549696Y-88826404D03*
X128549696Y-91726404D03*
X130049696Y-91726404D03*
X131549696Y-91726404D03*
D22*
X131549696Y-90276404D03*
G04 #@! TD*
D23*
G04 #@! TO.C,U1*
X186665896Y-67801604D03*
X184165896Y-67801604D03*
X181665896Y-67801604D03*
X179165896Y-67801604D03*
X179165896Y-55101604D03*
X181665896Y-55101604D03*
X184165896Y-55101604D03*
X186665896Y-55101604D03*
G04 #@! TD*
D24*
G04 #@! TO.C,J5*
X164334396Y-72418604D03*
G04 #@! TD*
D25*
G04 #@! TO.C,SW1*
X166747396Y-55400604D03*
X165477396Y-60480604D03*
X165477396Y-55400604D03*
X166747396Y-60480604D03*
G04 #@! TD*
D26*
G04 #@! TO.C,C33*
X146917396Y-77573104D03*
X146917396Y-79573104D03*
G04 #@! TD*
D27*
G04 #@! TO.C,J11*
X185535896Y-88126604D03*
X185535896Y-87126604D03*
X185535896Y-86126604D03*
X185535896Y-85126604D03*
X185535896Y-84126604D03*
X185535896Y-83126604D03*
D28*
X183010896Y-89426604D03*
X183010896Y-81826604D03*
G04 #@! TD*
D27*
G04 #@! TO.C,J4*
X185535896Y-77966604D03*
X185535896Y-76966604D03*
X185535896Y-75966604D03*
X185535896Y-74966604D03*
X185535896Y-73966604D03*
X185535896Y-72966604D03*
D28*
X183010896Y-79266604D03*
X183010896Y-71666604D03*
G04 #@! TD*
D27*
G04 #@! TO.C,J6*
X191123896Y-77966604D03*
X191123896Y-76966604D03*
X191123896Y-75966604D03*
X191123896Y-74966604D03*
X191123896Y-73966604D03*
X191123896Y-72966604D03*
D28*
X188598896Y-79266604D03*
X188598896Y-71666604D03*
G04 #@! TD*
D27*
G04 #@! TO.C,J16*
X191123896Y-88126604D03*
X191123896Y-87126604D03*
X191123896Y-86126604D03*
X191123896Y-85126604D03*
X191123896Y-84126604D03*
X191123896Y-83126604D03*
D28*
X188598896Y-89426604D03*
X188598896Y-81826604D03*
G04 #@! TD*
D29*
G04 #@! TO.C,J1*
X139475896Y-59289104D03*
X138475896Y-59289104D03*
X137475896Y-59289104D03*
X136475896Y-59289104D03*
D30*
X140775896Y-61814104D03*
X135175896Y-61814104D03*
G04 #@! TD*
D29*
G04 #@! TO.C,J2*
X152435896Y-59281604D03*
X151435896Y-59281604D03*
X150435896Y-59281604D03*
X149435896Y-59281604D03*
D30*
X153735896Y-61806604D03*
X148135896Y-61806604D03*
G04 #@! TD*
D29*
G04 #@! TO.C,J7*
X153451896Y-83411604D03*
X152451896Y-83411604D03*
X151451896Y-83411604D03*
X150451896Y-83411604D03*
D30*
X154751896Y-85936604D03*
X149151896Y-85936604D03*
G04 #@! TD*
D29*
G04 #@! TO.C,J8*
X153451896Y-77823604D03*
X152451896Y-77823604D03*
X151451896Y-77823604D03*
X150451896Y-77823604D03*
D30*
X154751896Y-80348604D03*
X149151896Y-80348604D03*
G04 #@! TD*
D29*
G04 #@! TO.C,J9*
X161516396Y-83411604D03*
X160516396Y-83411604D03*
X159516396Y-83411604D03*
X158516396Y-83411604D03*
D30*
X162816396Y-85936604D03*
X157216396Y-85936604D03*
G04 #@! TD*
D29*
G04 #@! TO.C,J10*
X161452896Y-77823604D03*
X160452896Y-77823604D03*
X159452896Y-77823604D03*
X158452896Y-77823604D03*
D30*
X162752896Y-80348604D03*
X157152896Y-80348604D03*
G04 #@! TD*
D29*
G04 #@! TO.C,J12*
X177645396Y-83348104D03*
X176645396Y-83348104D03*
X175645396Y-83348104D03*
X174645396Y-83348104D03*
D30*
X178945396Y-85873104D03*
X173345396Y-85873104D03*
G04 #@! TD*
D29*
G04 #@! TO.C,J13*
X169517396Y-83411604D03*
X168517396Y-83411604D03*
X167517396Y-83411604D03*
X166517396Y-83411604D03*
D30*
X170817396Y-85936604D03*
X165217396Y-85936604D03*
G04 #@! TD*
D29*
G04 #@! TO.C,J14*
X169453896Y-77823604D03*
X168453896Y-77823604D03*
X167453896Y-77823604D03*
X166453896Y-77823604D03*
D30*
X170753896Y-80348604D03*
X165153896Y-80348604D03*
G04 #@! TD*
D29*
G04 #@! TO.C,J15*
X177645396Y-77823604D03*
X176645396Y-77823604D03*
X175645396Y-77823604D03*
X174645396Y-77823604D03*
D30*
X178945396Y-80348604D03*
X173345396Y-80348604D03*
G04 #@! TD*
D15*
G04 #@! TO.C,P9*
X128736296Y-51616004D03*
D16*
X128736296Y-49076004D03*
X131276296Y-51616004D03*
X131276296Y-49076004D03*
X133816296Y-51616004D03*
X133816296Y-49076004D03*
X136356296Y-51616004D03*
X136356296Y-49076004D03*
X138896296Y-51616004D03*
X138896296Y-49076004D03*
X141436296Y-51616004D03*
X141436296Y-49076004D03*
X143976296Y-51616004D03*
X143976296Y-49076004D03*
X146516296Y-51616004D03*
X146516296Y-49076004D03*
X149056296Y-51616004D03*
X149056296Y-49076004D03*
X151596296Y-51616004D03*
X151596296Y-49076004D03*
X154136296Y-51616004D03*
X154136296Y-49076004D03*
X156676296Y-51616004D03*
X156676296Y-49076004D03*
X159216296Y-51616004D03*
X159216296Y-49076004D03*
X161756296Y-51616004D03*
X161756296Y-49076004D03*
X164296296Y-51616004D03*
X164296296Y-49076004D03*
X166836296Y-51616004D03*
X166836296Y-49076004D03*
X169376296Y-51616004D03*
X169376296Y-49076004D03*
X171916296Y-51616004D03*
X171916296Y-49076004D03*
X174456296Y-51616004D03*
X174456296Y-49076004D03*
X176996296Y-51616004D03*
X176996296Y-49076004D03*
X179536296Y-51616004D03*
X179536296Y-49076004D03*
X182076296Y-51616004D03*
X182076296Y-49076004D03*
X184616296Y-51616004D03*
X184616296Y-49076004D03*
G04 #@! TD*
D26*
G04 #@! TO.C,C8*
X167636396Y-68370604D03*
X167636396Y-70370604D03*
G04 #@! TD*
G04 #@! TO.C,C9*
X136030000Y-83740000D03*
X136030000Y-81740000D03*
G04 #@! TD*
G04 #@! TO.C,C17*
X138690175Y-80552121D03*
X138690175Y-78552121D03*
G04 #@! TD*
G04 #@! TO.C,C18*
X140354975Y-78563167D03*
X140354975Y-80563167D03*
G04 #@! TD*
G04 #@! TO.C,C22*
X142005975Y-80552121D03*
X142005975Y-78552121D03*
G04 #@! TD*
D12*
G04 #@! TO.C,C23*
X128744896Y-87291904D03*
X130744896Y-87291904D03*
G04 #@! TD*
D31*
G04 #@! TO.C,R7*
X163052396Y-57940604D03*
X161552396Y-57940604D03*
G04 #@! TD*
G04 #@! TO.C,R8*
X161552396Y-59464604D03*
X163052396Y-59464604D03*
G04 #@! TD*
G04 #@! TO.C,R9*
X163052396Y-60988604D03*
X161552396Y-60988604D03*
G04 #@! TD*
D17*
G04 #@! TO.C,R10*
X151686296Y-93526004D03*
X151686296Y-95026004D03*
G04 #@! TD*
D31*
G04 #@! TO.C,R11*
X162544396Y-72164604D03*
X161044396Y-72164604D03*
G04 #@! TD*
D17*
G04 #@! TO.C,R12*
X152986296Y-95026004D03*
X152986296Y-93526004D03*
G04 #@! TD*
G04 #@! TO.C,R15*
X147766296Y-95153004D03*
X147766296Y-93653004D03*
G04 #@! TD*
G04 #@! TO.C,R16*
X149284896Y-93639604D03*
X149284896Y-95139604D03*
G04 #@! TD*
M02*
